Commissioner-Light.ufo
<glyph name="numbersign" format="2">
  <advance width="1357.3894736842105"/>
  <unicode hex="0023"/>
  <outline>
    <contour>
      <point x="36.421052631578945" y="319.4526315789474" type="line"/>
      <point x="158.50526315789475" y="319.4526315789474"/>
      <point x="274.2315789473684" y="319.4526315789474"/>
      <point x="373.6" y="319.4526315789474" type="curve"/>
      <point x="867.8736842105263" y="319.4526315789474" type="line"/>
      <point x="967.2421052631579" y="319.4526315789474"/>
      <point x="1082.9684210526316" y="319.4526315789474"/>
      <point x="1205.0526315789473" y="319.4526315789474" type="curve"/>
      <point x="1205.0526315789473" y="422.69473684210527" type="line"/>
      <point x="1082.9684210526316" y="422.69473684210527"/>
      <point x="967.2421052631579" y="422.69473684210527"/>
      <point x="867.8736842105263" y="422.69473684210527" type="curve"/>
      <point x="373.6" y="422.69473684210527" type="line"/>
      <point x="274.2315789473684" y="422.69473684210527"/>
      <point x="158.50526315789475" y="422.69473684210527"/>
      <point x="36.421052631578945" y="422.69473684210527" type="curve"/>
    </contour>
    <contour>
      <point x="246.4" y="0.0" type="curve"/>
      <point x="355.2842105263158" y="0.0" type="line"/>
      <point x="384.2105263157895" y="138.0"/>
      <point x="407.4947368421053" y="253.22105263157894"/>
      <point x="442.06315789473683" y="421.57894736842104" type="curve"/>
      <point x="535.7684210526315" y="874.0842105263158" type="line"/>
      <point x="571.978947368421" y="1053.157894736842"/>
      <point x="596.5473684210526" y="1171.7263157894736"/>
      <point x="625.4736842105264" y="1313.157894736842" type="curve"/>
      <point x="516.5894736842105" y="1313.157894736842" type="line"/>
      <point x="487.66315789473686" y="1170.2947368421053"/>
      <point x="463.09473684210525" y="1052.0842105263157"/>
      <point x="426.88421052631577" y="877.3684210526316" type="curve"/>
      <point x="333.17894736842106" y="421.57894736842104" type="line"/>
      <point x="298.61052631578946" y="252.50526315789475"/>
      <point x="274.9684210526316" y="136.56842105263158"/>
    </contour>
    <contour>
      <point x="152.33684210526314" y="884.4631578947368" type="line"/>
      <point x="274.42105263157896" y="884.4631578947368"/>
      <point x="390.14736842105265" y="884.4631578947368"/>
      <point x="489.5157894736842" y="884.4631578947368" type="curve"/>
      <point x="983.7894736842105" y="884.4631578947368" type="line"/>
      <point x="1083.157894736842" y="884.4631578947368"/>
      <point x="1198.8842105263159" y="884.4631578947368"/>
      <point x="1320.9684210526316" y="884.4631578947368" type="curve"/>
      <point x="1320.9684210526316" y="987.7052631578947" type="line"/>
      <point x="1198.8842105263159" y="987.7052631578947"/>
      <point x="1083.157894736842" y="987.7052631578947"/>
      <point x="983.7894736842105" y="987.7052631578947" type="curve"/>
      <point x="489.5157894736842" y="987.7052631578947" type="line"/>
      <point x="390.14736842105265" y="987.7052631578947"/>
      <point x="274.42105263157896" y="987.7052631578947"/>
      <point x="152.33684210526314" y="987.7052631578947" type="curve"/>
    </contour>
    <contour>
      <point x="717.1368421052632" y="0.0" type="curve"/>
      <point x="826.021052631579" y="0.0" type="line"/>
      <point x="854.9473684210526" y="138.0"/>
      <point x="878.2315789473685" y="253.22105263157894"/>
      <point x="912.8" y="421.57894736842104" type="curve"/>
      <point x="1006.5052631578948" y="874.0842105263158" type="line"/>
      <point x="1042.7157894736843" y="1053.157894736842"/>
      <point x="1067.2842105263157" y="1171.7263157894736"/>
      <point x="1096.2105263157894" y="1313.157894736842" type="curve"/>
      <point x="987.3263157894737" y="1313.157894736842" type="line"/>
      <point x="958.4" y="1170.2947368421053"/>
      <point x="933.8315789473684" y="1052.0842105263157"/>
      <point x="897.621052631579" y="877.3684210526316" type="curve"/>
      <point x="803.9157894736842" y="421.57894736842104" type="line"/>
      <point x="769.3473684210526" y="252.50526315789475"/>
      <point x="745.7052631578947" y="136.56842105263158"/>
    </contour>
  </outline>
</glyph>
<glyph name="percent" format="2">
  <advance width="1728.842105263158"/>
  <unicode hex="0025"/>
  <outline>
    <contour>
      <point x="394.2736842105263" y="0.0" type="curve"/>
      <point x="518.8210526315789" y="0.0" type="line"/>
      <point x="601.8947368421052" y="146.0"/>
      <point x="675.3263157894737" y="276.3578947368421"/>
      <point x="779.1157894736842" y="458.3578947368421" type="curve"/>
      <point x="1061.4105263157894" y="954.0" type="line"/>
      <point x="1168.4842105263158" y="1143.2842105263157"/>
      <point x="1242.6315789473683" y="1272.7157894736843"/>
      <point x="1329.3473684210526" y="1426.0" type="curve"/>
      <point x="1204.8" y="1426.0" type="line"/>
      <point x="1118.0842105263157" y="1272.7157894736843"/>
      <point x="1043.9368421052632" y="1143.2842105263157"/>
      <point x="936.8631578947368" y="954.0" type="curve"/>
      <point x="654.5684210526316" y="458.3578947368421" type="line"/>
      <point x="550.7789473684211" y="276.3578947368421"/>
      <point x="477.34736842105264" y="146.0"/>
    </contour>
    <contour>
      <point x="438.0842105263158" y="747.4105263157895" type="curve" smooth="yes"/>
      <point x="651.7473684210527" y="747.4105263157895"/>
      <point x="803.3263157894737" y="885.4105263157895"/>
      <point x="803.3263157894737" y="1097.4947368421053" type="curve" smooth="yes"/>
      <point x="803.3263157894737" y="1299.6421052631579"/>
      <point x="651.7473684210527" y="1451.4315789473685"/>
      <point x="439.7263157894737" y="1451.4315789473685" type="curve" smooth="yes"/>
      <point x="226.06315789473683" y="1451.4315789473685"/>
      <point x="72.84210526315789" y="1299.6421052631579"/>
      <point x="72.84210526315789" y="1097.4947368421053" type="curve" smooth="yes"/>
      <point x="72.84210526315789" y="885.4105263157895"/>
      <point x="226.06315789473683" y="747.4105263157895"/>
    </contour>
    <contour>
      <point x="438.0842105263158" y="845.2" type="curve"/>
      <point x="279.7684210526316" y="845.2"/>
      <point x="180.65263157894736" y="938.4631578947368"/>
      <point x="180.65263157894736" y="1096.778947368421" type="curve" smooth="yes"/>
      <point x="180.65263157894736" y="1249.0947368421052"/>
      <point x="279.7684210526316" y="1353.2842105263157"/>
      <point x="439.7263157894737" y="1353.2842105263157" type="curve"/>
      <point x="599.6842105263158" y="1353.2842105263157"/>
      <point x="695.5157894736842" y="1248.378947368421"/>
      <point x="695.5157894736842" y="1096.778947368421" type="curve" smooth="yes"/>
      <point x="695.5157894736842" y="938.4631578947368"/>
      <point x="599.6842105263158" y="845.2"/>
    </contour>
    <contour>
      <point x="1287.178947368421" y="-20.50526315789474" type="curve" smooth="yes"/>
      <point x="1500.842105263158" y="-20.50526315789474"/>
      <point x="1652.421052631579" y="117.49473684210527"/>
      <point x="1652.421052631579" y="329.57894736842104" type="curve" smooth="yes"/>
      <point x="1652.421052631579" y="531.7263157894737"/>
      <point x="1500.842105263158" y="683.5157894736842"/>
      <point x="1288.821052631579" y="683.5157894736842" type="curve" smooth="yes"/>
      <point x="1075.157894736842" y="683.5157894736842"/>
      <point x="921.9368421052632" y="531.7263157894737"/>
      <point x="921.9368421052632" y="329.57894736842104" type="curve" smooth="yes"/>
      <point x="921.9368421052632" y="117.49473684210527"/>
      <point x="1075.157894736842" y="-20.50526315789474"/>
    </contour>
    <contour>
      <point x="1287.178947368421" y="77.28421052631579" type="curve"/>
      <point x="1128.8631578947368" y="77.28421052631579"/>
      <point x="1029.7473684210527" y="170.54736842105262"/>
      <point x="1029.7473684210527" y="328.86315789473684" type="curve" smooth="yes"/>
      <point x="1029.7473684210527" y="481.17894736842106"/>
      <point x="1128.8631578947368" y="585.3684210526316"/>
      <point x="1288.821052631579" y="585.3684210526316" type="curve"/>
      <point x="1448.778947368421" y="585.3684210526316"/>
      <point x="1544.6105263157895" y="480.46315789473687"/>
      <point x="1544.6105263157895" y="328.86315789473684" type="curve" smooth="yes"/>
      <point x="1544.6105263157895" y="170.54736842105262"/>
      <point x="1448.778947368421" y="77.28421052631579"/>
    </contour>
  </outline>
</glyph>
<glyph name="ampersand" format="2">
  <advance width="1451.2643678160919"/>
  <unicode hex="0026"/>
  <outline>
    <contour>
      <point x="1246.1379310344828" y="0.0" type="curve"/>
      <point x="1414.6436781609195" y="0.0" type="line"/>
      <point x="1300.3908045977012" y="114.94252873563218"/>
      <point x="1185.3563218390805" y="231.10344827586206"/>
      <point x="1069.103448275862" y="347.264367816092" type="curve"/>
      <point x="606.2988505747127" y="807.7931034482758" type="line" smooth="yes"/>
      <point x="481.58620689655174" y="930.8505747126437"/>
      <point x="426.18390804597703" y="1014.5977011494252"/>
      <point x="426.18390804597703" y="1122.9655172413793" type="curve" smooth="yes"/>
      <point x="426.18390804597703" y="1248.9885057471265"/>
      <point x="506.8045977011494" y="1345.0114942528735"/>
      <point x="636.1379310344828" y="1345.0114942528735" type="curve"/>
      <point x="753.2873563218391" y="1345.0114942528735"/>
      <point x="839.1264367816092" y="1263.6091954022988"/>
      <point x="839.1264367816092" y="1139.057471264368" type="curve" smooth="yes"/>
      <point x="839.1264367816092" y="980.4137931034483"/>
      <point x="716.1379310344828" y="903.8850574712644"/>
      <point x="562.735632183908" y="841.3563218390805" type="curve"/>
      <point x="624.9655172413793" y="757.8390804597701" type="line"/>
      <point x="778.6206896551724" y="821.0574712643678"/>
      <point x="962.0919540229885" y="920.2758620689655"/>
      <point x="962.0919540229885" y="1141.4022988505747" type="curve" smooth="yes"/>
      <point x="962.0919540229885" y="1336.0"/>
      <point x="813.6781609195402" y="1451.5632183908046"/>
      <point x="631.448275862069" y="1451.5632183908046" type="curve" smooth="yes"/>
      <point x="445.4712643678161" y="1451.5632183908046"/>
      <point x="295.4022988505747" y="1325.1264367816093"/>
      <point x="295.4022988505747" y="1122.183908045977" type="curve" smooth="yes"/>
      <point x="295.4022988505747" y="974.8735632183908"/>
      <point x="375.4942528735632" y="866.0919540229885"/>
      <point x="503.67816091954023" y="738.0" type="curve" smooth="yes"/>
      <point x="971.1724137931035" y="272.0" type="line"/>
      <point x="1062.8275862068965" y="182.0"/>
      <point x="1155.7011494252874" y="88.0"/>
    </contour>
    <contour>
      <point x="543.4022988505748" y="-19.563218390804597" type="curve" smooth="yes"/>
      <point x="746.7126436781609" y="-19.563218390804597"/>
      <point x="875.4942528735633" y="70.9655172413793"/>
      <point x="999.5862068965517" y="228.89655172413794" type="curve"/>
      <point x="1025.1494252873563" y="228.89655172413794" type="line"/>
      <point x="1018.3678160919541" y="258.367816091954" type="line"/>
      <point x="935.8850574712644" y="332.2298850574713" type="line"/>
      <point x="818.735632183908" y="166.45977011494253"/>
      <point x="707.4252873563219" y="94.80459770114942"/>
      <point x="555.9080459770115" y="94.80459770114942" type="curve"/>
      <point x="349.60919540229884" y="94.80459770114942"/>
      <point x="233.58620689655174" y="207.86206896551724"/>
      <point x="233.58620689655174" y="376.85057471264366" type="curve" smooth="yes"/>
      <point x="233.58620689655174" y="550.2758620689655"/>
      <point x="361.35632183908046" y="659.6781609195402"/>
      <point x="532.2528735632184" y="737.5172413793103" type="curve"/>
      <point x="474.11494252873564" y="826.2528735632184" type="line"/>
      <point x="296.98850574712645" y="746.2528735632184"/>
      <point x="105.93103448275862" y="610.6896551724138"/>
      <point x="105.93103448275862" y="366.6896551724138" type="curve" smooth="yes"/>
      <point x="105.93103448275862" y="155.2183908045977"/>
      <point x="251.49425287356323" y="-19.563218390804597"/>
    </contour>
    <contour>
      <point x="1084.9195402298851" y="317.88505747126436" type="line"/>
      <point x="1172.3908045977012" y="443.54022988505744"/>
      <point x="1255.8620689655172" y="563.9770114942529"/>
      <point x="1341.3333333333333" y="689.6321839080459" type="curve"/>
      <point x="1231.057471264368" y="756.7126436781609" type="line"/>
      <point x="1154.6206896551723" y="635.0574712643678"/>
      <point x="1081.4022988505747" y="519.8390804597701"/>
      <point x="1000.9655172413793" y="393.7471264367816" type="curve"/>
    </contour>
  </outline>
</glyph>
<glyph name="quotesingle" format="2">
  <advance width="390.69473684210527"/>
  <unicode hex="0027"/>
  <outline>
    <contour>
      <point x="122.12631578947368" y="893.7052631578947" type="curve"/>
      <point x="221.7263157894737" y="895.7052631578947" type="line"/>
      <point x="224.58947368421053" y="1094.9473684210527"/>
      <point x="237.30526315789473" y="1293.4736842105262"/>
      <point x="250.37894736842105" y="1488.3578947368421" type="curve"/>
      <point x="93.47368421052632" y="1484.9263157894736" type="line"/>
      <point x="106.54736842105262" y="1290.4"/>
      <point x="119.26315789473685" y="1093.8736842105263"/>
    </contour>
  </outline>
</glyph>
<glyph name="parenleft" format="2">
  <advance width="755.5578947368421"/>
  <unicode hex="0028"/>
  <outline>
    <contour>
      <point x="569.9368421052632" y="-235.81052631578947" type="curve"/>
      <point x="668.0842105263158" y="-188.98947368421054" type="line"/>
      <point x="453.2421052631579" y="-18.063157894736843"/>
      <point x="258.4" y="234.86315789473684"/>
      <point x="258.4" y="647.6421052631579" type="curve" smooth="yes"/>
      <point x="258.4" y="1062.0631578947368"/>
      <point x="453.2421052631579" y="1313.3473684210526"/>
      <point x="668.0842105263158" y="1484.2736842105264" type="curve"/>
      <point x="569.9368421052632" y="1531.0947368421052" type="line"/>
      <point x="314.12631578947367" y="1337.536842105263"/>
      <point x="125.6842105263158" y="1069.578947368421"/>
      <point x="125.6842105263158" y="647.6421052631579" type="curve" smooth="yes"/>
      <point x="125.6842105263158" y="227.70526315789473"/>
      <point x="314.12631578947367" y="-42.25263157894737"/>
    </contour>
  </outline>
</glyph>
<glyph name="asterisk" format="2">
  <advance width="935.6842105263158"/>
  <unicode hex="002A"/>
  <outline>
    <contour>
      <point x="827.0105263157894" y="755.1789473684211" type="curve"/>
      <point x="879.2631578947369" y="841.7473684210527" type="line"/>
      <point x="748.4" y="916.8842105263158"/>
      <point x="615.5368421052632" y="990.021052631579"/>
      <point x="486.3157894736842" y="1065.157894736842" type="curve"/>
      <point x="358.6736842105263" y="1149.3052631578948"/>
      <point x="234.67368421052632" y="1233.8105263157895"/>
      <point x="108.67368421052632" y="1317.957894736842" type="curve"/>
      <point x="56.421052631578945" y="1231.3894736842105" type="line"/>
      <point x="187.2842105263158" y="1156.2526315789473"/>
      <point x="320.14736842105265" y="1083.1157894736841"/>
      <point x="451.0105263157895" y="1006.3368421052631" type="curve"/>
      <point x="577.0105263157894" y="923.8315789473684"/>
      <point x="701.0105263157894" y="839.3263157894737"/>
    </contour>
    <contour>
      <point x="108.67368421052632" y="755.1789473684211" type="line"/>
      <point x="234.67368421052632" y="839.3263157894737"/>
      <point x="358.6736842105263" y="923.8315789473684"/>
      <point x="486.3157894736842" y="1007.978947368421" type="curve"/>
      <point x="615.5368421052632" y="1083.1157894736841"/>
      <point x="748.4" y="1156.2526315789473"/>
      <point x="879.2631578947369" y="1231.3894736842105" type="curve"/>
      <point x="827.0105263157894" y="1317.957894736842" type="line"/>
      <point x="701.0105263157894" y="1233.8105263157895"/>
      <point x="577.0105263157894" y="1149.3052631578948"/>
      <point x="451.0105263157895" y="1066.8" type="curve"/>
      <point x="320.14736842105265" y="990.021052631579"/>
      <point x="187.2842105263158" y="916.8842105263158"/>
      <point x="56.421052631578945" y="841.7473684210527" type="curve"/>
    </contour>
    <contour>
      <point x="417.05263157894734" y="583.3473684210526" type="curve"/>
      <point x="518.6315789473684" y="583.3473684210526" type="line"/>
      <point x="513.4105263157895" y="734.421052631579"/>
      <point x="506.90526315789475" y="885.4947368421052"/>
      <point x="501.6842105263158" y="1038.2105263157894" type="curve"/>
      <point x="506.90526315789475" y="1187.6421052631579"/>
      <point x="513.4105263157895" y="1338.7157894736843"/>
      <point x="518.6315789473684" y="1489.7894736842106" type="curve"/>
      <point x="417.05263157894734" y="1489.7894736842106" type="line"/>
      <point x="422.2736842105263" y="1338.7157894736843"/>
      <point x="428.77894736842103" y="1187.6421052631579"/>
      <point x="434.0" y="1038.2105263157894" type="curve"/>
      <point x="428.77894736842103" y="885.4947368421052"/>
      <point x="422.2736842105263" y="734.421052631579"/>
    </contour>
  </outline>
</glyph>
<glyph name="plus" format="2">
  <advance width="1170.7368421052631"/>
  <unicode hex="002B"/>
  <outline>
    <contour>
      <point x="525.6631578947369" y="122.48421052631579" type="curve"/>
      <point x="645.0736842105263" y="122.48421052631579" type="line"/>
      <point x="645.0736842105263" y="244.56842105263158"/>
      <point x="645.0736842105263" y="360.29473684210524"/>
      <point x="645.0736842105263" y="459.66315789473686" type="curve"/>
      <point x="645.0736842105263" y="730.3578947368421" type="line"/>
      <point x="645.0736842105263" y="829.7263157894737"/>
      <point x="645.0736842105263" y="945.4526315789474"/>
      <point x="645.0736842105263" y="1067.536842105263" type="curve"/>
      <point x="525.6631578947369" y="1067.536842105263" type="line"/>
      <point x="525.6631578947369" y="945.4526315789474"/>
      <point x="525.6631578947369" y="829.7263157894737"/>
      <point x="525.6631578947369" y="730.3578947368421" type="curve"/>
      <point x="525.6631578947369" y="459.66315789473686" type="line"/>
      <point x="525.6631578947369" y="360.29473684210524"/>
      <point x="525.6631578947369" y="244.56842105263158"/>
    </contour>
    <contour>
      <point x="129.26315789473685" y="536.378947368421" type="line"/>
      <point x="251.34736842105264" y="536.378947368421"/>
      <point x="367.0736842105263" y="536.378947368421"/>
      <point x="466.4421052631579" y="536.378947368421" type="curve"/>
      <point x="704.2947368421053" y="536.378947368421" type="line"/>
      <point x="803.6631578947369" y="536.378947368421"/>
      <point x="919.3894736842105" y="536.378947368421"/>
      <point x="1041.4736842105262" y="536.378947368421" type="curve"/>
      <point x="1041.4736842105262" y="653.6421052631579" type="line"/>
      <point x="919.3894736842105" y="653.6421052631579"/>
      <point x="803.6631578947369" y="653.6421052631579"/>
      <point x="704.2947368421053" y="653.6421052631579" type="curve"/>
      <point x="466.4421052631579" y="653.6421052631579" type="line"/>
      <point x="367.0736842105263" y="653.6421052631579"/>
      <point x="251.34736842105264" y="653.6421052631579"/>
      <point x="129.26315789473685" y="653.6421052631579" type="curve"/>
    </contour>
  </outline>
</glyph>
<glyph name="comma" format="2">
  <advance width="448.7578947368421"/>
  <unicode hex="002C"/>
  <outline>
    <contour>
      <point x="71.74736842105263" y="-314.0" type="curve"/>
      <point x="148.58947368421053" y="-311.6421052631579" type="line"/>
      <point x="249.74736842105264" y="-220.7157894736842"/>
      <point x="336.3578947368421" y="-54.21052631578947"/>
      <point x="336.3578947368421" y="103.38947368421053" type="curve" smooth="yes"/>
      <point x="336.3578947368421" y="167.49473684210525"/>
      <point x="308.8421052631579" y="214.73684210526315"/>
      <point x="245.8736842105263" y="219.9578947368421" type="curve"/>
      <point x="175.74736842105264" y="215.09473684210525" type="line"/>
      <point x="175.74736842105264" y="156.0"/>
      <point x="175.74736842105264" y="96.90526315789474"/>
      <point x="175.74736842105264" y="39.95789473684211" type="curve"/>
      <point x="175.74736842105264" y="-99.76842105263158"/>
      <point x="151.2421052631579" y="-202.92631578947368"/>
    </contour>
  </outline>
</glyph>
<glyph name="hyphen" format="2">
  <advance width="843.578947368421"/>
  <unicode hex="002D"/>
  <outline>
    <contour>
      <point x="129.26315789473685" y="534.5894736842105" type="line"/>
      <point x="235.55789473684212" y="534.5894736842105"/>
      <point x="335.85263157894735" y="534.5894736842105"/>
      <point x="421.7894736842105" y="534.5894736842105" type="curve"/>
      <point x="507.7263157894737" y="534.5894736842105"/>
      <point x="608.021052631579" y="534.5894736842105"/>
      <point x="714.3157894736842" y="534.5894736842105" type="curve"/>
      <point x="714.3157894736842" y="651.8526315789474" type="line"/>
      <point x="608.021052631579" y="651.8526315789474"/>
      <point x="507.7263157894737" y="651.8526315789474"/>
      <point x="421.7894736842105" y="651.8526315789474" type="curve"/>
      <point x="335.85263157894735" y="651.8526315789474"/>
      <point x="235.55789473684212" y="651.8526315789474"/>
      <point x="129.26315789473685" y="651.8526315789474" type="curve"/>
    </contour>
  </outline>
</glyph>
<glyph name="slash" format="2">
  <advance width="885.3052631578947"/>
  <unicode hex="002F"/>
  <outline>
    <contour>
      <point x="66.0421052631579" y="0.0" type="curve"/>
      <point x="196.10526315789474" y="0.0" type="line"/>
      <point x="261.2421052631579" y="148.0"/>
      <point x="315.09473684210525" y="274.0"/>
      <point x="395.5157894736842" y="456.0" type="curve"/>
      <point x="610.2105263157895" y="948.0" type="line"/>
      <point x="694.6315789473684" y="1142.0"/>
      <point x="752.1263157894737" y="1272.0"/>
      <point x="819.2631578947369" y="1426.0" type="curve"/>
      <point x="689.2" y="1426.0" type="line"/>
      <point x="622.0631578947368" y="1272.0"/>
      <point x="564.5684210526316" y="1141.6421052631579"/>
      <point x="482.14736842105265" y="952.0" type="curve"/>
      <point x="265.4526315789474" y="456.0" type="line"/>
      <point x="185.03157894736842" y="274.0"/>
      <point x="131.17894736842106" y="148.0"/>
    </contour>
  </outline>
</glyph>
<glyph name="zero" format="2">
  <advance width="1298.5263157894738"/>
  <unicode hex="0030"/>
  <outline>
    <contour>
      <point x="654.4421052631579" y="-20.147368421052633" type="curve" smooth="yes"/>
      <point x="993.0526315789474" y="-20.147368421052633"/>
      <point x="1181.0526315789473" y="253.78947368421052"/>
      <point x="1181.0526315789473" y="688.3578947368421" type="curve" smooth="yes"/>
      <point x="1181.0526315789473" y="1110.9263157894736"/>
      <point x="1001.4105263157895" y="1395.578947368421"/>
      <point x="649.3684210526316" y="1395.578947368421" type="curve" smooth="yes"/>
      <point x="302.61052631578946" y="1395.578947368421"/>
      <point x="117.47368421052632" y="1114.2105263157894"/>
      <point x="117.47368421052632" y="688.0" type="curve" smooth="yes"/>
      <point x="117.47368421052632" y="277.93684210526317"/>
      <point x="286.0421052631579" y="-20.147368421052633"/>
    </contour>
    <contour>
      <point x="650.4421052631579" y="99.32631578947368" type="curve"/>
      <point x="367.66315789473686" y="99.32631578947368"/>
      <point x="254.8421052631579" y="346.42105263157896"/>
      <point x="254.8421052631579" y="688.3578947368421" type="curve" smooth="yes"/>
      <point x="254.8421052631579" y="1028.4421052631578"/>
      <point x="373.66315789473686" y="1275.7473684210527"/>
      <point x="650.4421052631579" y="1275.7473684210527" type="curve"/>
      <point x="919.9368421052632" y="1275.7473684210527"/>
      <point x="1044.042105263158" y="1046.1473684210525"/>
      <point x="1044.042105263158" y="688.3578947368421" type="curve" smooth="yes"/>
      <point x="1044.042105263158" y="351.34736842105264"/>
      <point x="932.5052631578948" y="99.32631578947368"/>
    </contour>
  </outline>
</glyph>
<glyph name="one" format="2">
  <advance width="841.7684210526315"/>
  <unicode hex="0031"/>
  <outline>
    <contour>
      <point x="102.65263157894736" y="1001.6842105263158" type="line"/>
      <point x="251.1578947368421" y="1083.178947368421"/>
      <point x="397.66315789473686" y="1166.3157894736842"/>
      <point x="546.1684210526316" y="1247.8105263157895" type="curve"/>
      <point x="549.3894736842105" y="1375.578947368421" type="line"/>
      <point x="388.8" y="1287.578947368421"/>
      <point x="229.85263157894738" y="1201.221052631579"/>
      <point x="69.26315789473685" y="1113.221052631579" type="curve"/>
    </contour>
    <contour>
      <point x="483.4526315789474" y="0.0" type="curve"/>
      <point x="615.0315789473684" y="0.0" type="line"/>
      <point x="615.0315789473684" y="147.85263157894738"/>
      <point x="615.0315789473684" y="276.06315789473683"/>
      <point x="615.0315789473684" y="439.13684210526316" type="curve"/>
      <point x="615.0315789473684" y="894.7157894736843" type="line"/>
      <point x="615.0315789473684" y="1062.5684210526315"/>
      <point x="615.0315789473684" y="1222.2105263157894"/>
      <point x="615.0315789473684" y="1370.1473684210525" type="curve"/>
      <point x="549.3894736842105" y="1375.578947368421" type="line"/>
      <point x="483.4526315789474" y="1310.5894736842106" type="line"/>
      <point x="483.4526315789474" y="1165.4526315789474"/>
      <point x="483.4526315789474" y="1020.6736842105263"/>
      <point x="483.4526315789474" y="877.1789473684211" type="curve"/>
      <point x="483.4526315789474" y="439.13684210526316" type="line"/>
      <point x="483.4526315789474" y="276.06315789473683"/>
      <point x="483.4526315789474" y="147.85263157894738"/>
    </contour>
  </outline>
</glyph>
<glyph name="two" format="2">
  <advance width="1101.0315789473684"/>
  <unicode hex="0032"/>
  <outline>
    <contour>
      <point x="100.27368421052631" y="0.0" type="line"/>
      <point x="989.978947368421" y="0.0" type="line"/>
      <point x="989.978947368421" y="118.69473684210527" type="line"/>
      <point x="834.2105263157895" y="118.69473684210527"/>
      <point x="676.8" y="118.69473684210527"/>
      <point x="521.0315789473684" y="118.69473684210527" type="curve"/>
      <point x="234.42105263157896" y="118.69473684210527" type="line"/>
      <point x="256.86315789473684" y="90.16842105263157" type="line"/>
      <point x="485.9789473684211" y="288.63157894736844" type="line"/>
      <point x="795.3052631578947" y="556.8"/>
      <point x="960.9894736842106" y="778.0"/>
      <point x="960.9894736842106" y="1008.8421052631579" type="curve" smooth="yes"/>
      <point x="960.9894736842106" y="1246.7157894736843"/>
      <point x="808.9052631578948" y="1395.578947368421"/>
      <point x="540.2315789473685" y="1395.578947368421" type="curve" smooth="yes"/>
      <point x="380.3578947368421" y="1395.578947368421"/>
      <point x="211.70526315789473" y="1340.6526315789474"/>
      <point x="93.91578947368421" y="1272.5894736842106" type="curve"/>
      <point x="110.21052631578948" y="1139.8105263157895" type="line"/>
      <point x="247.55789473684212" y="1229.3052631578948"/>
      <point x="393.41052631578947" y="1275.0315789473684"/>
      <point x="522.3368421052631" y="1275.0315789473684" type="curve"/>
      <point x="724.7157894736843" y="1275.0315789473684"/>
      <point x="825.2631578947369" y="1180.842105263158"/>
      <point x="825.2631578947369" y="995.7473684210527" type="curve" smooth="yes"/>
      <point x="825.2631578947369" y="782.7789473684211"/>
      <point x="649.8526315789474" y="579.8105263157895"/>
      <point x="352.6736842105263" y="319.70526315789476" type="curve"/>
      <point x="268.9684210526316" y="246.3578947368421"/>
      <point x="183.97894736842105" y="171.7263157894737"/>
      <point x="100.27368421052631" y="98.37894736842105" type="curve"/>
    </contour>
  </outline>
</glyph>
<glyph name="four" format="2">
  <advance width="1192.0689655172414"/>
  <unicode hex="0034"/>
  <outline>
    <contour>
      <point x="736.6436781609195" y="0.0" type="curve"/>
      <point x="867.7701149425287" y="0.0" type="line"/>
      <point x="867.7701149425287" y="125.1264367816092"/>
      <point x="867.7701149425287" y="223.816091954023"/>
      <point x="867.7701149425287" y="374.9425287356322" type="curve"/>
      <point x="867.7701149425287" y="888.3448275862069" type="line"/>
      <point x="867.7701149425287" y="1046.344827586207"/>
      <point x="867.7701149425287" y="1204.344827586207"/>
      <point x="867.7701149425287" y="1370.344827586207" type="curve"/>
      <point x="736.2068965517242" y="1370.344827586207" type="line"/>
      <point x="671.7701149425287" y="1278.6896551724137"/>
      <point x="606.1149425287356" y="1185.816091954023"/>
      <point x="541.6781609195402" y="1094.942528735632" type="curve"/>
      <point x="363.14942528735634" y="841.9770114942529" type="line"/>
      <point x="271.4942528735632" y="713.1034482758621"/>
      <point x="149.4022988505747" y="539.3563218390805"/>
      <point x="63.747126436781606" y="417.264367816092" type="curve"/>
      <point x="63.747126436781606" y="323.9310344827586" type="line"/>
      <point x="799.4022988505748" y="323.9310344827586" type="line"/>
      <point x="900.4367816091954" y="323.9310344827586"/>
      <point x="1047.816091954023" y="323.9310344827586"/>
      <point x="1140.0689655172414" y="323.9310344827586" type="curve"/>
      <point x="1140.0689655172414" y="442.55172413793105" type="line"/>
      <point x="1047.816091954023" y="442.55172413793105"/>
      <point x="900.4367816091954" y="442.55172413793105"/>
      <point x="799.4022988505748" y="442.55172413793105" type="curve"/>
      <point x="771.8390804597701" y="442.55172413793105" type="line"/>
      <point x="173.67816091954023" y="442.55172413793105" type="line"/>
      <point x="179.24137931034483" y="392.6666666666667" type="line"/>
      <point x="244.89655172413794" y="484.7586206896552"/>
      <point x="307.7701149425287" y="575.6321839080459"/>
      <point x="373.42528735632186" y="667.7241379310345" type="curve"/>
      <point x="618.0459770114943" y="1014.4367816091954" type="line"/>
      <point x="692.9195402298851" y="1120.528735632184"/>
      <point x="765.7931034482758" y="1225.057471264368"/>
      <point x="843.448275862069" y="1334.712643678161" type="curve"/>
      <point x="739.7701149425287" y="1300.551724137931" type="line"/>
      <point x="739.7701149425287" y="1156.896551724138"/>
      <point x="739.7701149425287" y="1014.0229885057471"/>
      <point x="739.7701149425287" y="870.3678160919541" type="curve"/>
      <point x="739.7701149425287" y="403.1954022988506" type="line"/>
      <point x="736.6436781609195" y="374.9425287356322" type="line"/>
      <point x="736.6436781609195" y="223.816091954023"/>
      <point x="736.6436781609195" y="125.1264367816092"/>
    </contour>
  </outline>
</glyph>
<glyph name="five" format="2">
  <advance width="1144.5977011494253"/>
  <unicode hex="0035"/>
  <outline>
    <contour>
      <point x="546.3448275862069" y="-20.344827586206897" type="curve" smooth="yes"/>
      <point x="864.3218390804598" y="-20.344827586206897"/>
      <point x="1036.3218390804598" y="165.1264367816092"/>
      <point x="1036.3218390804598" y="442.5977011494253" type="curve" smooth="yes"/>
      <point x="1036.3218390804598" y="737.816091954023"/>
      <point x="838.5747126436781" y="877.7241379310345"/>
      <point x="600.4827586206897" y="877.7241379310345" type="curve" smooth="yes"/>
      <point x="495.3333333333333" y="877.7241379310345"/>
      <point x="400.71264367816093" y="849.9770114942529"/>
      <point x="322.62068965517244" y="805.448275862069" type="curve"/>
      <point x="307.4942528735632" y="805.448275862069" type="line"/>
      <point x="307.4942528735632" y="904.1609195402299" type="line"/>
      <point x="308.2758620689655" y="1034.528735632184"/>
      <point x="309.0574712643678" y="1166.896551724138"/>
      <point x="309.0574712643678" y="1299.2643678160919" type="curve"/>
      <point x="260.39080459770116" y="1251.7241379310344" type="line"/>
      <point x="465.264367816092" y="1251.7241379310344" type="line"/>
      <point x="625.7011494252873" y="1251.7241379310344"/>
      <point x="790.1379310344828" y="1251.7241379310344"/>
      <point x="951.7931034482758" y="1251.7241379310344" type="curve"/>
      <point x="951.7931034482758" y="1370.344827586207" type="line"/>
      <point x="180.27586206896552" y="1370.344827586207" type="line"/>
      <point x="180.27586206896552" y="1220.0919540229886"/>
      <point x="180.27586206896552" y="1053.83908045977"/>
      <point x="180.27586206896552" y="876.8045977011494" type="curve"/>
      <point x="180.27586206896552" y="666.9885057471264" type="line"/>
      <point x="241.19540229885058" y="661.4252873563219" type="line"/>
      <point x="353.9080459770115" y="739.7011494252873"/>
      <point x="446.4367816091954" y="761.3563218390805"/>
      <point x="556.7126436781609" y="761.3563218390805" type="curve"/>
      <point x="746.735632183908" y="761.3563218390805"/>
      <point x="900.8505747126437" y="674.735632183908"/>
      <point x="900.8505747126437" y="438.6896551724138" type="curve" smooth="yes"/>
      <point x="900.8505747126437" y="225.17241379310346"/>
      <point x="780.8275862068965" y="99.93103448275863"/>
      <point x="537.7471264367816" y="99.93103448275863" type="curve"/>
      <point x="405.3103448275862" y="99.93103448275863"/>
      <point x="253.31034482758622" y="139.83908045977012"/>
      <point x="108.0919540229885" y="221.49425287356323" type="curve"/>
      <point x="92.9655172413793" y="93.74712643678161" type="line"/>
      <point x="210.6206896551724" y="28.873563218390803"/>
      <point x="380.9655172413793" y="-20.344827586206897"/>
    </contour>
  </outline>
</glyph>
<glyph name="six" format="2">
  <advance width="1208.16091954023"/>
  <unicode hex="0036"/>
  <outline>
    <contour>
      <point x="631.0344827586207" y="-20.344827586206897" type="curve" smooth="yes"/>
      <point x="941.8850574712644" y="-20.344827586206897"/>
      <point x="1099.8850574712644" y="207.90804597701148"/>
      <point x="1099.8850574712644" y="452.1609195402299" type="curve" smooth="yes"/>
      <point x="1099.8850574712644" y="703.6321839080459"/>
      <point x="934.3218390804598" y="881.7241379310345"/>
      <point x="664.9195402298851" y="881.7241379310345" type="curve" smooth="yes"/>
      <point x="511.95402298850576" y="881.7241379310345"/>
      <point x="379.3333333333333" y="824.8505747126437"/>
      <point x="267.4022988505747" y="717.0114942528736" type="curve"/>
      <point x="240.27586206896552" y="719.0114942528736" type="line"/>
      <point x="218.29885057471265" y="667.5632183908046"/>
      <point x="217.51724137931035" y="633.1264367816092"/>
      <point x="241.05747126436782" y="577.0574712643678" type="curve"/>
      <point x="378.735632183908" y="725.1724137931035"/>
      <point x="512.7586206896551" y="766.1379310344828"/>
      <point x="636.7816091954023" y="766.1379310344828" type="curve"/>
      <point x="867.6091954022988" y="766.1379310344828"/>
      <point x="967.5402298850574" y="623.2413793103449"/>
      <point x="967.5402298850574" y="446.6896551724138" type="curve" smooth="yes"/>
      <point x="967.5402298850574" y="269.35632183908046"/>
      <point x="865.6091954022988" y="99.93103448275863"/>
      <point x="627.1264367816092" y="99.93103448275863" type="curve"/>
      <point x="380.64367816091954" y="99.93103448275863"/>
      <point x="248.27586206896552" y="286.48275862068965"/>
      <point x="248.27586206896552" y="649.0344827586207" type="curve" smooth="yes"/>
      <point x="248.27586206896552" y="1055.4252873563219"/>
      <point x="372.2988505747127" y="1274.8505747126437"/>
      <point x="654.4137931034483" y="1274.8505747126437" type="curve"/>
      <point x="770.0689655172414" y="1274.8505747126437"/>
      <point x="895.6321839080459" y="1239.632183908046"/>
      <point x="1002.4137931034483" y="1166.7586206896551" type="curve"/>
      <point x="1020.3218390804598" y="1294.942528735632" type="line"/>
      <point x="920.0689655172414" y="1354.2528735632184"/>
      <point x="786.8505747126437" y="1395.9080459770114"/>
      <point x="648.1609195402299" y="1395.9080459770114" type="curve" smooth="yes"/>
      <point x="304.5977011494253" y="1395.9080459770114"/>
      <point x="117.49425287356321" y="1129.8850574712644"/>
      <point x="117.49425287356321" y="652.5977011494252" type="curve" smooth="yes"/>
      <point x="117.49425287356321" y="216.4367816091954"/>
      <point x="301.8390804597701" y="-20.344827586206897"/>
    </contour>
  </outline>
</glyph>
<glyph name="seven" format="2">
  <advance width="1044.1894736842105"/>
  <unicode hex="0037"/>
  <outline>
    <contour>
      <point x="229.9578947368421" y="0.0" type="curve"/>
      <point x="377.2631578947368" y="0.0" type="line"/>
      <point x="453.6842105263158" y="166.6315789473684"/>
      <point x="529.7473684210527" y="333.8315789473684"/>
      <point x="604.5263157894736" y="497.17894736842106" type="curve"/>
      <point x="734.4421052631579" y="780.2315789473685" type="line"/>
      <point x="812.5052631578948" y="951.7894736842105"/>
      <point x="884.9263157894737" y="1110.0631578947368"/>
      <point x="961.3473684210526" y="1276.6947368421052" type="curve"/>
      <point x="961.3473684210526" y="1370.1473684210525" type="line"/>
      <point x="50.0" y="1370.1473684210525" type="line"/>
      <point x="50.0" y="1251.4526315789474" type="line"/>
      <point x="221.2" y="1251.4526315789474"/>
      <point x="392.0421052631579" y="1251.4526315789474"/>
      <point x="561.2421052631579" y="1251.4526315789474" type="curve"/>
      <point x="847.7894736842105" y="1251.4526315789474" type="line"/>
      <point x="821.8315789473684" y="1283.2631578947369" type="line"/>
      <point x="773.978947368421" y="1179.2"/>
      <point x="726.1263157894737" y="1076.421052631579"/>
      <point x="678.2736842105263" y="972.3578947368421" type="curve"/>
      <point x="482.86315789473684" y="549.0315789473684" type="line"/>
      <point x="400.4421052631579" y="369.11578947368423"/>
      <point x="314.37894736842105" y="183.55789473684212"/>
    </contour>
  </outline>
</glyph>
<glyph name="eight" format="2">
  <advance width="1207.7241379310344"/>
  <unicode hex="0038"/>
  <outline>
    <contour>
      <point x="604.2528735632184" y="-20.344827586206897" type="curve" smooth="yes"/>
      <point x="939.5402298850574" y="-20.344827586206897"/>
      <point x="1099.448275862069" y="158.09195402298852"/>
      <point x="1099.448275862069" y="383.5632183908046" type="curve" smooth="yes"/>
      <point x="1099.448275862069" y="609.6551724137931"/>
      <point x="933.264367816092" y="714.0919540229885"/>
      <point x="813.3563218390805" y="739.6551724137931" type="curve"/>
      <point x="813.3563218390805" y="754.7816091954023" type="line"/>
      <point x="934.4827586206897" y="788.0"/>
      <point x="1051.3563218390805" y="894.8735632183908"/>
      <point x="1051.3563218390805" y="1058.0919540229886" type="curve" smooth="yes"/>
      <point x="1051.3563218390805" y="1260.7816091954023"/>
      <point x="875.448275862069" y="1395.9080459770114"/>
      <point x="604.2528735632184" y="1395.9080459770114" type="curve" smooth="yes"/>
      <point x="332.2758620689655" y="1395.9080459770114"/>
      <point x="156.367816091954" y="1260.7816091954023"/>
      <point x="156.367816091954" y="1058.0919540229886" type="curve" smooth="yes"/>
      <point x="156.367816091954" y="894.8735632183908"/>
      <point x="273.2413793103448" y="788.0"/>
      <point x="393.14942528735634" y="754.7816091954023" type="curve"/>
      <point x="393.14942528735634" y="739.6551724137931" type="line"/>
      <point x="274.45977011494256" y="714.0919540229885"/>
      <point x="108.27586206896552" y="610.4367816091954"/>
      <point x="108.27586206896552" y="383.5632183908046" type="curve" smooth="yes"/>
      <point x="108.27586206896552" y="158.09195402298852"/>
      <point x="268.18390804597703" y="-20.344827586206897"/>
    </contour>
    <contour>
      <point x="604.2528735632184" y="100.71264367816093" type="curve"/>
      <point x="347.7701149425287" y="100.71264367816093"/>
      <point x="240.6206896551724" y="225.95402298850576"/>
      <point x="240.6206896551724" y="392.9425287356322" type="curve" smooth="yes"/>
      <point x="240.6206896551724" y="589.6781609195402"/>
      <point x="399.60919540229884" y="683.9540229885057"/>
      <point x="603.471264367816" y="683.9540229885057" type="curve"/>
      <point x="808.1149425287356" y="683.9540229885057"/>
      <point x="967.1034482758621" y="589.6781609195402"/>
      <point x="967.1034482758621" y="392.9425287356322" type="curve" smooth="yes"/>
      <point x="967.1034482758621" y="225.95402298850576"/>
      <point x="859.9540229885057" y="100.71264367816093"/>
    </contour>
    <contour>
      <point x="604.2528735632184" y="793.9770114942529" type="curve"/>
      <point x="400.735632183908" y="793.9770114942529"/>
      <point x="287.14942528735634" y="898.3448275862069"/>
      <point x="287.14942528735634" y="1045.2413793103449" type="curve" smooth="yes"/>
      <point x="287.14942528735634" y="1194.9195402298851"/>
      <point x="411.17241379310343" y="1277.1954022988505"/>
      <point x="604.2528735632184" y="1277.1954022988505" type="curve"/>
      <point x="795.3333333333334" y="1277.1954022988505"/>
      <point x="921.3563218390805" y="1194.9195402298851"/>
      <point x="921.3563218390805" y="1045.2413793103449" type="curve" smooth="yes"/>
      <point x="921.3563218390805" y="898.3448275862069"/>
      <point x="805.7701149425287" y="793.9770114942529"/>
    </contour>
  </outline>
</glyph>
<glyph name="less" format="2">
  <advance width="1130.7368421052631"/>
  <unicode hex="003C"/>
  <outline>
    <contour>
      <point x="1001.4736842105264" y="156.31578947368422" type="curve"/>
      <point x="1001.4736842105264" y="282.0842105263158" type="line"/>
      <point x="853.2842105263157" y="346.5684210526316"/>
      <point x="696.8842105263158" y="414.33684210526314"/>
      <point x="545.4105263157895" y="480.46315789473687" type="curve"/>
      <point x="303.8105263157895" y="585.578947368421" type="line"/>
      <point x="303.8105263157895" y="601.1578947368421" type="line"/>
      <point x="545.4105263157895" y="706.2736842105263" type="line"/>
      <point x="696.8842105263158" y="772.4"/>
      <point x="853.2842105263157" y="840.1684210526316"/>
      <point x="1001.4736842105264" y="904.6526315789474" type="curve"/>
      <point x="1001.4736842105264" y="1030.421052631579" type="line"/>
      <point x="881.0315789473684" y="978.421052631579"/>
      <point x="763.6631578947369" y="928.0631578947368"/>
      <point x="662.6526315789474" y="884.0631578947368" type="curve"/>
      <point x="464.8" y="798.3578947368421" type="line"/>
      <point x="367.0736842105263" y="756.0"/>
      <point x="249.70526315789473" y="705.6421052631579"/>
      <point x="129.26315789473685" y="653.6421052631579" type="curve"/>
      <point x="129.26315789473685" y="533.0947368421052" type="line"/>
      <point x="249.70526315789473" y="481.09473684210525"/>
      <point x="367.0736842105263" y="430.7368421052632"/>
      <point x="464.8" y="388.37894736842105" type="curve"/>
      <point x="662.6526315789474" y="302.6736842105263" type="line"/>
      <point x="763.6631578947369" y="258.6736842105263"/>
      <point x="881.0315789473684" y="208.31578947368422"/>
    </contour>
  </outline>
</glyph>
<glyph name="equal" format="2">
  <advance width="1130.7368421052631"/>
  <unicode hex="003D"/>
  <outline>
    <contour>
      <point x="132.8421052631579" y="317.4315789473684" type="line"/>
      <point x="254.92631578947368" y="317.4315789473684"/>
      <point x="370.65263157894736" y="317.4315789473684"/>
      <point x="470.0210526315789" y="317.4315789473684" type="curve"/>
      <point x="660.7157894736843" y="317.4315789473684" type="line"/>
      <point x="760.0842105263158" y="317.4315789473684"/>
      <point x="875.8105263157895" y="317.4315789473684"/>
      <point x="997.8947368421053" y="317.4315789473684" type="curve"/>
      <point x="997.8947368421053" y="434.69473684210527" type="line"/>
      <point x="875.8105263157895" y="434.69473684210527"/>
      <point x="760.0842105263158" y="434.69473684210527"/>
      <point x="660.7157894736843" y="434.69473684210527" type="curve"/>
      <point x="470.0210526315789" y="434.69473684210527" type="line"/>
      <point x="370.65263157894736" y="434.69473684210527"/>
      <point x="254.92631578947368" y="434.69473684210527"/>
      <point x="132.8421052631579" y="434.69473684210527" type="curve"/>
    </contour>
    <contour>
      <point x="132.8421052631579" y="755.3263157894737" type="line"/>
      <point x="254.92631578947368" y="755.3263157894737"/>
      <point x="370.65263157894736" y="755.3263157894737"/>
      <point x="470.0210526315789" y="755.3263157894737" type="curve"/>
      <point x="660.7157894736843" y="755.3263157894737" type="line"/>
      <point x="760.0842105263158" y="755.3263157894737"/>
      <point x="875.8105263157895" y="755.3263157894737"/>
      <point x="997.8947368421053" y="755.3263157894737" type="curve"/>
      <point x="997.8947368421053" y="872.5894736842105" type="line"/>
      <point x="875.8105263157895" y="872.5894736842105"/>
      <point x="760.0842105263158" y="872.5894736842105"/>
      <point x="660.7157894736843" y="872.5894736842105" type="curve"/>
      <point x="470.0210526315789" y="872.5894736842105" type="line"/>
      <point x="370.65263157894736" y="872.5894736842105"/>
      <point x="254.92631578947368" y="872.5894736842105"/>
      <point x="132.8421052631579" y="872.5894736842105" type="curve"/>
    </contour>
  </outline>
</glyph>
<glyph name="greater" format="2">
  <advance width="1130.7368421052631"/>
  <unicode hex="003E"/>
  <outline>
    <contour>
      <point x="129.26315789473685" y="156.31578947368422" type="line"/>
      <point x="249.70526315789473" y="208.31578947368422"/>
      <point x="367.0736842105263" y="258.6736842105263"/>
      <point x="468.0842105263158" y="302.6736842105263" type="curve"/>
      <point x="665.9368421052632" y="388.37894736842105" type="line"/>
      <point x="763.6631578947369" y="430.7368421052632"/>
      <point x="881.0315789473684" y="481.09473684210525"/>
      <point x="1001.4736842105264" y="533.0947368421052" type="curve"/>
      <point x="1001.4736842105264" y="653.6421052631579" type="line"/>
      <point x="881.0315789473684" y="705.6421052631579"/>
      <point x="763.6631578947369" y="756.0"/>
      <point x="665.9368421052632" y="798.3578947368421" type="curve"/>
      <point x="468.0842105263158" y="884.0631578947368" type="line"/>
      <point x="367.0736842105263" y="928.0631578947368"/>
      <point x="249.70526315789473" y="978.421052631579"/>
      <point x="129.26315789473685" y="1030.421052631579" type="curve"/>
      <point x="129.26315789473685" y="904.6526315789474" type="line"/>
      <point x="277.4526315789474" y="840.1684210526316"/>
      <point x="433.85263157894735" y="772.4"/>
      <point x="585.3263157894737" y="706.2736842105263" type="curve"/>
      <point x="826.9263157894737" y="601.1578947368421" type="line"/>
      <point x="826.9263157894737" y="585.578947368421" type="line"/>
      <point x="585.3263157894737" y="480.46315789473687" type="line"/>
      <point x="433.85263157894735" y="414.33684210526314"/>
      <point x="277.4526315789474" y="346.5684210526316"/>
      <point x="129.26315789473685" y="282.0842105263158" type="curve"/>
    </contour>
  </outline>
</glyph>
<glyph name="at" format="2">
  <advance width="1759.6631578947367"/>
  <unicode hex="0040"/>
  <outline>
    <contour>
      <point x="943.578947368421" y="-256.5263157894737" type="curve" smooth="yes"/>
      <point x="1135.5157894736842" y="-256.5263157894737"/>
      <point x="1347.7894736842106" y="-210.8842105263158"/>
      <point x="1508.2947368421053" y="-104.3157894736842" type="curve"/>
      <point x="1508.2947368421053" y="5.1157894736842096" type="line"/>
      <point x="1304.9263157894736" y="-130.31578947368422"/>
      <point x="1102.7157894736843" y="-162.67368421052632"/>
      <point x="943.578947368421" y="-162.67368421052632" type="curve"/>
      <point x="382.82105263157894" y="-162.67368421052632"/>
      <point x="131.4736842105263" y="238.0"/>
      <point x="222.90526315789475" y="667.7894736842105" type="curve" smooth="yes"/>
      <point x="306.61052631578946" y="1060.8842105263159"/>
      <point x="582.3578947368421" y="1246.5473684210526"/>
      <point x="933.578947368421" y="1246.5473684210526" type="curve"/>
      <point x="1371.0526315789473" y="1246.5473684210526"/>
      <point x="1621.6842105263158" y="916.7368421052631"/>
      <point x="1540.4" y="509.9578947368421" type="curve" smooth="yes"/>
      <point x="1506.1894736842105" y="338.5473684210526"/>
      <point x="1399.8526315789475" y="220.3578947368421"/>
      <point x="1280.2315789473685" y="220.3578947368421" type="curve"/>
      <point x="1181.6842105263158" y="220.3578947368421"/>
      <point x="1132.757894736842" y="279.4947368421053"/>
      <point x="1159.1157894736841" y="411.13684210526316" type="curve"/>
      <point x="1199.536842105263" y="605.6" type="line"/>
      <point x="1224.821052631579" y="725.6631578947369"/>
      <point x="1250.821052631579" y="849.8736842105263"/>
      <point x="1274.1052631578948" y="960.2947368421053" type="curve"/>
      <point x="1170.4421052631578" y="952.5052631578948" type="line"/>
      <point x="1146.2947368421053" y="850.8631578947368" type="line"/>
      <point x="1133.4315789473685" y="850.8631578947368" type="line"/>
      <point x="1076.4421052631578" y="917.1578947368421"/>
      <point x="985.0947368421052" y="971.9368421052632"/>
      <point x="869.1789473684211" y="971.9368421052632" type="curve" smooth="yes"/>
      <point x="681.8947368421053" y="971.9368421052632"/>
      <point x="538.5473684210526" y="827.8526315789474"/>
      <point x="492.33684210526314" y="605.0105263157894" type="curve" smooth="yes"/>
      <point x="441.9789473684211" y="364.3578947368421"/>
      <point x="538.2736842105263" y="143.85263157894738"/>
      <point x="775.2631578947369" y="143.85263157894738" type="curve" smooth="yes"/>
      <point x="861.8315789473684" y="143.85263157894738"/>
      <point x="972.1052631578947" y="185.70526315789473"/>
      <point x="1040.8842105263159" y="276.5684210526316" type="curve"/>
      <point x="1053.3894736842105" y="276.5684210526316" type="line"/>
      <point x="1072.1894736842105" y="202.98947368421054"/>
      <point x="1137.7894736842106" y="124.56842105263158"/>
      <point x="1290.6526315789474" y="124.56842105263158" type="curve" smooth="yes"/>
      <point x="1406.1684210526316" y="124.56842105263158"/>
      <point x="1586.042105263158" y="230.06315789473683"/>
      <point x="1636.1894736842105" y="490.8" type="curve" smooth="yes"/>
      <point x="1725.9789473684211" y="954.4631578947368"/>
      <point x="1423.7473684210527" y="1340.4"/>
      <point x="935.9368421052632" y="1340.4" type="curve" smooth="yes"/>
      <point x="553.0736842105263" y="1340.4"/>
      <point x="219.05263157894737" y="1136.2526315789473"/>
      <point x="126.54736842105262" y="684.7368421052631" type="curve" smooth="yes"/>
      <point x="27.53684210526316" y="205.41052631578947"/>
      <point x="322.4842105263158" y="-256.5263157894737"/>
    </contour>
    <contour>
      <point x="801.5157894736842" y="247.1578947368421" type="curve"/>
      <point x="628.7157894736843" y="247.1578947368421"/>
      <point x="563.4526315789474" y="399.62105263157895"/>
      <point x="603.3684210526316" y="588.6315789473684" type="curve" smooth="yes"/>
      <point x="637.0736842105263" y="746.9473684210526"/>
      <point x="730.9052631578948" y="865.9157894736842"/>
      <point x="889.2842105263157" y="865.9157894736842" type="curve"/>
      <point x="991.3894736842105" y="865.9157894736842"/>
      <point x="1062.2947368421053" y="821.0736842105263"/>
      <point x="1117.9157894736843" y="756.1684210526316" type="curve"/>
      <point x="1043.7894736842106" y="404.10526315789474" type="line"/>
      <point x="980.8842105263158" y="294.7157894736842"/>
      <point x="889.9157894736842" y="247.1578947368421"/>
    </contour>
  </outline>
</glyph>
<glyph name="A" format="2">
  <advance width="1364.9894736842105"/>
  <unicode hex="0041"/>
  <anchor x="682.6736842105263" y="0.0" name="bottom"/>
  <anchor x="1302.2947368421053" y="0.0" name="ogonek"/>
  <anchor x="682.6736842105263" y="1426.0" name="top"/>
  <outline>
    <contour>
      <point x="63.410526315789475" y="0.0" type="curve"/>
      <point x="206.92631578947368" y="0.0" type="line"/>
      <point x="269.41052631578947" y="171.41052631578947"/>
      <point x="337.5368421052632" y="357.89473684210526"/>
      <point x="398.37894736842105" y="526.021052631579" type="curve"/>
      <point x="677.4526315789474" y="1294.2315789473685" type="line"/>
      <point x="693.0315789473684" y="1294.2315789473685" type="line"/>
      <point x="970.1052631578947" y="519.6631578947369" type="line"/>
      <point x="1027.3052631578948" y="359.17894736842106"/>
      <point x="1095.0736842105264" y="170.4842105263158"/>
      <point x="1155.9157894736843" y="0.0" type="curve"/>
      <point x="1302.2947368421053" y="0.0" type="line"/>
      <point x="1246.8" y="152.0"/>
      <point x="1183.6631578947367" y="324.0"/>
      <point x="1126.1684210526316" y="482.0" type="curve"/>
      <point x="946.4" y="973.6421052631579" type="line"/>
      <point x="881.621052631579" y="1148.9263157894736"/>
      <point x="833.7684210526315" y="1280.5684210526315"/>
      <point x="779.9157894736842" y="1426.0" type="curve"/>
      <point x="592.3578947368421" y="1426.0" type="line"/>
      <point x="538.8631578947368" y="1282.0"/>
      <point x="489.36842105263156" y="1150.0"/>
      <point x="424.2315789473684" y="973.6421052631579" type="curve"/>
      <point x="242.82105263157894" y="483.6421052631579" type="line"/>
      <point x="185.68421052631578" y="330.0"/>
      <point x="120.54736842105262" y="153.6421052631579"/>
    </contour>
    <contour>
      <point x="306.2105263157895" y="374.86315789473684" type="line"/>
      <point x="1070.4421052631578" y="374.86315789473684" type="line"/>
      <point x="1062.2105263157894" y="488.5473684210526" type="line"/>
      <point x="316.2315789473684" y="488.5473684210526" type="line"/>
    </contour>
  </outline>
</glyph>
<glyph name="B" format="2">
  <advance width="1282.8045977011495"/>
  <unicode hex="0042"/>
  <outline>
    <contour>
      <point x="625.8620689655172" y="0.0" type="curve"/>
      <point x="1059.7471264367816" y="0.0"/>
      <point x="1194.183908045977" y="170.09195402298852"/>
      <point x="1194.183908045977" y="389.9080459770115" type="curve" smooth="yes"/>
      <point x="1194.183908045977" y="613.2183908045977"/>
      <point x="1048.344827586207" y="704.0"/>
      <point x="907.8390804597701" y="730.6896551724138" type="curve"/>
      <point x="907.8390804597701" y="746.5977011494252" type="line"/>
      <point x="1048.9655172413793" y="792.6896551724138"/>
      <point x="1155.3103448275863" y="905.9080459770115"/>
      <point x="1155.3103448275863" y="1087.9080459770114" type="curve" smooth="yes"/>
      <point x="1155.3103448275863" y="1298.4367816091954"/>
      <point x="1022.0" y="1426.0"/>
      <point x="707.5172413793103" y="1426.0" type="curve"/>
      <point x="521.7011494252873" y="1426.0"/>
      <point x="345.632183908046" y="1426.0"/>
      <point x="196.94252873563218" y="1426.0" type="curve"/>
      <point x="196.94252873563218" y="1265.5632183908046"/>
      <point x="196.94252873563218" y="1126.344827586207"/>
      <point x="196.94252873563218" y="950.0" type="curve"/>
      <point x="196.94252873563218" y="472.8735632183908" type="line"/>
      <point x="196.94252873563218" y="297.3103448275862"/>
      <point x="196.94252873563218" y="159.6551724137931"/>
      <point x="196.94252873563218" y="0.0" type="curve"/>
      <point x="275.01149425287355" y="0.0"/>
      <point x="430.04597701149424" y="0.0"/>
    </contour>
    <contour>
      <point x="335.1954022988506" y="119.83908045977012" type="line"/>
      <point x="335.1954022988506" y="240.98850574712645"/>
      <point x="335.1954022988506" y="354.48275862068965"/>
      <point x="335.1954022988506" y="494.7586206896552" type="curve"/>
      <point x="335.1954022988506" y="926.551724137931" type="line"/>
      <point x="335.1954022988506" y="1068.3908045977012"/>
      <point x="335.1954022988506" y="1183.448275862069"/>
      <point x="335.1954022988506" y="1306.1609195402298" type="curve"/>
      <point x="697.264367816092" y="1306.1609195402298" type="line" smooth="yes"/>
      <point x="903.5632183908046" y="1306.1609195402298"/>
      <point x="1010.3678160919541" y="1233.1954022988505"/>
      <point x="1010.3678160919541" y="1062.1149425287356" type="curve" smooth="yes"/>
      <point x="1010.3678160919541" y="914.4367816091954"/>
      <point x="912.0919540229885" y="781.0114942528736"/>
      <point x="670.3908045977012" y="781.0114942528736" type="curve" smooth="yes"/>
      <point x="304.4367816091954" y="781.0114942528736" type="line"/>
      <point x="304.4367816091954" y="665.5172413793103" type="line"/>
      <point x="667.4252873563219" y="665.5172413793103" type="line" smooth="yes"/>
      <point x="907.471264367816" y="665.5172413793103"/>
      <point x="1049.2413793103449" y="590.8965517241379"/>
      <point x="1049.2413793103449" y="398.5057471264368" type="curve" smooth="yes"/>
      <point x="1049.2413793103449" y="226.29885057471265"/>
      <point x="936.0919540229885" y="119.83908045977012"/>
      <point x="635.6781609195402" y="119.83908045977012" type="curve" smooth="yes"/>
    </contour>
  </outline>
</glyph>
<glyph name="C" format="2">
  <advance width="1370.5684210526315"/>
  <unicode hex="0043"/>
  <anchor x="799.1368421052632" y="0.0" name="bottom"/>
  <anchor x="782.7157894736843" y="1426.0" name="top"/>
  <outline>
    <contour>
      <point x="832.2105263157895" y="-20.50526315789474" type="curve" smooth="yes"/>
      <point x="983.7894736842105" y="-20.50526315789474"/>
      <point x="1143.3684210526317" y="12.063157894736843"/>
      <point x="1256.0842105263157" y="86.12631578947368" type="curve"/>
      <point x="1242.2947368421053" y="223.05263157894737" type="line"/>
      <point x="1120.5052631578947" y="136.18947368421053"/>
      <point x="980.0842105263158" y="104.54736842105262"/>
      <point x="841.8105263157895" y="104.54736842105262" type="curve"/>
      <point x="453.8105263157895" y="104.54736842105262"/>
      <point x="252.92631578947368" y="378.5684210526316"/>
      <point x="252.92631578947368" y="714.9263157894737" type="curve" smooth="yes"/>
      <point x="252.92631578947368" y="1088.1473684210525"/>
      <point x="486.37894736842105" y="1323.8736842105263"/>
      <point x="814.021052631579" y="1323.8736842105263" type="curve"/>
      <point x="951.2210526315789" y="1323.8736842105263"/>
      <point x="1096.7157894736843" y="1287.157894736842"/>
      <point x="1251.0736842105264" y="1196.6526315789474" type="curve"/>
      <point x="1265.3684210526317" y="1334.6526315789474" type="line"/>
      <point x="1168.0" y="1388.0842105263157"/>
      <point x="994.421052631579" y="1451.4315789473685"/>
      <point x="804.9263157894737" y="1451.4315789473685" type="curve" smooth="yes"/>
      <point x="394.6736842105263" y="1451.4315789473685"/>
      <point x="107.1157894736842" y="1148.778947368421"/>
      <point x="107.1157894736842" y="716.2105263157895" type="curve" smooth="yes"/>
      <point x="107.1157894736842" y="295.9789473684211"/>
      <point x="382.4842105263158" y="-20.50526315789474"/>
    </contour>
  </outline>
</glyph>
<glyph name="D" format="2">
  <advance width="1474.778947368421"/>
  <unicode hex="0044"/>
  <anchor x="701.7894736842105" y="0.0" name="bottom"/>
  <anchor x="738.2105263157895" y="714.0" name="center"/>
  <anchor x="701.7894736842105" y="1426.0" name="top"/>
  <outline>
    <contour>
      <point x="197.09473684210525" y="0.0" type="curve"/>
      <point x="349.4526315789474" y="0.0"/>
      <point x="465.05263157894734" y="0.0"/>
      <point x="631.4315789473684" y="0.0" type="curve"/>
      <point x="1168.0210526315789" y="0.0"/>
      <point x="1367.6631578947367" y="316.9263157894737"/>
      <point x="1367.6631578947367" y="719.2842105263157" type="curve" smooth="yes"/>
      <point x="1367.6631578947367" y="1162.5052631578947"/>
      <point x="1120.5894736842106" y="1426.0"/>
      <point x="679.4526315789474" y="1426.0" type="curve"/>
      <point x="518.9894736842106" y="1426.0"/>
      <point x="379.36842105263156" y="1426.0"/>
      <point x="197.09473684210525" y="1426.0" type="curve"/>
      <point x="197.09473684210525" y="1265.4315789473685"/>
      <point x="197.09473684210525" y="1126.5052631578947"/>
      <point x="197.09473684210525" y="949.6421052631579" type="curve"/>
      <point x="197.09473684210525" y="472.77894736842103" type="line"/>
      <point x="197.09473684210525" y="297.34736842105264"/>
      <point x="197.09473684210525" y="159.49473684210525"/>
    </contour>
    <contour>
      <point x="337.6842105263158" y="119.97894736842105" type="line"/>
      <point x="337.6842105263158" y="241.30526315789473"/>
      <point x="337.6842105263158" y="355.4947368421053"/>
      <point x="337.6842105263158" y="495.6842105263158" type="curve"/>
      <point x="337.6842105263158" y="927.4526315789474" type="line"/>
      <point x="337.6842105263158" y="1069.0736842105264"/>
      <point x="337.6842105263158" y="1183.621052631579"/>
      <point x="337.6842105263158" y="1306.0210526315789" type="curve"/>
      <point x="655.8526315789474" y="1306.0210526315789" type="line"/>
      <point x="1047.6842105263158" y="1306.0210526315789"/>
      <point x="1221.8526315789475" y="1075.8526315789475"/>
      <point x="1221.8526315789475" y="722.0" type="curve" smooth="yes"/>
      <point x="1221.8526315789475" y="378.5684210526316"/>
      <point x="1068.463157894737" y="119.97894736842105"/>
      <point x="632.7157894736843" y="119.97894736842105" type="curve"/>
    </contour>
  </outline>
</glyph>
<glyph name="E" format="2">
  <advance width="1184.7356321839081"/>
  <unicode hex="0045"/>
  <anchor x="633.3563218390805" y="0.0" name="bottom"/>
  <anchor x="1066.551724137931" y="0.0" name="ogonek"/>
  <anchor x="633.3563218390805" y="1426.0" name="top"/>
  <anchor x="72.04597701149426" y="1426.0" name="topleft"/>
  <outline>
    <contour>
      <point x="196.94252873563218" y="0.0" type="curve"/>
      <point x="335.1954022988506" y="0.0" type="line"/>
      <point x="335.1954022988506" y="20.50574712643678" type="line"/>
      <point x="335.1954022988506" y="180.16091954022988"/>
      <point x="335.1954022988506" y="318.5977011494253"/>
      <point x="335.1954022988506" y="493.37931034482756" type="curve"/>
      <point x="335.1954022988506" y="930.7126436781609" type="line"/>
      <point x="335.1954022988506" y="1107.057471264368"/>
      <point x="335.1954022988506" y="1246.2758620689656"/>
      <point x="335.1954022988506" y="1406.712643678161" type="curve"/>
      <point x="335.1954022988506" y="1426.0" type="line"/>
      <point x="196.94252873563218" y="1426.0" type="line"/>
      <point x="196.94252873563218" y="1265.5632183908046"/>
      <point x="196.94252873563218" y="1126.344827586207"/>
      <point x="196.94252873563218" y="950.0" type="curve"/>
      <point x="196.94252873563218" y="472.8735632183908" type="line"/>
      <point x="196.94252873563218" y="297.3103448275862"/>
      <point x="196.94252873563218" y="159.6551724137931"/>
    </contour>
    <contour>
      <point x="316.1609195402299" y="0.0" type="line"/>
      <point x="1067.3333333333333" y="0.0" type="line"/>
      <point x="1067.3333333333333" y="122.96551724137932" type="line"/>
      <point x="919.5862068965517" y="122.96551724137932"/>
      <point x="762.6206896551724" y="122.96551724137932"/>
      <point x="584.4367816091954" y="122.96551724137932" type="curve"/>
      <point x="316.1609195402299" y="122.96551724137932" type="line"/>
    </contour>
    <contour>
      <point x="305.2183908045977" y="663.5172413793103" type="line"/>
      <point x="585.4022988505748" y="663.5172413793103" type="line"/>
      <point x="767.9310344827586" y="663.5172413793103"/>
      <point x="890.8045977011494" y="663.5172413793103"/>
      <point x="1024.1149425287356" y="663.5172413793103" type="curve"/>
      <point x="1024.1149425287356" y="783.3563218390805" type="line"/>
      <point x="898.0229885057471" y="783.3563218390805"/>
      <point x="773.9310344827586" y="783.3563218390805"/>
      <point x="586.6206896551724" y="783.3563218390805" type="curve"/>
      <point x="305.2183908045977" y="783.3563218390805" type="line"/>
    </contour>
    <contour>
      <point x="309.9080459770115" y="1303.0344827586207" type="line"/>
      <point x="571.7471264367816" y="1303.0344827586207" type="line"/>
      <point x="783.1494252873563" y="1303.0344827586207"/>
      <point x="929.6781609195402" y="1303.0344827586207"/>
      <point x="1066.2068965517242" y="1303.0344827586207" type="curve"/>
      <point x="1066.2068965517242" y="1426.0" type="line"/>
      <point x="309.9080459770115" y="1426.0" type="line"/>
    </contour>
  </outline>
</glyph>
<glyph name="F" format="2">
  <advance width="1145.578947368421"/>
  <unicode hex="0046"/>
  <outline>
    <contour>
      <point x="197.09473684210525" y="0.0" type="curve"/>
      <point x="335.5368421052632" y="0.0" type="line"/>
      <point x="335.5368421052632" y="159.49473684210525"/>
      <point x="335.5368421052632" y="297.34736842105264"/>
      <point x="335.5368421052632" y="472.77894736842103" type="curve"/>
      <point x="335.5368421052632" y="930.4" type="line"/>
      <point x="335.5368421052632" y="1107.2631578947369"/>
      <point x="335.5368421052632" y="1246.1894736842105"/>
      <point x="335.5368421052632" y="1406.7578947368422" type="curve"/>
      <point x="335.5368421052632" y="1426.0" type="line"/>
      <point x="197.09473684210525" y="1426.0" type="line"/>
      <point x="197.09473684210525" y="1265.4315789473685"/>
      <point x="197.09473684210525" y="1126.5052631578947"/>
      <point x="197.09473684210525" y="949.6421052631579" type="curve"/>
      <point x="197.09473684210525" y="472.77894736842103" type="line"/>
      <point x="197.09473684210525" y="297.34736842105264"/>
      <point x="197.09473684210525" y="159.49473684210525"/>
    </contour>
    <contour>
      <point x="303.13684210526316" y="657.4947368421052" type="line"/>
      <point x="566.8421052631579" y="657.4947368421052" type="line"/>
      <point x="749.4736842105264" y="657.4947368421052"/>
      <point x="872.2526315789473" y="657.4947368421052"/>
      <point x="1006.3157894736842" y="657.4947368421052" type="curve"/>
      <point x="1006.3157894736842" y="777.4736842105264" type="line"/>
      <point x="879.8947368421053" y="777.4736842105264"/>
      <point x="755.4736842105264" y="777.4736842105264"/>
      <point x="568.4842105263158" y="777.4736842105264" type="curve"/>
      <point x="303.13684210526316" y="777.4736842105264" type="line"/>
    </contour>
    <contour>
      <point x="308.86315789473684" y="1302.8" type="line"/>
      <point x="554.0631578947368" y="1302.8" type="line"/>
      <point x="765.4736842105264" y="1302.8"/>
      <point x="911.7473684210527" y="1302.8"/>
      <point x="1048.378947368421" y="1302.8" type="curve"/>
      <point x="1048.378947368421" y="1426.0" type="line"/>
      <point x="308.86315789473684" y="1426.0" type="line"/>
    </contour>
  </outline>
</glyph>
<glyph name="G" format="2">
  <advance width="1468.0631578947368"/>
  <unicode hex="0047"/>
  <anchor x="799.1368421052632" y="0.0" name="bottom"/>
  <anchor x="799.1368421052632" y="1426.0" name="top"/>
  <outline>
    <contour>
      <point x="864.1263157894737" y="-20.147368421052633" type="curve" smooth="yes"/>
      <point x="1050.2105263157894" y="-20.147368421052633"/>
      <point x="1230.5894736842106" y="24.989473684210527"/>
      <point x="1323.5157894736842" y="67.2" type="curve"/>
      <point x="1306.5684210526315" y="204.18947368421053" type="line"/>
      <point x="1174.778947368421" y="131.4736842105263"/>
      <point x="1017.8736842105263" y="102.7578947368421"/>
      <point x="872.3578947368421" y="102.7578947368421" type="curve"/>
      <point x="441.9578947368421" y="102.7578947368421"/>
      <point x="252.21052631578948" y="372.2105263157895"/>
      <point x="252.21052631578948" y="716.2105263157895" type="curve" smooth="yes"/>
      <point x="252.21052631578948" y="1092.1473684210525"/>
      <point x="486.88421052631577" y="1323.8736842105263"/>
      <point x="825.3052631578947" y="1323.8736842105263" type="curve"/>
      <point x="968.1473684210526" y="1323.8736842105263"/>
      <point x="1120.5052631578947" y="1286.8"/>
      <point x="1284.2947368421053" y="1196.6526315789474" type="curve"/>
      <point x="1298.5894736842106" y="1334.2947368421053" type="line"/>
      <point x="1199.221052631579" y="1387.0105263157895"/>
      <point x="1017.7894736842105" y="1451.4315789473685"/>
      <point x="817.7894736842105" y="1451.4315789473685" type="curve" smooth="yes"/>
      <point x="389.6842105263158" y="1451.4315789473685"/>
      <point x="107.1157894736842" y="1145.4315789473685"/>
      <point x="107.1157894736842" y="716.5684210526316" type="curve" smooth="yes"/>
      <point x="107.1157894736842" y="299.5578947368421"/>
      <point x="368.2736842105263" y="-20.147368421052633"/>
    </contour>
    <contour>
      <point x="1189.0105263157895" y="65.41052631578947" type="curve"/>
      <point x="1323.5157894736842" y="67.2" type="line"/>
      <point x="1323.5157894736842" y="204.98947368421054"/>
      <point x="1323.5157894736842" y="298.9263157894737"/>
      <point x="1323.5157894736842" y="402.5052631578947" type="curve"/>
      <point x="1323.5157894736842" y="525.7263157894737"/>
      <point x="1323.5157894736842" y="612.2315789473685"/>
      <point x="1323.5157894736842" y="709.4526315789474" type="curve"/>
      <point x="1189.0105263157895" y="709.4526315789474" type="line"/>
      <point x="1189.0105263157895" y="612.2315789473685"/>
      <point x="1189.0105263157895" y="525.7263157894737"/>
      <point x="1189.0105263157895" y="402.5052631578947" type="curve"/>
      <point x="1189.0105263157895" y="298.9263157894737"/>
      <point x="1189.0105263157895" y="204.98947368421054"/>
    </contour>
  </outline>
</glyph>
<glyph name="H" format="2">
  <advance width="1498.7157894736843"/>
  <unicode hex="0048"/>
  <anchor x="750.3578947368421" y="0.0" name="bottom"/>
  <anchor x="750.3578947368421" y="714.0" name="center"/>
  <anchor x="750.3578947368421" y="1426.0" name="top"/>
  <anchor x="72.71578947368421" y="1426.0" name="topleft"/>
  <outline>
    <contour>
      <point x="1161.0315789473684" y="0.0" type="curve"/>
      <point x="1301.621052631579" y="0.0" type="line"/>
      <point x="1301.621052631579" y="159.49473684210525"/>
      <point x="1301.621052631579" y="297.34736842105264"/>
      <point x="1301.621052631579" y="472.77894736842103" type="curve"/>
      <point x="1301.621052631579" y="949.6421052631579" type="line"/>
      <point x="1301.621052631579" y="1126.5052631578947"/>
      <point x="1301.621052631579" y="1265.4315789473685"/>
      <point x="1301.621052631579" y="1426.0" type="curve"/>
      <point x="1161.0315789473684" y="1426.0" type="line"/>
      <point x="1161.0315789473684" y="1265.4315789473685"/>
      <point x="1161.0315789473684" y="1126.5052631578947"/>
      <point x="1161.0315789473684" y="949.6421052631579" type="curve"/>
      <point x="1161.0315789473684" y="472.77894736842103" type="line"/>
      <point x="1161.0315789473684" y="297.34736842105264"/>
      <point x="1161.0315789473684" y="159.49473684210525"/>
    </contour>
    <contour>
      <point x="197.09473684210525" y="0.0" type="curve"/>
      <point x="337.6842105263158" y="0.0" type="line"/>
      <point x="337.6842105263158" y="159.49473684210525"/>
      <point x="337.6842105263158" y="297.34736842105264"/>
      <point x="337.6842105263158" y="472.77894736842103" type="curve"/>
      <point x="337.6842105263158" y="949.6421052631579" type="line"/>
      <point x="337.6842105263158" y="1126.5052631578947"/>
      <point x="337.6842105263158" y="1265.4315789473685"/>
      <point x="337.6842105263158" y="1426.0" type="curve"/>
      <point x="197.09473684210525" y="1426.0" type="line"/>
      <point x="197.09473684210525" y="1265.4315789473685"/>
      <point x="197.09473684210525" y="1126.5052631578947"/>
      <point x="197.09473684210525" y="949.6421052631579" type="curve"/>
      <point x="197.09473684210525" y="472.77894736842103" type="line"/>
      <point x="197.09473684210525" y="297.34736842105264"/>
      <point x="197.09473684210525" y="159.49473684210525"/>
    </contour>
    <contour>
      <point x="281.7263157894737" y="661.4315789473684" type="line"/>
      <point x="1222.9894736842105" y="661.4315789473684" type="line"/>
      <point x="1222.9894736842105" y="784.6315789473684" type="line"/>
      <point x="281.7263157894737" y="784.6315789473684" type="line"/>
    </contour>
  </outline>
</glyph>
<glyph name="I" format="2">
  <advance width="540.1473684210526"/>
  <unicode hex="0049"/>
  <anchor x="268.46315789473687" y="0.0" name="bottom"/>
  <anchor x="341.2631578947368" y="0.0" name="ogonek"/>
  <anchor x="268.46315789473687" y="1426.0" name="top"/>
  <anchor x="70.06315789473685" y="1426.0" name="topleft"/>
  <outline>
    <contour>
      <point x="198.8842105263158" y="0.0" type="curve"/>
      <point x="341.2631578947368" y="0.0" type="line"/>
      <point x="341.2631578947368" y="159.49473684210525"/>
      <point x="341.2631578947368" y="297.34736842105264"/>
      <point x="341.2631578947368" y="472.77894736842103" type="curve"/>
      <point x="341.2631578947368" y="949.6421052631579" type="line"/>
      <point x="341.2631578947368" y="1126.5052631578947"/>
      <point x="341.2631578947368" y="1265.4315789473685"/>
      <point x="341.2631578947368" y="1426.0" type="curve"/>
      <point x="198.8842105263158" y="1426.0" type="line"/>
      <point x="198.8842105263158" y="1265.4315789473685"/>
      <point x="198.8842105263158" y="1126.5052631578947"/>
      <point x="198.8842105263158" y="949.6421052631579" type="curve"/>
      <point x="198.8842105263158" y="472.77894736842103" type="line"/>
      <point x="198.8842105263158" y="297.34736842105264"/>
      <point x="198.8842105263158" y="159.49473684210525"/>
    </contour>
  </outline>
</glyph>
<glyph name="J" format="2">
  <advance width="566.9894736842106"/>
  <unicode hex="004A"/>
  <anchor x="295.09473684210525" y="0.0" name="bottom"/>
  <anchor x="295.09473684210525" y="1426.0" name="top"/>
  <outline>
    <contour>
      <point x="37.11578947368421" y="-317.13684210526316" type="curve"/>
      <point x="188.82105263157894" y="-317.13684210526316" type="line"/>
      <point x="281.6842105263158" y="-226.42105263157896"/>
      <point x="368.10526315789474" y="-101.2"/>
      <point x="368.10526315789474" y="113.66315789473684" type="curve" smooth="yes"/>
      <point x="368.10526315789474" y="259.17894736842106"/>
      <point x="368.10526315789474" y="410.8421052631579"/>
      <point x="368.10526315789474" y="573.0736842105263" type="curve"/>
      <point x="368.10526315789474" y="949.6421052631579" type="line"/>
      <point x="368.10526315789474" y="1126.5052631578947"/>
      <point x="368.10526315789474" y="1265.4315789473685"/>
      <point x="368.10526315789474" y="1426.0" type="curve"/>
      <point x="227.5157894736842" y="1426.0" type="line"/>
      <point x="227.5157894736842" y="1265.4315789473685"/>
      <point x="227.5157894736842" y="1126.5052631578947"/>
      <point x="227.5157894736842" y="949.6421052631579" type="curve"/>
      <point x="227.5157894736842" y="522.1684210526316" type="line"/>
      <point x="227.5157894736842" y="129.45263157894738" type="line"/>
      <point x="225.8736842105263" y="-75.03157894736842"/>
      <point x="155.74736842105264" y="-190.1263157894737"/>
    </contour>
  </outline>
</glyph>
<glyph name="K" format="2">
  <advance width="1326.6315789473683"/>
  <unicode hex="004B"/>
  <anchor x="677.9578947368421" y="0.0" name="bottom"/>
  <anchor x="677.9578947368421" y="1426.0" name="top"/>
  <outline>
    <contour>
      <point x="1078.4" y="0.0" type="curve"/>
      <point x="1261.3684210526317" y="0.0" type="line"/>
      <point x="1141.3894736842105" y="121.22105263157894"/>
      <point x="949.3473684210526" y="315.4526315789474"/>
      <point x="804.8" y="460.82105263157894" type="curve"/>
      <point x="492.42105263157896" y="777.3473684210526" type="line"/>
      <point x="494.2105263157895" y="715.7052631578947" type="line"/>
      <point x="773.4526315789474" y="988.2105263157895" type="line"/>
      <point x="920.7157894736843" y="1131.6421052631579"/>
      <point x="1068.5473684210526" y="1274.3578947368421"/>
      <point x="1225.6631578947367" y="1426.0" type="curve"/>
      <point x="1048.0631578947368" y="1426.0" type="line"/>
      <point x="890.8210526315789" y="1272.4421052631578"/>
      <point x="781.4947368421052" y="1167.0947368421052"/>
      <point x="659.9578947368421" y="1048.821052631579" type="curve"/>
      <point x="401.38947368421054" y="796.0631578947368" type="line"/>
      <point x="318.46315789473687" y="796.0631578947368" type="line"/>
      <point x="318.46315789473687" y="677.5157894736842" type="line"/>
      <point x="401.17894736842106" y="677.5157894736842" type="line"/>
      <point x="701.1578947368421" y="377.6842105263158" type="line"/>
      <point x="818.3368421052631" y="261.2631578947368"/>
      <point x="937.1578947368421" y="141.9157894736842"/>
    </contour>
    <contour>
      <point x="197.09473684210525" y="0.0" type="curve"/>
      <point x="337.3263157894737" y="0.0" type="line"/>
      <point x="337.3263157894737" y="159.49473684210525"/>
      <point x="337.3263157894737" y="297.34736842105264"/>
      <point x="337.3263157894737" y="472.77894736842103" type="curve"/>
      <point x="337.3263157894737" y="949.6421052631579" type="line"/>
      <point x="337.3263157894737" y="1126.5052631578947"/>
      <point x="337.3263157894737" y="1265.4315789473685"/>
      <point x="337.3263157894737" y="1426.0" type="curve"/>
      <point x="197.09473684210525" y="1426.0" type="line"/>
      <point x="197.09473684210525" y="1265.4315789473685"/>
      <point x="197.09473684210525" y="1126.5052631578947"/>
      <point x="197.09473684210525" y="949.6421052631579" type="curve"/>
      <point x="197.09473684210525" y="472.77894736842103" type="line"/>
      <point x="197.09473684210525" y="297.34736842105264"/>
      <point x="197.09473684210525" y="159.49473684210525"/>
    </contour>
  </outline>
</glyph>
<glyph name="L" format="2">
  <advance width="1102.0210526315789"/>
  <unicode hex="004C"/>
  <anchor x="630.4842105263158" y="0.0" name="bottom"/>
  <anchor x="839.3894736842105" y="715.0736842105263" name="center"/>
  <anchor x="390.8421052631579" y="1426.0" name="top"/>
  <anchor x="556.7578947368421" y="990.8631578947368" name="topright"/>
  <outline>
    <contour>
      <point x="197.09473684210525" y="0.0" type="curve"/>
      <point x="337.6842105263158" y="0.0" type="line"/>
      <point x="337.6842105263158" y="20.88421052631579" type="line"/>
      <point x="337.6842105263158" y="180.37894736842105"/>
      <point x="337.6842105263158" y="318.2315789473684"/>
      <point x="337.6842105263158" y="493.66315789473686" type="curve"/>
      <point x="337.6842105263158" y="949.6421052631579" type="line"/>
      <point x="337.6842105263158" y="1126.5052631578947"/>
      <point x="337.6842105263158" y="1265.4315789473685"/>
      <point x="337.6842105263158" y="1426.0" type="curve"/>
      <point x="197.09473684210525" y="1426.0" type="line"/>
      <point x="197.09473684210525" y="1265.4315789473685"/>
      <point x="197.09473684210525" y="1126.5052631578947"/>
      <point x="197.09473684210525" y="949.6421052631579" type="curve"/>
      <point x="197.09473684210525" y="472.77894736842103" type="line"/>
      <point x="197.09473684210525" y="297.34736842105264"/>
      <point x="197.09473684210525" y="159.49473684210525"/>
    </contour>
    <contour>
      <point x="316.37894736842105" y="0.0" type="line"/>
      <point x="1063.8736842105263" y="0.0" type="line"/>
      <point x="1063.8736842105263" y="126.77894736842106" type="line"/>
      <point x="903.7473684210527" y="126.77894736842106"/>
      <point x="768.1894736842105" y="126.77894736842106"/>
      <point x="533.6421052631579" y="126.77894736842106" type="curve"/>
      <point x="316.37894736842105" y="126.77894736842106" type="line"/>
    </contour>
  </outline>
</glyph>
<glyph name="M" format="2">
  <advance width="1912.0842105263157"/>
  <unicode hex="004D"/>
  <anchor x="956.8631578947368" y="0.0" name="bottom"/>
  <anchor x="956.8631578947368" y="1426.0" name="top"/>
  <outline>
    <contour>
      <point x="142.82105263157894" y="0.0" type="curve"/>
      <point x="279.5368421052632" y="0.0" type="line"/>
      <point x="311.9578947368421" y="266.8"/>
      <point x="341.09473684210525" y="509.7473684210526"/>
      <point x="366.58947368421053" y="718.6315789473684" type="curve"/>
      <point x="421.22105263157897" y="1169.178947368421" type="line"/>
      <point x="431.87368421052633" y="1169.178947368421" type="line"/>
      <point x="632.4631578947368" y="679.6421052631579" type="line"/>
      <point x="725.0105263157894" y="452.1894736842105"/>
      <point x="832.6947368421053" y="191.53684210526316"/>
      <point x="911.7473684210527" y="0.0" type="curve"/>
      <point x="1008.7789473684211" y="0.0" type="line"/>
      <point x="1092.6105263157895" y="204.31578947368422"/>
      <point x="1191.578947368421" y="448.1894736842105"/>
      <point x="1285.621052631579" y="682.9263157894737" type="curve"/>
      <point x="1482.2736842105264" y="1169.178947368421" type="line"/>
      <point x="1492.9263157894736" y="1169.178947368421" type="line"/>
      <point x="1547.5578947368422" y="718.6315789473684" type="line"/>
      <point x="1573.0526315789473" y="509.7473684210526"/>
      <point x="1602.1894736842105" y="266.8"/>
      <point x="1634.9684210526316" y="0.0" type="curve"/>
      <point x="1769.2631578947369" y="0.0" type="line"/>
      <point x="1751.2631578947369" y="159.13684210526316"/>
      <point x="1733.2631578947369" y="300.42105263157896"/>
      <point x="1712.5473684210526" y="472.77894736842103" type="curve"/>
      <point x="1655.1157894736841" y="945.6421052631579" type="line"/>
      <point x="1633.1157894736841" y="1121.2842105263157"/>
      <point x="1616.4" y="1263.4315789473685"/>
      <point x="1596.042105263158" y="1426.0" type="curve"/>
      <point x="1454.5263157894738" y="1426.0" type="line"/>
      <point x="1366.9052631578948" y="1210.9684210526316"/>
      <point x="1287.2842105263157" y="1015.5157894736842"/>
      <point x="1205.6631578947367" y="817.5578947368421" type="curve"/>
      <point x="966.0842105263158" y="232.4" type="line"/>
      <point x="954.1473684210526" y="232.4" type="line"/>
      <point x="712.7789473684211" y="817.5578947368421" type="line"/>
      <point x="630.4421052631579" y="1015.5157894736842"/>
      <point x="550.4631578947368" y="1212.042105263158"/>
      <point x="462.12631578947367" y="1426.0" type="curve"/>
      <point x="320.82105263157894" y="1426.0" type="line"/>
      <point x="300.82105263157894" y="1261.4315789473685"/>
      <point x="282.82105263157894" y="1117.6421052631579"/>
      <point x="260.82105263157894" y="945.6421052631579" type="curve"/>
      <point x="202.46315789473684" y="472.77894736842103" type="line"/>
      <point x="180.46315789473684" y="299.13684210526316"/>
      <point x="162.46315789473684" y="154.77894736842106"/>
    </contour>
  </outline>
</glyph>
<glyph name="N" format="2">
  <advance width="1510.0631578947368"/>
  <unicode hex="004E"/>
  <anchor x="756.2105263157895" y="0.0" name="bottom"/>
  <anchor x="756.2105263157895" y="1426.0" name="top"/>
  <outline>
    <contour>
      <point x="197.09473684210525" y="0.0" type="curve"/>
      <point x="331.6" y="0.0" type="line"/>
      <point x="331.6" y="159.49473684210525"/>
      <point x="331.6" y="297.34736842105264"/>
      <point x="331.6" y="472.77894736842103" type="curve"/>
      <point x="331.6" y="1184.378947368421" type="line"/>
      <point x="343.89473684210526" y="1184.378947368421" type="line"/>
      <point x="675.2421052631579" y="717.5578947368421" type="line"/>
      <point x="874.3368421052631" y="437.62105263157895"/>
      <point x="1035.7263157894736" y="211.6"/>
      <point x="1185.621052631579" y="0.0" type="curve"/>
      <point x="1312.9684210526316" y="0.0" type="line"/>
      <point x="1312.9684210526316" y="159.49473684210525"/>
      <point x="1312.9684210526316" y="297.34736842105264"/>
      <point x="1312.9684210526316" y="472.77894736842103" type="curve"/>
      <point x="1312.9684210526316" y="949.6421052631579" type="line"/>
      <point x="1312.9684210526316" y="1126.5052631578947"/>
      <point x="1312.9684210526316" y="1265.4315789473685"/>
      <point x="1312.9684210526316" y="1426.0" type="curve"/>
      <point x="1178.463157894737" y="1426.0" type="line"/>
      <point x="1178.463157894737" y="1265.4315789473685"/>
      <point x="1178.463157894737" y="1126.5052631578947"/>
      <point x="1178.463157894737" y="949.6421052631579" type="curve"/>
      <point x="1178.463157894737" y="248.18947368421053" type="line"/>
      <point x="1165.8105263157895" y="248.18947368421053" type="line"/>
      <point x="835.5368421052632" y="711.3684210526316" type="line"/>
      <point x="671.7894736842105" y="940.1052631578948"/>
      <point x="507.8315789473684" y="1173.621052631579"/>
      <point x="326.8" y="1426.0" type="curve"/>
      <point x="197.09473684210525" y="1426.0" type="line"/>
      <point x="197.09473684210525" y="1265.4315789473685"/>
      <point x="197.09473684210525" y="1126.5052631578947"/>
      <point x="197.09473684210525" y="949.6421052631579" type="curve"/>
      <point x="197.09473684210525" y="472.77894736842103" type="line"/>
      <point x="197.09473684210525" y="297.34736842105264"/>
      <point x="197.09473684210525" y="159.49473684210525"/>
    </contour>
  </outline>
</glyph>
<glyph name="O" format="2">
  <advance width="1635.1368421052632"/>
  <unicode hex="004F"/>
  <anchor x="816.9263157894737" y="0.0" name="bottom"/>
  <anchor x="816.9263157894737" y="714.0" name="center"/>
  <anchor x="1001.2421052631579" y="0.0" name="ogonek"/>
  <anchor x="816.9263157894737" y="1426.0" name="top"/>
  <anchor x="52.92631578947368" y="1426.0" name="topleft"/>
  <anchor x="1434.6947368421052" y="1426.0" name="topright"/>
  <outline>
    <contour>
      <point x="824.5684210526316" y="-20.50526315789474" type="curve" smooth="yes"/>
      <point x="1262.8842105263159" y="-20.50526315789474"/>
      <point x="1528.0210526315789" y="293.85263157894735"/>
      <point x="1528.0210526315789" y="715.2842105263157" type="curve" smooth="yes"/>
      <point x="1528.0210526315789" y="1124.0"/>
      <point x="1275.2421052631578" y="1451.4315789473685"/>
      <point x="819.1368421052632" y="1451.4315789473685" type="curve" smooth="yes"/>
      <point x="370.6736842105263" y="1451.4315789473685"/>
      <point x="107.1157894736842" y="1129.2842105263157"/>
      <point x="107.1157894736842" y="714.9263157894737" type="curve" smooth="yes"/>
      <point x="107.1157894736842" y="317.0736842105263"/>
      <point x="348.46315789473687" y="-20.50526315789474"/>
    </contour>
    <contour>
      <point x="820.2105263157895" y="104.54736842105262" type="curve"/>
      <point x="429.0315789473684" y="104.54736842105262"/>
      <point x="252.92631578947368" y="391.9157894736842"/>
      <point x="252.92631578947368" y="715.2842105263157" type="curve" smooth="yes"/>
      <point x="252.92631578947368" y="1036.4421052631578"/>
      <point x="436.6736842105263" y="1326.378947368421"/>
      <point x="820.2105263157895" y="1326.378947368421" type="curve"/>
      <point x="1191.178947368421" y="1326.378947368421"/>
      <point x="1382.2105263157896" y="1056.1473684210525"/>
      <point x="1382.2105263157896" y="715.2842105263157" type="curve" smooth="yes"/>
      <point x="1382.2105263157896" y="398.4842105263158"/>
      <point x="1211.0315789473684" y="104.54736842105262"/>
    </contour>
  </outline>
</glyph>
<glyph name="P" format="2">
  <advance width="1242.2758620689656"/>
  <unicode hex="0050"/>
  <outline>
    <contour>
      <point x="630.6896551724138" y="586.8275862068965" type="curve"/>
      <point x="1028.9655172413793" y="586.8275862068965"/>
      <point x="1153.2183908045977" y="773.9540229885057"/>
      <point x="1153.2183908045977" y="1028.896551724138" type="curve" smooth="yes"/>
      <point x="1153.2183908045977" y="1298.6896551724137"/>
      <point x="1002.2758620689655" y="1426.0"/>
      <point x="683.3333333333334" y="1426.0" type="curve"/>
      <point x="471.35632183908046" y="1426.0"/>
      <point x="304.0689655172414" y="1426.0"/>
      <point x="196.94252873563218" y="1426.0" type="curve"/>
      <point x="312.41379310344826" y="1306.1609195402298" type="line"/>
      <point x="673.8620689655172" y="1306.1609195402298" type="line" smooth="yes"/>
      <point x="818.6666666666666" y="1306.1609195402298"/>
      <point x="1009.8390804597701" y="1284.2528735632184"/>
      <point x="1009.8390804597701" y="1028.1149425287356" type="curve" smooth="yes"/>
      <point x="1009.8390804597701" y="796.9425287356322"/>
      <point x="886.5977011494252" y="705.448275862069"/>
      <point x="607.5862068965517" y="705.448275862069" type="curve" smooth="yes"/>
      <point x="316.5977011494253" y="705.448275862069" type="line"/>
      <point x="316.5977011494253" y="586.8275862068965" type="line"/>
      <point x="395.816091954023" y="586.8275862068965"/>
      <point x="530.2528735632184" y="586.8275862068965"/>
    </contour>
    <contour>
      <point x="196.94252873563218" y="0.0" type="curve"/>
      <point x="335.9770114942529" y="0.0" type="line"/>
      <point x="335.9770114942529" y="159.6551724137931"/>
      <point x="335.9770114942529" y="297.3103448275862"/>
      <point x="335.9770114942529" y="472.8735632183908" type="curve"/>
      <point x="335.9770114942529" y="930.7126436781609" type="line"/>
      <point x="335.9770114942529" y="1107.057471264368"/>
      <point x="335.9770114942529" y="1246.2758620689656"/>
      <point x="335.9770114942529" y="1406.712643678161" type="curve"/>
      <point x="196.94252873563218" y="1426.0" type="line"/>
      <point x="196.94252873563218" y="1265.5632183908046"/>
      <point x="196.94252873563218" y="1126.344827586207"/>
      <point x="196.94252873563218" y="950.0" type="curve"/>
      <point x="196.94252873563218" y="472.8735632183908" type="line"/>
      <point x="196.94252873563218" y="297.3103448275862"/>
      <point x="196.94252873563218" y="159.6551724137931"/>
    </contour>
  </outline>
</glyph>
<glyph name="R" format="2">
  <advance width="1327.4942528735633"/>
  <unicode hex="0052"/>
  <anchor x="668.9885057471264" y="0.0" name="bottom"/>
  <anchor x="644.6206896551724" y="1426.0" name="top"/>
  <outline>
    <contour>
      <point x="1095.5862068965516" y="0.0" type="curve"/>
      <point x="1263.2183908045977" y="0.0" type="line"/>
      <point x="1171.471264367816" y="110.0"/>
      <point x="1032.8505747126437" y="276.3448275862069"/>
      <point x="925.8850574712644" y="405.9080459770115" type="curve"/>
      <point x="691.5172413793103" y="687.471264367816" type="line"/>
      <point x="652.3448275862069" y="623.3333333333334" type="line"/>
      <point x="1018.528735632184" y="625.3333333333334"/>
      <point x="1136.344827586207" y="817.6781609195402"/>
      <point x="1136.344827586207" y="1046.712643678161" type="curve" smooth="yes"/>
      <point x="1136.344827586207" y="1317.1264367816093"/>
      <point x="981.4942528735633" y="1426.0"/>
      <point x="661.7701149425287" y="1426.0" type="curve"/>
      <point x="464.64367816091954" y="1426.0"/>
      <point x="307.97701149425285" y="1426.0"/>
      <point x="196.94252873563218" y="1426.0" type="curve"/>
      <point x="289.7471264367816" y="1306.1609195402298" type="line"/>
      <point x="656.2068965517242" y="1306.1609195402298" type="line" smooth="yes"/>
      <point x="801.0114942528736" y="1306.1609195402298"/>
      <point x="991.4022988505747" y="1295.5632183908046"/>
      <point x="991.4022988505747" y="1034.9885057471265" type="curve" smooth="yes"/>
      <point x="991.4022988505747" y="807.5632183908046"/>
      <point x="865.816091954023" y="719.1954022988506"/>
      <point x="590.7126436781609" y="719.1954022988506" type="curve" smooth="yes"/>
      <point x="311.1264367816092" y="719.1954022988506" type="line"/>
      <point x="311.1264367816092" y="600.5747126436781" type="line"/>
      <point x="637.471264367816" y="600.5747126436781" type="line"/>
      <point x="549.7011494252873" y="665.9080459770115" type="line"/>
      <point x="810.3218390804598" y="345.9310344827586" type="line"/>
      <point x="901.816091954023" y="235.4022988505747"/>
      <point x="994.0919540229885" y="122.0919540229885"/>
    </contour>
    <contour>
      <point x="196.94252873563218" y="0.0" type="curve"/>
      <point x="335.1954022988506" y="0.0" type="line"/>
      <point x="335.1954022988506" y="159.6551724137931"/>
      <point x="335.1954022988506" y="297.3103448275862"/>
      <point x="335.1954022988506" y="472.8735632183908" type="curve"/>
      <point x="335.1954022988506" y="930.7126436781609" type="line"/>
      <point x="335.1954022988506" y="1104.712643678161"/>
      <point x="335.1954022988506" y="1243.1494252873563"/>
      <point x="335.1954022988506" y="1406.712643678161" type="curve"/>
      <point x="196.94252873563218" y="1426.0" type="line"/>
      <point x="196.94252873563218" y="1265.5632183908046"/>
      <point x="196.94252873563218" y="1126.344827586207"/>
      <point x="196.94252873563218" y="950.0" type="curve"/>
      <point x="196.94252873563218" y="472.8735632183908" type="line"/>
      <point x="196.94252873563218" y="297.3103448275862"/>
      <point x="196.94252873563218" y="159.6551724137931"/>
    </contour>
  </outline>
</glyph>
<glyph name="S" format="2">
  <advance width="1164.8505747126437"/>
  <unicode hex="0053"/>
  <anchor x="591.471264367816" y="0.0" name="bottom"/>
  <anchor x="591.471264367816" y="1426.0" name="top"/>
  <outline>
    <contour>
      <point x="600.8735632183908" y="-20.344827586206897" type="curve" smooth="yes"/>
      <point x="933.1954022988506" y="-20.344827586206897"/>
      <point x="1079.0114942528735" y="156.09195402298852"/>
      <point x="1079.0114942528735" y="380.9425287356322" type="curve" smooth="yes"/>
      <point x="1079.0114942528735" y="584.1379310344828"/>
      <point x="970.2298850574713" y="680.1379310344828"/>
      <point x="627.0114942528736" y="791.0114942528736" type="curve" smooth="yes"/>
      <point x="372.71264367816093" y="873.2873563218391"/>
      <point x="264.4367816091954" y="931.816091954023"/>
      <point x="264.4367816091954" y="1077.4942528735633" type="curve" smooth="yes"/>
      <point x="264.4367816091954" y="1251.103448275862"/>
      <point x="415.7701149425287" y="1326.1609195402298"/>
      <point x="587.448275862069" y="1326.1609195402298" type="curve"/>
      <point x="704.3218390804598" y="1326.1609195402298"/>
      <point x="855.1034482758621" y="1288.2528735632184"/>
      <point x="975.448275862069" y="1205.0344827586207" type="curve"/>
      <point x="991.3563218390805" y="1342.6896551724137" type="line"/>
      <point x="909.1954022988506" y="1395.9080459770114"/>
      <point x="741.816091954023" y="1451.5632183908046"/>
      <point x="573.9080459770115" y="1451.5632183908046" type="curve" smooth="yes"/>
      <point x="275.4942528735632" y="1451.5632183908046"/>
      <point x="117.14942528735632" y="1287.655172413793"/>
      <point x="117.14942528735632" y="1072.8045977011495" type="curve" smooth="yes"/>
      <point x="117.14942528735632" y="854.3908045977012"/>
      <point x="274.8045977011494" y="764.0459770114943"/>
      <point x="550.551724137931" y="676.735632183908" type="curve" smooth="yes"/>
      <point x="793.8850574712644" y="600.1149425287356"/>
      <point x="932.5057471264367" y="536.3678160919541"/>
      <point x="932.5057471264367" y="374.6896551724138" type="curve" smooth="yes"/>
      <point x="932.5057471264367" y="178.11494252873564"/>
      <point x="782.735632183908" y="104.27586206896552"/>
      <point x="593.8390804597701" y="104.27586206896552" type="curve"/>
      <point x="430.0" y="104.27586206896552"/>
      <point x="284.9655172413793" y="151.05747126436782"/>
      <point x="150.6206896551724" y="224.183908045977" type="curve"/>
      <point x="135.49425287356323" y="88.9655172413793" type="line"/>
      <point x="227.4022988505747" y="37.310344827586206"/>
      <point x="421.6551724137931" y="-20.344827586206897"/>
    </contour>
  </outline>
</glyph>
<glyph name="T" format="2">
  <advance width="1279.0105263157895"/>
  <unicode hex="0054"/>
  <anchor x="640.5052631578948" y="0.0" name="bottom"/>
  <anchor x="640.5052631578948" y="693.2421052631579" name="center"/>
  <anchor x="640.5052631578948" y="1426.0" name="top"/>
  <outline>
    <contour>
      <point x="570.2105263157895" y="0.0" type="curve"/>
      <point x="710.4421052631579" y="0.0" type="line"/>
      <point x="710.4421052631579" y="159.49473684210525"/>
      <point x="710.4421052631579" y="297.34736842105264"/>
      <point x="710.4421052631579" y="472.77894736842103" type="curve"/>
      <point x="710.4421052631579" y="930.4" type="line"/>
      <point x="710.4421052631579" y="1107.2631578947369"/>
      <point x="710.4421052631579" y="1246.1894736842105"/>
      <point x="710.4421052631579" y="1406.7578947368422" type="curve"/>
      <point x="710.4421052631579" y="1426.0" type="line"/>
      <point x="570.2105263157895" y="1426.0" type="line"/>
      <point x="570.2105263157895" y="1406.7578947368422" type="line"/>
      <point x="570.2105263157895" y="1246.1894736842105"/>
      <point x="570.2105263157895" y="1107.2631578947369"/>
      <point x="570.2105263157895" y="930.4" type="curve"/>
      <point x="570.2105263157895" y="472.77894736842103" type="line"/>
      <point x="570.2105263157895" y="297.34736842105264"/>
      <point x="570.2105263157895" y="159.49473684210525"/>
    </contour>
    <contour>
      <point x="64.63157894736842" y="1299.221052631579" type="line"/>
      <point x="178.69473684210527" y="1299.221052631579"/>
      <point x="298.7578947368421" y="1299.221052631579"/>
      <point x="463.38947368421054" y="1299.221052631579" type="curve"/>
      <point x="593.0947368421052" y="1299.221052631579" type="line"/>
      <point x="593.0947368421052" y="1426.0" type="line"/>
      <point x="64.63157894736842" y="1426.0" type="line"/>
    </contour>
    <contour>
      <point x="685.9157894736842" y="1299.221052631579" type="line"/>
      <point x="815.621052631579" y="1299.221052631579" type="line"/>
      <point x="980.2526315789473" y="1299.221052631579"/>
      <point x="1100.3157894736842" y="1299.221052631579"/>
      <point x="1214.378947368421" y="1299.221052631579" type="curve"/>
      <point x="1214.378947368421" y="1426.0" type="line"/>
      <point x="685.9157894736842" y="1426.0" type="line"/>
    </contour>
  </outline>
</glyph>
<glyph name="U" format="2">
  <advance width="1461.8526315789475"/>
  <unicode hex="0055"/>
  <anchor x="732.9263157894737" y="0.0" name="bottom"/>
  <anchor x="912.6736842105263" y="0.0" name="ogonek"/>
  <anchor x="732.9263157894737" y="1426.0" name="top"/>
  <anchor x="1387.6631578947367" y="1426.0" name="topright"/>
  <outline>
    <contour>
      <point x="731.6421052631579" y="-20.50526315789474" type="curve" smooth="yes"/>
      <point x="1116.1684210526316" y="-20.50526315789474"/>
      <point x="1283.8947368421052" y="198.56842105263158"/>
      <point x="1283.8947368421052" y="524.9473684210526" type="curve" smooth="yes"/>
      <point x="1283.8947368421052" y="608.6526315789474"/>
      <point x="1283.8947368421052" y="781.0105263157894"/>
      <point x="1283.8947368421052" y="949.6421052631579" type="curve"/>
      <point x="1283.8947368421052" y="1126.5052631578947"/>
      <point x="1283.8947368421052" y="1265.4315789473685"/>
      <point x="1283.8947368421052" y="1426.0" type="curve"/>
      <point x="1143.6631578947367" y="1426.0" type="line"/>
      <point x="1143.6631578947367" y="1265.4315789473685"/>
      <point x="1143.6631578947367" y="1126.5052631578947"/>
      <point x="1143.6631578947367" y="949.6421052631579" type="curve"/>
      <point x="1143.6631578947367" y="544.9473684210526" type="line" smooth="yes"/>
      <point x="1143.6631578947367" y="267.57894736842104"/>
      <point x="1035.9789473684211" y="104.54736842105262"/>
      <point x="731.2842105263157" y="104.54736842105262" type="curve"/>
      <point x="428.0210526315789" y="104.54736842105262"/>
      <point x="316.5473684210526" y="269.22105263157897"/>
      <point x="316.5473684210526" y="543.3052631578947" type="curve" smooth="yes"/>
      <point x="316.5473684210526" y="949.6421052631579" type="line"/>
      <point x="316.5473684210526" y="1126.5052631578947"/>
      <point x="316.5473684210526" y="1265.4315789473685"/>
      <point x="316.5473684210526" y="1426.0" type="curve"/>
      <point x="176.31578947368422" y="1426.0" type="line"/>
      <point x="176.31578947368422" y="1265.4315789473685"/>
      <point x="176.31578947368422" y="1126.5052631578947"/>
      <point x="176.31578947368422" y="949.6421052631579" type="curve"/>
      <point x="176.31578947368422" y="781.0105263157894"/>
      <point x="176.31578947368422" y="610.0842105263158"/>
      <point x="176.31578947368422" y="525.3052631578947" type="curve" smooth="yes"/>
      <point x="176.31578947368422" y="198.56842105263158"/>
      <point x="342.6736842105263" y="-20.50526315789474"/>
    </contour>
  </outline>
</glyph>
<glyph name="V" format="2">
  <advance width="1360.3368421052633"/>
  <unicode hex="0056"/>
  <anchor x="680.1684210526316" y="0.0" name="bottom"/>
  <anchor x="680.1684210526316" y="1426.0" name="top"/>
  <outline>
    <contour>
      <point x="586.2736842105263" y="0.0" type="curve"/>
      <point x="778.8421052631579" y="0.0" type="line"/>
      <point x="831.621052631579" y="144.92631578947368"/>
      <point x="895.3263157894737" y="313.2842105263158"/>
      <point x="944.8210526315789" y="450.3578947368421" type="curve"/>
      <point x="1109.157894736842" y="900.0" type="line"/>
      <point x="1165.9368421052632" y="1054.3578947368421"/>
      <point x="1239.2842105263157" y="1255.2842105263157"/>
      <point x="1301.7052631578947" y="1426.0" type="curve"/>
      <point x="1151.0315789473684" y="1426.0" type="line"/>
      <point x="1070.4842105263158" y="1206.8842105263159"/>
      <point x="984.6526315789474" y="968.8421052631579"/>
      <point x="909.3894736842105" y="753.7263157894737" type="curve"/>
      <point x="690.5263157894736" y="147.5157894736842" type="line"/>
      <point x="674.9473684210526" y="147.5157894736842" type="line"/>
      <point x="456.58947368421053" y="751.7263157894737" type="line"/>
      <point x="380.4" y="961.5578947368421"/>
      <point x="288.3578947368421" y="1214.5263157894738"/>
      <point x="212.16842105263157" y="1426.0" type="curve"/>
      <point x="56.98947368421052" y="1426.0" type="line"/>
      <point x="120.69473684210526" y="1254.7157894736843"/>
      <point x="195.68421052631578" y="1052.3578947368421"/>
      <point x="252.10526315789474" y="900.0" type="curve"/>
      <point x="419.0105263157895" y="452.0" type="line"/>
      <point x="469.7894736842105" y="315.6421052631579"/>
      <point x="533.8526315789474" y="142.0"/>
    </contour>
  </outline>
</glyph>
<glyph name="W" format="2">
  <advance width="2025.5578947368422"/>
  <unicode hex="0057"/>
  <anchor x="1009.8105263157895" y="0.0" name="bottom"/>
  <anchor x="1009.8105263157895" y="1426.0" name="top"/>
  <outline>
    <contour>
      <point x="477.09473684210525" y="0.0" type="curve"/>
      <point x="658.3368421052631" y="0.0" type="line"/>
      <point x="714.1052631578948" y="201.38947368421051"/>
      <point x="781.7263157894737" y="445.2"/>
      <point x="837.4947368421052" y="646.9473684210526" type="curve"/>
      <point x="999.5157894736842" y="1231.621052631579" type="line"/>
      <point x="1015.0947368421052" y="1231.621052631579" type="line"/>
      <point x="1179.4736842105262" y="647.3052631578947" type="line"/>
      <point x="1235.6" y="445.2"/>
      <point x="1303.578947368421" y="203.74736842105264"/>
      <point x="1361.3473684210526" y="0.0" type="curve"/>
      <point x="1547.957894736842" y="0.0" type="line"/>
      <point x="1588.5263157894738" y="136.3578947368421"/>
      <point x="1638.7368421052631" y="309.6421052631579"/>
      <point x="1681.3052631578948" y="451.6421052631579" type="curve"/>
      <point x="1814.6526315789474" y="900.0" type="line"/>
      <point x="1860.8631578947368" y="1057.2842105263157"/>
      <point x="1919.0736842105264" y="1254.3578947368421"/>
      <point x="1969.2842105263157" y="1426.0" type="curve"/>
      <point x="1815.242105263158" y="1426.0" type="line"/>
      <point x="1756.9052631578948" y="1217.0315789473684"/>
      <point x="1686.3578947368421" y="970.9263157894737"/>
      <point x="1628.0210526315789" y="763.9578947368421" type="curve"/>
      <point x="1459.578947368421" y="165.26315789473685" type="line"/>
      <point x="1444.0" y="165.26315789473685" type="line"/>
      <point x="1279.621052631579" y="761.9578947368421" type="line"/>
      <point x="1220.2105263157894" y="974.5684210526316"/>
      <point x="1155.5157894736842" y="1213.3894736842105"/>
      <point x="1096.1052631578948" y="1426.0" type="curve"/>
      <point x="925.0947368421052" y="1426.0" type="line"/>
      <point x="869.3263157894737" y="1219.0315789473684"/>
      <point x="801.3473684210526" y="967.2842105263157"/>
      <point x="745.578947368421" y="763.9578947368421" type="curve"/>
      <point x="583.5578947368421" y="165.26315789473685" type="line"/>
      <point x="567.978947368421" y="165.26315789473685" type="line"/>
      <point x="401.17894736842106" y="758.3157894736842" type="line"/>
      <point x="340.8421052631579" y="970.9263157894737"/>
      <point x="272.2947368421053" y="1213.3894736842105"/>
      <point x="211.9578947368421" y="1426.0" type="curve"/>
      <point x="57.915789473684214" y="1426.0" type="line"/>
      <point x="107.76842105263158" y="1258.0"/>
      <point x="167.26315789473685" y="1054.7157894736843"/>
      <point x="213.4736842105263" y="896.7157894736843" type="curve"/>
      <point x="344.46315789473687" y="450.0" type="line"/>
      <point x="385.0315789473684" y="312.0"/>
      <point x="434.88421052631577" y="141.6421052631579"/>
    </contour>
  </outline>
</glyph>
<glyph name="X" format="2">
  <advance width="1340.2105263157894"/>
  <unicode hex="0058"/>
  <outline>
    <contour>
      <point x="78.33684210526316" y="0.0" type="curve"/>
      <point x="239.0105263157895" y="0.0" type="line"/>
      <point x="322.8421052631579" y="130.33684210526314"/>
      <point x="394.46315789473687" y="240.46315789473684"/>
      <point x="469.36842105263156" y="354.2315789473684" type="curve"/>
      <point x="643.9578947368421" y="624.1894736842105" type="line"/>
      <point x="659.5368421052632" y="624.1894736842105" type="line"/>
      <point x="846.3368421052631" y="355.87368421052633" type="line"/>
      <point x="921.6" y="247.74736842105264"/>
      <point x="1003.4315789473684" y="130.33684210526314"/>
      <point x="1094.1894736842105" y="0.0" type="curve"/>
      <point x="1262.9473684210527" y="0.0" type="line"/>
      <point x="1157.0315789473684" y="150.0"/>
      <point x="1062.4" y="284.3578947368421"/>
      <point x="954.4842105263158" y="438.3578947368421" type="curve"/>
      <point x="736.6526315789474" y="749.0736842105263" type="line"/>
      <point x="736.6526315789474" y="699.6842105263158" type="line"/>
      <point x="947.5578947368421" y="1022.4842105263158" type="line"/>
      <point x="1023.2631578947369" y="1138.2736842105264"/>
      <point x="1114.2526315789473" y="1276.778947368421"/>
      <point x="1211.242105263158" y="1426.0" type="curve"/>
      <point x="1050.0" y="1426.0" type="line"/>
      <point x="965.8105263157895" y="1297.5157894736842"/>
      <point x="880.3368421052631" y="1166.463157894737"/>
      <point x="805.0736842105263" y="1049.9789473684211" type="curve"/>
      <point x="659.8315789473684" y="826.6526315789474" type="line"/>
      <point x="644.2526315789473" y="826.6526315789474" type="line"/>
      <point x="495.0105263157895" y="1048.3368421052633" type="line"/>
      <point x="417.7473684210526" y="1163.178947368421"/>
      <point x="331.5578947368421" y="1292.5894736842106"/>
      <point x="242.0842105263158" y="1426.0" type="curve"/>
      <point x="77.26315789473685" y="1426.0" type="line"/>
      <point x="186.82105263157894" y="1265.2842105263157"/>
      <point x="275.8105263157895" y="1132.2105263157894"/>
      <point x="366.4421052631579" y="999.4947368421052" type="curve"/>
      <point x="564.6315789473684" y="706.421052631579" type="line"/>
      <point x="564.6315789473684" y="752.9473684210526" type="line"/>
      <point x="338.58947368421053" y="403.36842105263156" type="line"/>
      <point x="244.31578947368422" y="257.57894736842104"/>
      <point x="161.32631578947368" y="127.78947368421052"/>
    </contour>
  </outline>
</glyph>
<glyph name="Y" format="2">
  <advance width="1288.0631578947368"/>
  <unicode hex="0059"/>
  <anchor x="645.7473684210527" y="0.0" name="bottom"/>
  <anchor x="645.7473684210527" y="1426.0" name="top"/>
  <anchor x="39.28421052631579" y="1426.0" name="topleft"/>
  <outline>
    <contour>
      <point x="578.8842105263158" y="572.0842105263158" type="line"/>
      <point x="712.2526315789473" y="572.0842105263158" type="line"/>
      <point x="1028.5894736842106" y="1090.9052631578948" type="line"/>
      <point x="1094.4421052631578" y="1198.4842105263158"/>
      <point x="1163.0105263157895" y="1312.421052631579"/>
      <point x="1232.5052631578947" y="1426.0" type="curve"/>
      <point x="1073.8315789473684" y="1426.0" type="line"/>
      <point x="956.0842105263158" y="1229.6"/>
      <point x="897.0315789473684" y="1130.4"/>
      <point x="799.7052631578947" y="969.4947368421052" type="curve"/>
      <point x="653.8947368421053" y="726.3157894736842" type="line"/>
      <point x="637.6" y="726.3157894736842" type="line"/>
      <point x="487.22105263157897" y="978.0631578947368" type="line"/>
      <point x="395.5368421052632" y="1132.042105263158"/>
      <point x="340.12631578947367" y="1227.6"/>
      <point x="220.73684210526318" y="1426.0" type="curve"/>
      <point x="58.8421052631579" y="1426.0" type="line"/>
      <point x="140.69473684210527" y="1294.0631578947368"/>
      <point x="196.90526315789475" y="1200.842105263158"/>
      <point x="263.4736842105263" y="1090.9052631578948" type="curve"/>
    </contour>
    <contour>
      <point x="575.4526315789474" y="0.0" type="curve"/>
      <point x="716.0421052631579" y="0.0" type="line"/>
      <point x="716.0421052631579" y="159.49473684210525"/>
      <point x="716.0421052631579" y="297.34736842105264"/>
      <point x="716.0421052631579" y="472.77894736842103" type="curve"/>
      <point x="716.0421052631579" y="688.8631578947368" type="line"/>
      <point x="575.4526315789474" y="688.8631578947368" type="line"/>
      <point x="575.4526315789474" y="472.77894736842103" type="line"/>
      <point x="575.4526315789474" y="297.34736842105264"/>
      <point x="575.4526315789474" y="159.49473684210525"/>
    </contour>
  </outline>
</glyph>
<glyph name="Z" format="2">
  <advance width="1334.1052631578948"/>
  <unicode hex="005A"/>
  <anchor x="667.8736842105263" y="0.0" name="bottom"/>
  <anchor x="667.8736842105263" y="714.0" name="center"/>
  <anchor x="667.8736842105263" y="1426.0" name="top"/>
  <outline>
    <contour>
      <point x="101.05263157894737" y="0.0" type="line"/>
      <point x="1224.842105263158" y="0.0" type="line"/>
      <point x="1224.842105263158" y="122.84210526315789" type="line"/>
      <point x="1057.221052631579" y="122.84210526315789"/>
      <point x="789.6842105263158" y="122.84210526315789"/>
      <point x="605.1368421052632" y="122.84210526315789" type="curve"/>
      <point x="220.7578947368421" y="122.84210526315789" type="line"/>
      <point x="248.0421052631579" y="55.09473684210526" type="line"/>
      <point x="841.7473684210527" y="828.5473684210526" type="line"/>
      <point x="965.5157894736842" y="990.7368421052631"/>
      <point x="1088.0" y="1152.9263157894736"/>
      <point x="1217.4105263157894" y="1320.757894736842" type="curve"/>
      <point x="1217.4105263157894" y="1426.0" type="line"/>
      <point x="115.5578947368421" y="1426.0" type="line"/>
      <point x="115.5578947368421" y="1303.157894736842" type="line"/>
      <point x="325.0315789473684" y="1303.157894736842"/>
      <point x="521.578947368421" y="1303.157894736842"/>
      <point x="695.2" y="1303.157894736842" type="curve"/>
      <point x="1116.1473684210525" y="1303.157894736842" type="line"/>
      <point x="1072.2947368421053" y="1357.7684210526315" type="line"/>
      <point x="513.7894736842105" y="624.8631578947368" type="line"/>
      <point x="390.58947368421053" y="462.88421052631577"/>
      <point x="214.96842105263158" y="236.1263157894737"/>
      <point x="101.05263157894737" y="85.43157894736842" type="curve"/>
    </contour>
  </outline>
</glyph>
<glyph name="bracketleft" format="2">
  <advance width="725.7894736842105"/>
  <unicode hex="005B"/>
  <outline>
    <contour>
      <point x="201.9578947368421" y="-230.44210526315788" type="curve"/>
      <point x="324.4421052631579" y="-230.44210526315788" type="line"/>
      <point x="324.4421052631579" y="-209.55789473684212" type="line"/>
      <point x="324.4421052631579" y="-50.06315789473684"/>
      <point x="324.4421052631579" y="87.78947368421052"/>
      <point x="324.4421052631579" y="263.22105263157897" type="curve"/>
      <point x="324.4421052631579" y="1032.6315789473683" type="line"/>
      <point x="324.4421052631579" y="1209.4947368421053"/>
      <point x="324.4421052631579" y="1348.421052631579"/>
      <point x="324.4421052631579" y="1508.9894736842105" type="curve"/>
      <point x="324.4421052631579" y="1528.2315789473685" type="line"/>
      <point x="201.9578947368421" y="1528.2315789473685" type="line"/>
      <point x="201.9578947368421" y="1367.6631578947367"/>
      <point x="201.9578947368421" y="1228.7368421052631"/>
      <point x="201.9578947368421" y="1051.8736842105263" type="curve"/>
      <point x="201.9578947368421" y="242.33684210526314" type="line"/>
      <point x="201.9578947368421" y="66.90526315789474"/>
      <point x="201.9578947368421" y="-70.94736842105263"/>
    </contour>
    <contour>
      <point x="305.2842105263158" y="-230.44210526315788" type="line"/>
      <point x="696.9894736842106" y="-230.44210526315788" type="line"/>
      <point x="696.9894736842106" y="-119.26315789473685" type="line"/>
      <point x="601.4947368421052" y="-119.26315789473685"/>
      <point x="500.7157894736842" y="-119.26315789473685"/>
      <point x="387.57894736842104" y="-119.26315789473685" type="curve"/>
      <point x="305.2842105263158" y="-119.26315789473685" type="line"/>
    </contour>
    <contour>
      <point x="299.5578947368421" y="1417.0526315789473" type="line"/>
      <point x="378.7157894736842" y="1417.0526315789473" type="line"/>
      <point x="515.1368421052632" y="1417.0526315789473"/>
      <point x="608.9894736842106" y="1417.0526315789473"/>
      <point x="696.8421052631579" y="1417.0526315789473" type="curve"/>
      <point x="696.8421052631579" y="1528.2315789473685" type="line"/>
      <point x="299.5578947368421" y="1528.2315789473685" type="line"/>
    </contour>
  </outline>
</glyph>
<glyph name="backslash" format="2">
  <advance width="885.3052631578947"/>
  <unicode hex="005C"/>
  <outline>
    <contour>
      <point x="689.2" y="0.0" type="curve"/>
      <point x="819.2631578947369" y="0.0" type="line"/>
      <point x="754.1263157894737" y="148.0"/>
      <point x="700.2736842105263" y="274.0"/>
      <point x="619.8526315789474" y="456.0" type="curve"/>
      <point x="403.1578947368421" y="952.0" type="line"/>
      <point x="320.7368421052632" y="1141.6421052631579"/>
      <point x="263.2421052631579" y="1272.0"/>
      <point x="196.10526315789474" y="1426.0" type="curve"/>
      <point x="66.0421052631579" y="1426.0" type="line"/>
      <point x="133.17894736842106" y="1272.0"/>
      <point x="190.67368421052632" y="1142.0"/>
      <point x="275.09473684210525" y="948.0" type="curve"/>
      <point x="489.7894736842105" y="456.0" type="line"/>
      <point x="570.2105263157895" y="274.0"/>
      <point x="624.0631578947368" y="148.0"/>
    </contour>
  </outline>
</glyph>
<glyph name="underscore" format="2">
  <advance width="788.6315789473684"/>
  <unicode hex="005F"/>
  <outline>
    <contour>
      <point x="-20.0" y="-218.94736842105263" type="line"/>
      <point x="102.08421052631579" y="-218.94736842105263"/>
      <point x="217.81052631578947" y="-218.94736842105263"/>
      <point x="317.17894736842106" y="-218.94736842105263" type="curve"/>
      <point x="471.4526315789474" y="-218.94736842105263" type="line"/>
      <point x="570.8210526315789" y="-218.94736842105263"/>
      <point x="686.5473684210526" y="-218.94736842105263"/>
      <point x="808.6315789473684" y="-218.94736842105263" type="curve"/>
      <point x="808.6315789473684" y="-109.26315789473685" type="line"/>
      <point x="686.5473684210526" y="-109.26315789473685"/>
      <point x="570.8210526315789" y="-109.26315789473685"/>
      <point x="471.4526315789474" y="-109.26315789473685" type="curve"/>
      <point x="317.17894736842106" y="-109.26315789473685" type="line"/>
      <point x="217.81052631578947" y="-109.26315789473685"/>
      <point x="102.08421052631579" y="-109.26315789473685"/>
      <point x="-20.0" y="-109.26315789473685" type="curve"/>
    </contour>
  </outline>
</glyph>
<glyph name="a" format="2">
  <advance width="1041.3793103448277"/>
  <unicode hex="0061"/>
  <anchor x="528.7816091954023" y="0.0" name="bottom"/>
  <anchor x="883.264367816092" y="0.0" name="ogonek"/>
  <anchor x="528.7816091954023" y="991.1264367816092" name="top"/>
  <outline>
    <contour>
      <point x="414.45977011494256" y="-19.563218390804597" type="curve" smooth="yes"/>
      <point x="560.4597701149426" y="-19.563218390804597"/>
      <point x="681.1724137931035" y="61.6551724137931"/>
      <point x="744.4827586206897" y="147.49425287356323" type="curve"/>
      <point x="759.6091954022988" y="147.49425287356323" type="line"/>
      <point x="765.0804597701149" y="0.0" type="line"/>
      <point x="883.264367816092" y="0.0" type="line"/>
      <point x="883.264367816092" y="109.1264367816092"/>
      <point x="883.264367816092" y="199.4712643678161"/>
      <point x="883.264367816092" y="286.5057471264368" type="curve"/>
      <point x="883.264367816092" y="422.0" type="line" smooth="yes"/>
      <point x="883.264367816092" y="509.3103448275862"/>
      <point x="883.264367816092" y="614.0919540229885"/>
      <point x="883.264367816092" y="675.6551724137931" type="curve" smooth="yes"/>
      <point x="883.264367816092" y="913.1264367816092"/>
      <point x="751.0114942528736" y="1012.6896551724138"/>
      <point x="538.2528735632184" y="1012.6896551724138" type="curve" smooth="yes"/>
      <point x="403.0574712643678" y="1012.6896551724138"/>
      <point x="254.367816091954" y="975.1264367816092"/>
      <point x="157.58620689655172" y="934.6896551724138" type="curve"/>
      <point x="165.9310344827586" y="813.1954022988506" type="line"/>
      <point x="310.8965517241379" y="874.4137931034483"/>
      <point x="422.8045977011494" y="897.1034482758621"/>
      <point x="514.8045977011494" y="897.1034482758621" type="curve" smooth="yes"/>
      <point x="653.7701149425287" y="897.1034482758621"/>
      <point x="767.264367816092" y="856.2298850574713"/>
      <point x="758.8275862068965" y="629.471264367816" type="curve"/>
      <point x="435.4942528735632" y="569.1954022988506" type="line" smooth="yes"/>
      <point x="288.8965517241379" y="542.7586206896551"/>
      <point x="114.80459770114942" y="476.0689655172414"/>
      <point x="114.80459770114942" y="262.5977011494253" type="curve" smooth="yes"/>
      <point x="114.80459770114942" y="88.8735632183908"/>
      <point x="231.83908045977012" y="-19.563218390804597"/>
    </contour>
    <contour>
      <point x="445.7241379310345" y="90.89655172413794" type="curve" smooth="yes"/>
      <point x="332.2988505747127" y="90.89655172413794"/>
      <point x="246.367816091954" y="139.95402298850576"/>
      <point x="246.367816091954" y="267.7241379310345" type="curve" smooth="yes"/>
      <point x="246.367816091954" y="393.58620689655174"/>
      <point x="343.88505747126436" y="450.02298850574715"/>
      <point x="470.4367816091954" y="473.3333333333333" type="curve" smooth="yes"/>
      <point x="671.4252873563219" y="509.8620689655172"/>
      <point x="722.3908045977012" y="527.1724137931035"/>
      <point x="756.4827586206897" y="545.1724137931035" type="curve"/>
      <point x="755.264367816092" y="303.1034482758621" type="line"/>
      <point x="685.4252873563219" y="158.11494252873564"/>
      <point x="560.0919540229885" y="90.89655172413794"/>
    </contour>
  </outline>
</glyph>
<glyph name="b" format="2">
  <advance width="1182.7157894736843"/>
  <unicode hex="0062"/>
  <outline>
    <contour>
      <point x="643.5578947368421" y="-20.50526315789474" type="curve" smooth="yes"/>
      <point x="930.1894736842105" y="-20.50526315789474"/>
      <point x="1073.7473684210527" y="220.7157894736842"/>
      <point x="1073.7473684210527" y="498.7157894736842" type="curve" smooth="yes"/>
      <point x="1073.7473684210527" y="793.4315789473684"/>
      <point x="913.978947368421" y="1013.0105263157894"/>
      <point x="639.9157894736842" y="1013.0105263157894" type="curve" smooth="yes"/>
      <point x="498.86315789473684" y="1013.0105263157894"/>
      <point x="385.8105263157895" y="947.4526315789474"/>
      <point x="329.2421052631579" y="877.5157894736842" type="curve"/>
      <point x="313.66315789473686" y="877.5157894736842" type="line"/>
      <point x="313.66315789473686" y="987.6421052631579" type="line"/>
      <point x="313.66315789473686" y="1161.578947368421"/>
      <point x="313.66315789473686" y="1319.7263157894736"/>
      <point x="313.66315789473686" y="1481.9368421052632" type="curve"/>
      <point x="184.94736842105263" y="1463.0736842105264" type="line"/>
      <point x="184.94736842105263" y="1315.1368421052632"/>
      <point x="184.94736842105263" y="1155.4947368421053"/>
      <point x="184.94736842105263" y="987.6421052631579" type="curve"/>
      <point x="184.94736842105263" y="439.13684210526316" type="line"/>
      <point x="184.94736842105263" y="276.06315789473683"/>
      <point x="184.94736842105263" y="147.85263157894738"/>
      <point x="184.94736842105263" y="0.0" type="curve"/>
      <point x="294.12631578947367" y="0.0" type="line"/>
      <point x="303.4315789473684" y="135.34736842105264" type="line"/>
      <point x="317.93684210526317" y="135.34736842105264" type="line"/>
      <point x="398.3578947368421" y="35.85263157894737"/>
      <point x="504.06315789473683" y="-20.50526315789474"/>
    </contour>
    <contour>
      <point x="610.9894736842106" y="98.25263157894736" type="curve"/>
      <point x="476.10526315789474" y="98.25263157894736"/>
      <point x="381.13684210526316" y="163.66315789473686"/>
      <point x="313.66315789473686" y="274.12631578947367" type="curve"/>
      <point x="313.66315789473686" y="742.2315789473685" type="line"/>
      <point x="382.2105263157895" y="842.6947368421053"/>
      <point x="492.3157894736842" y="893.1789473684211"/>
      <point x="607.7052631578947" y="893.1789473684211" type="curve"/>
      <point x="834.9894736842106" y="893.1789473684211"/>
      <point x="941.6" y="715.3684210526316"/>
      <point x="941.6" y="498.0" type="curve" smooth="yes"/>
      <point x="941.6" y="289.9157894736842"/>
      <point x="842.8421052631579" y="98.25263157894736"/>
    </contour>
  </outline>
</glyph>
<glyph name="c" format="2">
  <advance width="993.978947368421"/>
  <unicode hex="0063"/>
  <anchor x="574.2736842105263" y="0.0" name="bottom"/>
  <anchor x="559.4947368421052" y="990.8631578947368" name="top"/>
  <outline>
    <contour>
      <point x="605.4947368421052" y="-19.073684210526316" type="curve" smooth="yes"/>
      <point x="732.7157894736843" y="-19.073684210526316"/>
      <point x="834.5684210526316" y="12.989473684210527"/>
      <point x="898.7157894736843" y="48.48421052631579" type="curve"/>
      <point x="884.3578947368421" y="171.2421052631579" type="line"/>
      <point x="803.7263157894737" y="120.10526315789474"/>
      <point x="713.8105263157895" y="97.17894736842106"/>
      <point x="625.1789473684211" y="97.17894736842106" type="curve" smooth="yes"/>
      <point x="368.0210526315789" y="97.17894736842106"/>
      <point x="240.0421052631579" y="271.9157894736842"/>
      <point x="240.0421052631579" y="498.86315789473684" type="curve" smooth="yes"/>
      <point x="240.0421052631579" y="740.6526315789474"/>
      <point x="382.14736842105265" y="894.2526315789473"/>
      <point x="600.5894736842105" y="894.2526315789473" type="curve"/>
      <point x="676.1473684210526" y="894.2526315789473"/>
      <point x="770.2105263157895" y="878.0421052631579"/>
      <point x="881.2842105263157" y="813.6842105263158" type="curve"/>
      <point x="894.8631578947368" y="936.4421052631579" type="line"/>
      <point x="817.4315789473684" y="980.4421052631579"/>
      <point x="702.5684210526316" y="1012.6526315789474"/>
      <point x="587.1368421052632" y="1012.6526315789474" type="curve" smooth="yes"/>
      <point x="283.17894736842106" y="1012.6526315789474"/>
      <point x="108.25263157894737" y="789.9368421052632"/>
      <point x="108.25263157894737" y="496.3578947368421" type="curve" smooth="yes"/>
      <point x="108.25263157894737" y="204.77894736842106"/>
      <point x="286.90526315789475" y="-19.073684210526316"/>
    </contour>
  </outline>
</glyph>
<glyph name="e" format="2">
  <advance width="1055.2183908045977"/>
  <unicode hex="0065"/>
  <anchor x="572.528735632184" y="0.0" name="bottom"/>
  <anchor x="763.7931034482758" y="0.0" name="ogonek"/>
  <anchor x="556.4367816091954" y="991.1264367816092" name="top"/>
  <outline>
    <contour>
      <point x="619.5632183908046" y="-20.344827586206897" type="curve" smooth="yes"/>
      <point x="746.9425287356322" y="-20.344827586206897"/>
      <point x="862.5057471264367" y="6.436781609195402"/>
      <point x="938.5057471264367" y="49.310344827586206" type="curve"/>
      <point x="931.7241379310345" y="170.45977011494253" type="line"/>
      <point x="838.9425287356322" y="118.02298850574712"/>
      <point x="727.9080459770115" y="96.02298850574712"/>
      <point x="629.7241379310345" y="96.02298850574712" type="curve" smooth="yes"/>
      <point x="363.86206896551727" y="96.02298850574712"/>
      <point x="239.14942528735634" y="250.91954022988506"/>
      <point x="239.14942528735634" y="498.0" type="curve"/>
      <point x="239.14942528735634" y="514.5057471264367" type="line"/>
      <point x="239.14942528735634" y="740.8045977011494"/>
      <point x="359.51724137931035" y="902.5747126436781"/>
      <point x="562.8735632183908" y="902.5747126436781" type="curve"/>
      <point x="725.9540229885057" y="902.5747126436781"/>
      <point x="837.5402298850574" y="799.9540229885057"/>
      <point x="837.5402298850574" y="593.1264367816092" type="curve" smooth="yes"/>
      <point x="837.5402298850574" y="573.9080459770115"/>
      <point x="836.7586206896551" y="553.9080459770115"/>
      <point x="834.7586206896551" y="533.471264367816" type="curve"/>
      <point x="949.7241379310345" y="466.9655172413793" type="line"/>
      <point x="955.7241379310345" y="505.7471264367816"/>
      <point x="957.7241379310345" y="542.528735632184"/>
      <point x="957.7241379310345" y="590.8735632183908" type="curve" smooth="yes"/>
      <point x="957.7241379310345" y="861.816091954023"/>
      <point x="805.816091954023" y="1012.6896551724138"/>
      <point x="560.8735632183908" y="1012.6896551724138" type="curve" smooth="yes"/>
      <point x="282.45977011494256" y="1012.6896551724138"/>
      <point x="108.36781609195403" y="799.9080459770115"/>
      <point x="108.36781609195403" y="502.0" type="curve" smooth="yes"/>
      <point x="108.36781609195403" y="199.6551724137931"/>
      <point x="271.9310344827586" y="-20.344827586206897"/>
    </contour>
    <contour>
      <point x="164.5977011494253" y="466.9655172413793" type="line"/>
      <point x="949.7241379310345" y="466.9655172413793" type="line"/>
      <point x="949.7241379310345" y="546.9425287356322" type="line"/>
      <point x="868.2068965517242" y="570.735632183908" type="line"/>
      <point x="164.5977011494253" y="566.8275862068965" type="line"/>
    </contour>
  </outline>
</glyph>
<glyph name="g" format="2">
  <advance width="1079.816091954023"/>
  <unicode hex="0067"/>
  <anchor x="536.6896551724138" y="-384.0" name="bottom"/>
  <anchor x="515.9770114942529" y="991.1264367816092" name="top"/>
  <outline>
    <contour>
      <point x="490.0919540229885" y="-405.5632183908046" type="curve" smooth="yes"/>
      <point x="716.1609195402299" y="-405.5632183908046"/>
      <point x="980.2298850574713" y="-294.6896551724138"/>
      <point x="980.2298850574713" y="-74.80459770114942" type="curve" smooth="yes"/>
      <point x="980.2298850574713" y="82.39080459770115"/>
      <point x="865.3793103448276" y="142.82758620689657"/>
      <point x="583.1034482758621" y="142.82758620689657" type="curve" smooth="yes"/>
      <point x="538.6666666666666" y="142.82758620689657" type="line" smooth="yes"/>
      <point x="383.08045977011494" y="142.82758620689657"/>
      <point x="321.7701149425287" y="162.13793103448276"/>
      <point x="321.7701149425287" y="226.8505747126437" type="curve" smooth="yes"/>
      <point x="321.7701149425287" y="288.7816091954023"/>
      <point x="389.51724137931035" y="310.8735632183908"/>
      <point x="539.1034482758621" y="346.18390804597703" type="curve" smooth="yes"/>
      <point x="736.8505747126437" y="391.8390804597701"/>
      <point x="861.8850574712644" y="486.9655172413793"/>
      <point x="861.8850574712644" y="681.6551724137931" type="curve" smooth="yes"/>
      <point x="861.8850574712644" y="796.8735632183908"/>
      <point x="810.5747126436781" y="896.6206896551724"/>
      <point x="684.9885057471264" y="953.8390804597701" type="curve"/>
      <point x="646.5747126436781" y="890.9195402298851" type="line"/>
      <point x="775.8850574712644" y="890.9195402298851"/>
      <point x="902.8505747126437" y="890.9195402298851"/>
      <point x="1036.942528735632" y="890.9195402298851" type="curve"/>
      <point x="1036.942528735632" y="991.9080459770115" type="line"/>
      <point x="718.9195402298851" y="991.9080459770115" type="line" smooth="yes"/>
      <point x="614.4137931034483" y="991.9080459770115"/>
      <point x="572.5057471264367" y="1012.6896551724138"/>
      <point x="481.9080459770115" y="1012.6896551724138" type="curve" smooth="yes"/>
      <point x="259.3333333333333" y="1012.6896551724138"/>
      <point x="104.36781609195403" y="885.6551724137931"/>
      <point x="104.36781609195403" y="690.7816091954023" type="curve" smooth="yes"/>
      <point x="104.36781609195403" y="486.5977011494253"/>
      <point x="269.95402298850576" y="397.37931034482756"/>
      <point x="326.55172413793105" y="377.1264367816092" type="curve"/>
      <point x="326.55172413793105" y="364.0" type="line"/>
      <point x="243.77011494252872" y="332.0919540229885"/>
      <point x="198.80459770114942" y="281.4022988505747"/>
      <point x="198.80459770114942" y="208.09195402298852" type="curve" smooth="yes"/>
      <point x="198.80459770114942" y="116.52873563218391"/>
      <point x="268.8045977011494" y="75.74712643678161"/>
      <point x="303.67816091954023" y="65.74712643678161" type="curve"/>
      <point x="303.67816091954023" y="52.62068965517241" type="line"/>
      <point x="233.9310344827586" y="32.62068965517241"/>
      <point x="112.27586206896552" y="-34.689655172413794"/>
      <point x="112.27586206896552" y="-169.90804597701148" type="curve" smooth="yes"/>
      <point x="112.27586206896552" y="-283.4712643678161"/>
      <point x="196.183908045977" y="-405.5632183908046"/>
    </contour>
    <contour>
      <point x="497.81609195402297" y="-295.44827586206895" type="curve"/>
      <point x="297.7701149425287" y="-295.44827586206895"/>
      <point x="233.67816091954023" y="-224.39080459770116"/>
      <point x="233.67816091954023" y="-146.02298850574712" type="curve" smooth="yes"/>
      <point x="233.67816091954023" y="-39.03448275862069"/>
      <point x="378.1379310344828" y="29.241379310344826"/>
      <point x="520.4367816091954" y="30.804597701149426" type="curve"/>
      <point x="559.3103448275862" y="30.804597701149426" type="line" smooth="yes"/>
      <point x="800.735632183908" y="30.804597701149426"/>
      <point x="855.7011494252873" y="-6.850574712643679"/>
      <point x="855.7011494252873" y="-92.8735632183908" type="curve" smooth="yes"/>
      <point x="855.7011494252873" y="-176.64367816091954"/>
      <point x="733.6781609195402" y="-295.44827586206895"/>
    </contour>
    <contour>
      <point x="469.0344827586207" y="438.2988505747127" type="curve"/>
      <point x="348.2298850574713" y="455.51724137931035"/>
      <point x="227.33333333333334" y="533.7931034482758"/>
      <point x="227.33333333333334" y="682.9655172413793" type="curve" smooth="yes"/>
      <point x="227.33333333333334" y="830.4827586206897"/>
      <point x="346.91954022988506" y="898.6666666666666"/>
      <point x="484.0" y="898.6666666666666" type="curve"/>
      <point x="591.8390804597701" y="898.6666666666666"/>
      <point x="738.9195402298851" y="834.4827586206897"/>
      <point x="738.9195402298851" y="674.6206896551724" type="curve" smooth="yes"/>
      <point x="738.9195402298851" y="500.48275862068965"/>
      <point x="578.7126436781609" y="459.264367816092"/>
    </contour>
  </outline>
</glyph>
<glyph name="k" format="2">
  <advance width="1066.9263157894736"/>
  <unicode hex="006B"/>
  <anchor x="548.8842105263158" y="0.0" name="bottom"/>
  <anchor x="548.8842105263158" y="1449.578947368421" name="top"/>
  <outline>
    <contour>
      <point x="847.2842105263157" y="0.0" type="curve"/>
      <point x="1022.5894736842105" y="0.0" type="line"/>
      <point x="896.4" y="116.14736842105263"/>
      <point x="768.2105263157895" y="231.01052631578946"/>
      <point x="642.021052631579" y="347.1578947368421" type="curve"/>
      <point x="434.1894736842105" y="540.1894736842105" type="line"/>
      <point x="438.12631578947367" y="474.9894736842105" type="line"/>
      <point x="617.0947368421052" y="643.8526315789474" type="line"/>
      <point x="740.7157894736843" y="759.6421052631579"/>
      <point x="862.3368421052631" y="875.0736842105263"/>
      <point x="985.9578947368421" y="990.8631578947368" type="curve"/>
      <point x="820.2315789473685" y="990.8631578947368" type="line"/>
      <point x="721.2631578947369" y="896.0842105263158"/>
      <point x="620.6526315789474" y="800.021052631579"/>
      <point x="521.6842105263158" y="705.2421052631579" type="curve"/>
      <point x="360.0210526315789" y="550.6105263157895" type="line"/>
      <point x="296.4421052631579" y="550.6105263157895" type="line"/>
      <point x="296.4421052631579" y="453.8105263157895" type="line"/>
      <point x="348.5263157894737" y="453.8105263157895" type="line"/>
      <point x="542.6736842105263" y="280.0421052631579" type="line"/>
      <point x="644.2105263157895" y="186.69473684210527"/>
      <point x="745.7473684210527" y="93.34736842105264"/>
    </contour>
    <contour>
      <point x="184.94736842105263" y="0.0" type="curve"/>
      <point x="313.66315789473686" y="0.0" type="line"/>
      <point x="313.66315789473686" y="143.55789473684212"/>
      <point x="313.66315789473686" y="268.1894736842105"/>
      <point x="313.66315789473686" y="422.3157894736842" type="curve"/>
      <point x="313.66315789473686" y="987.6421052631579" type="line"/>
      <point x="313.66315789473686" y="1161.578947368421"/>
      <point x="313.66315789473686" y="1321.3684210526317"/>
      <point x="313.66315789473686" y="1481.9368421052632" type="curve"/>
      <point x="184.94736842105263" y="1463.0736842105264" type="line"/>
      <point x="184.94736842105263" y="1313.4947368421053"/>
      <point x="184.94736842105263" y="1155.4947368421053"/>
      <point x="184.94736842105263" y="987.6421052631579" type="curve"/>
      <point x="184.94736842105263" y="439.13684210526316" type="line"/>
      <point x="184.94736842105263" y="276.06315789473683"/>
      <point x="184.94736842105263" y="147.85263157894738"/>
    </contour>
  </outline>
</glyph>
<glyph name="l" format="2">
  <advance width="498.61052631578946"/>
  <unicode hex="006C"/>
  <anchor x="249.30526315789473" y="0.0" name="bottom"/>
  <anchor x="251.09473684210525" y="818.0" name="center"/>
  <anchor x="249.30526315789473" y="1449.578947368421" name="top"/>
  <anchor x="417.34736842105264" y="990.8631578947368" name="topright"/>
  <outline>
    <contour>
      <point x="184.94736842105263" y="0.0" type="curve"/>
      <point x="313.66315789473686" y="0.0" type="line"/>
      <point x="313.66315789473686" y="147.85263157894738"/>
      <point x="313.66315789473686" y="276.06315789473683"/>
      <point x="313.66315789473686" y="439.13684210526316" type="curve"/>
      <point x="313.66315789473686" y="987.6421052631579" type="line"/>
      <point x="313.66315789473686" y="1161.578947368421"/>
      <point x="313.66315789473686" y="1319.7263157894736"/>
      <point x="313.66315789473686" y="1481.9368421052632" type="curve"/>
      <point x="184.94736842105263" y="1463.0736842105264" type="line"/>
      <point x="184.94736842105263" y="1315.1368421052632"/>
      <point x="184.94736842105263" y="1155.4947368421053"/>
      <point x="184.94736842105263" y="987.6421052631579" type="curve"/>
      <point x="184.94736842105263" y="439.13684210526316" type="line"/>
      <point x="184.94736842105263" y="276.06315789473683"/>
      <point x="184.94736842105263" y="147.85263157894738"/>
    </contour>
  </outline>
</glyph>
<glyph name="m" format="2">
  <advance width="1744.3578947368421"/>
  <unicode hex="006D"/>
  <anchor x="889.4947368421052" y="0.0" name="bottom"/>
  <anchor x="889.4947368421052" y="990.8631578947368" name="top"/>
  <outline>
    <contour>
      <point x="184.94736842105263" y="0.0" type="curve"/>
      <point x="313.66315789473686" y="0.0" type="line"/>
      <point x="313.66315789473686" y="147.85263157894738"/>
      <point x="313.66315789473686" y="276.06315789473683"/>
      <point x="313.66315789473686" y="434.4842105263158" type="curve"/>
      <point x="313.66315789473686" y="670.6736842105263" type="line"/>
      <point x="387.85263157894735" y="787.7052631578947"/>
      <point x="485.17894736842106" y="888.8842105263158"/>
      <point x="623.9157894736842" y="888.8842105263158" type="curve" smooth="yes"/>
      <point x="776.2947368421053" y="888.8842105263158"/>
      <point x="825.1368421052632" y="800.3368421052631"/>
      <point x="825.1368421052632" y="630.1684210526316" type="curve"/>
      <point x="825.1368421052632" y="434.4842105263158" type="line"/>
      <point x="825.1368421052632" y="282.63157894736844"/>
      <point x="825.1368421052632" y="147.85263157894738"/>
      <point x="825.1368421052632" y="0.0" type="curve"/>
      <point x="953.8526315789474" y="0.0" type="line"/>
      <point x="953.8526315789474" y="147.85263157894738"/>
      <point x="953.8526315789474" y="282.63157894736844"/>
      <point x="953.8526315789474" y="439.13684210526316" type="curve"/>
      <point x="953.8526315789474" y="516.5684210526316"/>
      <point x="953.8526315789474" y="571.0105263157894"/>
      <point x="953.8526315789474" y="657.7263157894737" type="curve" smooth="yes"/>
      <point x="953.8526315789474" y="698.2315789473685"/>
      <point x="951.1368421052632" y="734.378947368421"/>
      <point x="946.0631578947368" y="769.8105263157895" type="curve"/>
      <point x="938.6947368421053" y="776.378947368421" type="line"/>
      <point x="913.2631578947369" y="928.8"/>
      <point x="828.6947368421053" y="1013.0105263157894"/>
      <point x="663.3473684210526" y="1013.0105263157894" type="curve" smooth="yes"/>
      <point x="492.5052631578947" y="1013.0105263157894"/>
      <point x="380.0842105263158" y="900.6736842105263"/>
      <point x="319.57894736842104" y="814.378947368421" type="curve"/>
      <point x="303.6421052631579" y="814.378947368421" type="line"/>
      <point x="300.06315789473683" y="999.3684210526316" type="line"/>
      <point x="184.94736842105263" y="990.8631578947368" type="line"/>
      <point x="184.94736842105263" y="839.6421052631579"/>
      <point x="184.94736842105263" y="684.0"/>
      <point x="184.94736842105263" y="539.1368421052632" type="curve"/>
      <point x="184.94736842105263" y="439.13684210526316" type="line"/>
      <point x="184.94736842105263" y="276.06315789473683"/>
      <point x="184.94736842105263" y="147.85263157894738"/>
    </contour>
    <contour>
      <point x="1457.1157894736841" y="0.0" type="curve"/>
      <point x="1585.8315789473684" y="0.0" type="line"/>
      <point x="1585.8315789473684" y="147.85263157894738"/>
      <point x="1585.8315789473684" y="282.63157894736844"/>
      <point x="1585.8315789473684" y="439.13684210526316" type="curve"/>
      <point x="1585.8315789473684" y="516.5684210526316"/>
      <point x="1585.8315789473684" y="571.0105263157894"/>
      <point x="1585.8315789473684" y="657.7263157894737" type="curve" smooth="yes"/>
      <point x="1585.8315789473684" y="880.9473684210526"/>
      <point x="1506.3157894736842" y="1013.0105263157894"/>
      <point x="1295.6842105263158" y="1013.0105263157894" type="curve" smooth="yes"/>
      <point x="1123.7684210526315" y="1013.0105263157894"/>
      <point x="1010.2736842105263" y="900.6736842105263"/>
      <point x="942.8421052631579" y="809.4526315789474" type="curve"/>
      <point x="926.9052631578948" y="809.4526315789474" type="line"/>
      <point x="945.2842105263157" y="670.6736842105263" type="line"/>
      <point x="1018.1894736842105" y="790.9894736842106"/>
      <point x="1117.157894736842" y="888.8842105263158"/>
      <point x="1255.8947368421052" y="888.8842105263158" type="curve" smooth="yes"/>
      <point x="1408.2736842105264" y="888.8842105263158"/>
      <point x="1457.1157894736841" y="800.3368421052631"/>
      <point x="1457.1157894736841" y="630.1684210526316" type="curve"/>
      <point x="1457.1157894736841" y="434.4842105263158" type="line"/>
      <point x="1457.1157894736841" y="282.63157894736844"/>
      <point x="1457.1157894736841" y="147.85263157894738"/>
    </contour>
  </outline>
</glyph>
<glyph name="n" format="2">
  <advance width="1143.3684210526317"/>
  <unicode hex="006E"/>
  <anchor x="586.3578947368421" y="0.0" name="bottom"/>
  <anchor x="586.3578947368421" y="990.8631578947368" name="top"/>
  <outline>
    <contour>
      <point x="184.94736842105263" y="0.0" type="curve"/>
      <point x="313.66315789473686" y="0.0" type="line"/>
      <point x="313.66315789473686" y="147.85263157894738"/>
      <point x="313.66315789473686" y="276.06315789473683"/>
      <point x="313.66315789473686" y="434.4842105263158" type="curve"/>
      <point x="313.66315789473686" y="670.6736842105263" type="line"/>
      <point x="391.4947368421053" y="790.9894736842106"/>
      <point x="495.38947368421054" y="888.8842105263158"/>
      <point x="642.6947368421053" y="888.8842105263158" type="curve" smooth="yes"/>
      <point x="804.0" y="888.8842105263158"/>
      <point x="856.1263157894737" y="800.3368421052631"/>
      <point x="856.1263157894737" y="630.1684210526316" type="curve"/>
      <point x="856.1263157894737" y="434.4842105263158" type="line"/>
      <point x="856.1263157894737" y="282.63157894736844"/>
      <point x="856.1263157894737" y="147.85263157894738"/>
      <point x="856.1263157894737" y="0.0" type="curve"/>
      <point x="984.8421052631579" y="0.0" type="line"/>
      <point x="984.8421052631579" y="147.85263157894738"/>
      <point x="984.8421052631579" y="282.63157894736844"/>
      <point x="984.8421052631579" y="439.13684210526316" type="curve"/>
      <point x="984.8421052631579" y="516.5684210526316"/>
      <point x="984.8421052631579" y="571.0105263157894"/>
      <point x="984.8421052631579" y="657.7263157894737" type="curve" smooth="yes"/>
      <point x="984.8421052631579" y="887.5157894736842"/>
      <point x="895.1157894736842" y="1013.0105263157894"/>
      <point x="680.8421052631579" y="1013.0105263157894" type="curve" smooth="yes"/>
      <point x="501.0736842105263" y="1013.0105263157894"/>
      <point x="381.7263157894737" y="900.6736842105263"/>
      <point x="319.57894736842104" y="812.7368421052631" type="curve"/>
      <point x="303.6421052631579" y="812.7368421052631" type="line"/>
      <point x="300.06315789473683" y="999.3684210526316" type="line"/>
      <point x="184.94736842105263" y="990.8631578947368" type="line"/>
      <point x="184.94736842105263" y="839.6421052631579"/>
      <point x="184.94736842105263" y="684.0"/>
      <point x="184.94736842105263" y="539.1368421052632" type="curve"/>
      <point x="184.94736842105263" y="439.13684210526316" type="line"/>
      <point x="184.94736842105263" y="276.06315789473683"/>
      <point x="184.94736842105263" y="147.85263157894738"/>
    </contour>
  </outline>
</glyph>
<glyph name="o" format="2">
  <advance width="1194.3578947368421"/>
  <unicode hex="006F"/>
  <anchor x="596.3578947368421" y="0.0" name="bottom"/>
  <anchor x="596.3578947368421" y="495.4315789473684" name="center"/>
  <anchor x="741.0315789473684" y="0.0" name="ogonek"/>
  <anchor x="596.3578947368421" y="990.8631578947368" name="top"/>
  <anchor x="1068.842105263158" y="990.8631578947368" name="topright"/>
  <outline>
    <contour>
      <point x="600.7157894736843" y="-20.50526315789474" type="curve" smooth="yes"/>
      <point x="897.7473684210527" y="-20.50526315789474"/>
      <point x="1086.1052631578948" y="208.77894736842106"/>
      <point x="1086.1052631578948" y="502.0" type="curve" smooth="yes"/>
      <point x="1086.1052631578948" y="791.7894736842105"/>
      <point x="905.5368421052632" y="1013.0105263157894"/>
      <point x="598.9263157894737" y="1013.0105263157894" type="curve" smooth="yes"/>
      <point x="300.6736842105263" y="1013.0105263157894"/>
      <point x="108.25263157894737" y="798.7157894736843"/>
      <point x="108.25263157894737" y="502.0" type="curve" smooth="yes"/>
      <point x="108.25263157894737" y="225.2842105263158"/>
      <point x="283.7473684210526" y="-20.50526315789474"/>
    </contour>
    <contour>
      <point x="600.3578947368421" y="95.38947368421053" type="curve"/>
      <point x="359.22105263157897" y="95.38947368421053"/>
      <point x="240.0421052631579" y="292.69473684210527"/>
      <point x="240.0421052631579" y="502.0" type="curve" smooth="yes"/>
      <point x="240.0421052631579" y="722.5894736842105"/>
      <point x="365.4315789473684" y="897.1157894736842"/>
      <point x="600.0" y="897.1157894736842" type="curve"/>
      <point x="817.6421052631579" y="897.1157894736842"/>
      <point x="954.3157894736842" y="738.9473684210526"/>
      <point x="954.3157894736842" y="502.0" type="curve" smooth="yes"/>
      <point x="954.3157894736842" y="292.69473684210527"/>
      <point x="838.2105263157895" y="95.38947368421053"/>
    </contour>
  </outline>
</glyph>
<glyph name="p" format="2">
  <advance width="1182.7157894736843"/>
  <unicode hex="0070"/>
  <outline>
    <contour>
      <point x="184.94736842105263" y="-389.4315789473684" type="curve"/>
      <point x="313.66315789473686" y="-384.0" type="line"/>
      <point x="313.66315789473686" y="-236.14736842105262"/>
      <point x="313.66315789473686" y="-107.93684210526315"/>
      <point x="313.66315789473686" y="50.48421052631579" type="curve"/>
      <point x="313.66315789473686" y="129.41052631578947" type="line"/>
      <point x="327.4526315789474" y="129.41052631578947" type="line"/>
      <point x="404.4421052631579" y="34.06315789473684"/>
      <point x="507.6421052631579" y="-20.50526315789474"/>
      <point x="643.5578947368421" y="-20.50526315789474" type="curve" smooth="yes"/>
      <point x="930.1894736842105" y="-20.50526315789474"/>
      <point x="1073.7473684210527" y="220.7157894736842"/>
      <point x="1073.7473684210527" y="498.7157894736842" type="curve" smooth="yes"/>
      <point x="1073.7473684210527" y="793.4315789473684"/>
      <point x="913.978947368421" y="1013.0105263157894"/>
      <point x="639.9157894736842" y="1013.0105263157894" type="curve" smooth="yes"/>
      <point x="495.6421052631579" y="1013.0105263157894"/>
      <point x="380.4421052631579" y="945.6631578947369"/>
      <point x="322.0842105263158" y="871.7894736842105" type="curve"/>
      <point x="306.5052631578947" y="871.7894736842105" type="line"/>
      <point x="304.0" y="999.3684210526316" type="line"/>
      <point x="184.94736842105263" y="990.8631578947368" type="line"/>
      <point x="184.94736842105263" y="839.6421052631579"/>
      <point x="184.94736842105263" y="684.0"/>
      <point x="184.94736842105263" y="539.1368421052632" type="curve"/>
      <point x="184.94736842105263" y="55.136842105263156" type="line"/>
      <point x="184.94736842105263" y="-107.93684210526315"/>
      <point x="184.94736842105263" y="-241.57894736842104"/>
    </contour>
    <contour>
      <point x="610.9894736842106" y="98.25263157894736" type="curve"/>
      <point x="476.10526315789474" y="98.25263157894736"/>
      <point x="381.13684210526316" y="163.66315789473686"/>
      <point x="313.66315789473686" y="274.12631578947367" type="curve"/>
      <point x="313.66315789473686" y="742.2315789473685" type="line"/>
      <point x="382.2105263157895" y="842.6947368421053"/>
      <point x="492.3157894736842" y="893.1789473684211"/>
      <point x="607.7052631578947" y="893.1789473684211" type="curve"/>
      <point x="834.9894736842106" y="893.1789473684211"/>
      <point x="941.6" y="715.3684210526316"/>
      <point x="941.6" y="498.0" type="curve" smooth="yes"/>
      <point x="941.6" y="289.9157894736842"/>
      <point x="842.8421052631579" y="98.25263157894736"/>
    </contour>
  </outline>
</glyph>
<glyph name="q" format="2">
  <advance width="1164.5052631578947"/>
  <unicode hex="0071"/>
  <outline>
    <contour>
      <point x="869.0526315789474" y="-389.4315789473684" type="curve"/>
      <point x="997.7684210526315" y="-384.0" type="line"/>
      <point x="997.7684210526315" y="-236.14736842105262"/>
      <point x="997.7684210526315" y="-107.93684210526315"/>
      <point x="997.7684210526315" y="55.136842105263156" type="curve"/>
      <point x="997.7684210526315" y="539.1368421052632" type="line"/>
      <point x="997.7684210526315" y="703.1368421052632"/>
      <point x="997.7684210526315" y="843.7894736842105"/>
      <point x="997.7684210526315" y="999.3684210526316" type="curve"/>
      <point x="878.7157894736843" y="990.8631578947368" type="line"/>
      <point x="876.2105263157895" y="871.7894736842105" type="line"/>
      <point x="860.6315789473684" y="871.7894736842105" type="line"/>
      <point x="800.6315789473684" y="947.3052631578947"/>
      <point x="687.0736842105263" y="1013.0105263157894"/>
      <point x="542.8" y="1013.0105263157894" type="curve" smooth="yes"/>
      <point x="268.7368421052632" y="1013.0105263157894"/>
      <point x="108.96842105263158" y="793.4315789473684"/>
      <point x="108.96842105263158" y="498.7157894736842" type="curve" smooth="yes"/>
      <point x="108.96842105263158" y="220.7157894736842"/>
      <point x="252.5263157894737" y="-20.50526315789474"/>
      <point x="539.1578947368421" y="-20.50526315789474" type="curve" smooth="yes"/>
      <point x="675.0736842105263" y="-20.50526315789474"/>
      <point x="776.6315789473684" y="34.06315789473684"/>
      <point x="855.2631578947369" y="131.05263157894737" type="curve"/>
      <point x="869.0526315789474" y="131.05263157894737" type="line"/>
      <point x="869.0526315789474" y="50.48421052631579" type="line"/>
      <point x="869.0526315789474" y="-107.93684210526315"/>
      <point x="869.0526315789474" y="-241.57894736842104"/>
    </contour>
    <contour>
      <point x="571.7263157894737" y="98.25263157894736" type="curve"/>
      <point x="339.87368421052633" y="98.25263157894736"/>
      <point x="241.1157894736842" y="289.9157894736842"/>
      <point x="241.1157894736842" y="498.0" type="curve" smooth="yes"/>
      <point x="241.1157894736842" y="715.3684210526316"/>
      <point x="347.7263157894737" y="893.1789473684211"/>
      <point x="575.0105263157894" y="893.1789473684211" type="curve"/>
      <point x="690.4" y="893.1789473684211"/>
      <point x="800.5052631578948" y="842.6947368421053"/>
      <point x="869.0526315789474" y="742.2315789473685" type="curve"/>
      <point x="869.0526315789474" y="274.12631578947367" type="line"/>
      <point x="801.578947368421" y="163.66315789473686"/>
      <point x="706.6105263157895" y="98.25263157894736"/>
    </contour>
  </outline>
</glyph>
<glyph name="r" format="2">
  <advance width="791.6"/>
  <unicode hex="0072"/>
  <anchor x="249.30526315789473" y="0.0" name="bottom"/>
  <anchor x="465.7894736842105" y="990.8631578947368" name="top"/>
  <outline>
    <contour>
      <point x="184.94736842105263" y="0.0" type="curve"/>
      <point x="313.66315789473686" y="0.0" type="line"/>
      <point x="313.66315789473686" y="147.85263157894738"/>
      <point x="313.66315789473686" y="276.06315789473683"/>
      <point x="313.66315789473686" y="434.4842105263158" type="curve"/>
      <point x="313.66315789473686" y="591.4736842105264" type="line"/>
      <point x="393.13684210526316" y="851.7263157894737"/>
      <point x="533.3052631578947" y="880.6526315789474"/>
      <point x="610.2315789473685" y="880.6526315789474" type="curve" smooth="yes"/>
      <point x="656.5894736842105" y="880.6526315789474"/>
      <point x="685.8105263157895" y="874.0842105263158"/>
      <point x="727.7473684210527" y="864.2315789473685" type="curve"/>
      <point x="739.4736842105264" y="996.2947368421053" type="line"/>
      <point x="705.4736842105264" y="1007.3684210526316"/>
      <point x="668.0421052631579" y="1013.0105263157894"/>
      <point x="629.621052631579" y="1013.0105263157894" type="curve" smooth="yes"/>
      <point x="537.0526315789474" y="1013.0105263157894"/>
      <point x="400.14736842105265" y="979.0105263157894"/>
      <point x="317.93684210526317" y="791.3894736842105" type="curve"/>
      <point x="303.6421052631579" y="791.3894736842105" type="line"/>
      <point x="300.06315789473683" y="999.3684210526316" type="line"/>
      <point x="184.94736842105263" y="990.8631578947368" type="line"/>
      <point x="184.94736842105263" y="839.6421052631579"/>
      <point x="184.94736842105263" y="684.0"/>
      <point x="184.94736842105263" y="539.1368421052632" type="curve"/>
      <point x="184.94736842105263" y="439.13684210526316" type="line"/>
      <point x="184.94736842105263" y="276.06315789473683"/>
      <point x="184.94736842105263" y="147.85263157894738"/>
    </contour>
  </outline>
</glyph>
<glyph name="s" format="2">
  <advance width="903.7241379310345"/>
  <unicode hex="0073"/>
  <anchor x="451.81609195402297" y="0.0" name="bottom"/>
  <anchor x="451.81609195402297" y="991.1264367816092" name="top"/>
  <outline>
    <contour>
      <point x="454.0919540229885" y="-20.344827586206897" type="curve" smooth="yes"/>
      <point x="701.5402298850574" y="-20.344827586206897"/>
      <point x="805.3563218390805" y="109.65517241379311"/>
      <point x="805.3563218390805" y="274.0689655172414" type="curve" smooth="yes"/>
      <point x="805.3563218390805" y="451.97701149425285"/>
      <point x="681.5172413793103" y="498.7586206896552"/>
      <point x="488.91954022988506" y="555.5402298850574" type="curve" smooth="yes"/>
      <point x="317.51724137931035" y="605.6321839080459"/>
      <point x="261.14942528735634" y="644.1609195402299"/>
      <point x="261.14942528735634" y="737.0574712643678" type="curve" smooth="yes"/>
      <point x="261.14942528735634" y="869.1034482758621"/>
      <point x="371.88505747126436" y="897.1034482758621"/>
      <point x="456.41379310344826" y="897.1034482758621" type="curve"/>
      <point x="529.2873563218391" y="897.1034482758621"/>
      <point x="634.1379310344828" y="874.4137931034483"/>
      <point x="732.2298850574713" y="811.5402298850574" type="curve"/>
      <point x="744.1379310344828" y="937.0344827586207" type="line"/>
      <point x="673.3563218390805" y="977.9080459770115"/>
      <point x="561.1954022988506" y="1012.6896551724138"/>
      <point x="444.6896551724138" y="1012.6896551724138" type="curve" smooth="yes"/>
      <point x="250.9655172413793" y="1012.6896551724138"/>
      <point x="128.80459770114942" y="903.5632183908046"/>
      <point x="128.80459770114942" y="733.5862068965517" type="curve" smooth="yes"/>
      <point x="128.80459770114942" y="562.551724137931"/>
      <point x="250.64367816091954" y="502.64367816091954"/>
      <point x="402.8045977011494" y="458.64367816091954" type="curve" smooth="yes"/>
      <point x="606.0459770114943" y="399.2413793103448"/>
      <point x="673.7931034482758" y="367.4942528735632"/>
      <point x="673.7931034482758" y="273.0344827586207" type="curve" smooth="yes"/>
      <point x="673.7931034482758" y="129.51724137931035"/>
      <point x="572.2068965517242" y="95.24137931034483"/>
      <point x="451.7471264367816" y="95.24137931034483" type="curve"/>
      <point x="336.9655172413793" y="95.24137931034483"/>
      <point x="224.27586206896552" y="128.02298850574712"/>
      <point x="133.05747126436782" y="180.02298850574712" type="curve"/>
      <point x="120.71264367816092" y="55.747126436781606" type="line"/>
      <point x="203.49425287356323" y="12.091954022988507"/>
      <point x="334.71264367816093" y="-20.344827586206897"/>
    </contour>
  </outline>
</glyph>
<glyph name="u" format="2">
  <advance width="1110.5263157894738"/>
  <unicode hex="0075"/>
  <anchor x="555.3684210526316" y="0.0" name="bottom"/>
  <anchor x="950.2105263157895" y="0.0" name="ogonek"/>
  <anchor x="555.3684210526316" y="990.8631578947368" name="top"/>
  <anchor x="1056.4" y="990.8631578947368" name="topright"/>
  <outline>
    <contour>
      <point x="462.5263157894737" y="-20.50526315789474" type="curve" smooth="yes"/>
      <point x="634.0842105263158" y="-20.50526315789474"/>
      <point x="753.4315789473684" y="91.83157894736843"/>
      <point x="815.578947368421" y="179.76842105263157" type="curve"/>
      <point x="831.5157894736842" y="179.76842105263157" type="line"/>
      <point x="835.0947368421052" y="0.0" type="line"/>
      <point x="950.2105263157895" y="0.0" type="line"/>
      <point x="950.2105263157895" y="147.85263157894738"/>
      <point x="950.2105263157895" y="276.06315789473683"/>
      <point x="950.2105263157895" y="439.13684210526316" type="curve"/>
      <point x="950.2105263157895" y="542.7157894736843" type="line"/>
      <point x="950.2105263157895" y="711.5157894736842"/>
      <point x="950.2105263157895" y="843.0105263157894"/>
      <point x="950.2105263157895" y="990.8631578947368" type="curve"/>
      <point x="821.4947368421052" y="990.8631578947368" type="line"/>
      <point x="821.4947368421052" y="843.0105263157894"/>
      <point x="821.4947368421052" y="711.5157894736842"/>
      <point x="821.4947368421052" y="553.4526315789474" type="curve"/>
      <point x="821.4947368421052" y="320.0421052631579" type="line"/>
      <point x="743.6631578947369" y="199.7263157894737"/>
      <point x="639.7684210526315" y="101.83157894736843"/>
      <point x="500.6736842105263" y="101.83157894736843" type="curve" smooth="yes"/>
      <point x="339.36842105263156" y="101.83157894736843"/>
      <point x="287.2421052631579" y="190.37894736842105"/>
      <point x="287.2421052631579" y="360.5473684210526" type="curve"/>
      <point x="287.2421052631579" y="553.4526315789474" type="line"/>
      <point x="287.2421052631579" y="711.5157894736842"/>
      <point x="287.2421052631579" y="848.4421052631579"/>
      <point x="287.2421052631579" y="996.2947368421053" type="curve"/>
      <point x="158.5263157894737" y="990.8631578947368" type="line"/>
      <point x="158.5263157894737" y="843.0105263157894"/>
      <point x="158.5263157894737" y="715.0947368421052"/>
      <point x="158.5263157894737" y="542.7157894736843" type="curve"/>
      <point x="158.5263157894737" y="481.13684210526316"/>
      <point x="158.5263157894737" y="421.4947368421053"/>
      <point x="158.5263157894737" y="334.77894736842103" type="curve" smooth="yes"/>
      <point x="158.5263157894737" y="104.98947368421052"/>
      <point x="248.25263157894736" y="-20.50526315789474"/>
    </contour>
  </outline>
</glyph>
<glyph name="v" format="2">
  <advance width="1009.1368421052632"/>
  <unicode hex="0076"/>
  <outline>
    <contour>
      <point x="429.38947368421054" y="0.0" type="curve"/>
      <point x="581.7473684210527" y="0.0" type="line"/>
      <point x="628.6736842105263" y="124.3578947368421"/>
      <point x="673.9578947368421" y="247.07368421052632"/>
      <point x="720.8842105263158" y="371.4315789473684" type="curve"/>
      <point x="787.4526315789474" y="548.1473684210526" type="line"/>
      <point x="842.378947368421" y="694.5052631578948"/>
      <point x="898.9473684210526" y="844.5052631578948"/>
      <point x="953.8736842105263" y="990.8631578947368" type="curve"/>
      <point x="816.8631578947368" y="990.8631578947368" type="line"/>
      <point x="756.8842105263158" y="820.6105263157895"/>
      <point x="696.1894736842105" y="651.4947368421052"/>
      <point x="632.5684210526316" y="475.4526315789474" type="curve"/>
      <point x="513.8947368421053" y="142.65263157894736" type="line"/>
      <point x="498.3157894736842" y="142.65263157894736" type="line"/>
      <point x="379.6421052631579" y="475.4526315789474" type="line"/>
      <point x="316.0210526315789" y="651.4947368421052"/>
      <point x="255.68421052631578" y="820.6105263157895"/>
      <point x="193.70526315789473" y="996.2947368421053" type="curve"/>
      <point x="55.26315789473684" y="990.8631578947368" type="line"/>
      <point x="110.18947368421053" y="846.1473684210526"/>
      <point x="166.7578947368421" y="696.1473684210526"/>
      <point x="221.68421052631578" y="551.4315789473684" type="curve"/>
      <point x="288.2526315789474" y="375.0736842105263" type="line"/>
      <point x="333.53684210526313" y="254.0"/>
      <point x="382.46315789473687" y="124.3578947368421"/>
    </contour>
  </outline>
</glyph>
<glyph name="w" format="2">
  <advance width="1584.778947368421"/>
  <unicode hex="0077"/>
  <anchor x="794.8842105263158" y="0.0" name="bottom"/>
  <anchor x="794.8842105263158" y="990.8631578947368" name="top"/>
  <outline>
    <contour>
      <point x="383.7473684210526" y="0.0" type="curve"/>
      <point x="534.4631578947368" y="0.0" type="line"/>
      <point x="584.2315789473685" y="162.82105263157894"/>
      <point x="639.2842105263157" y="340.2105263157895"/>
      <point x="687.4105263157895" y="497.7473684210526" type="curve"/>
      <point x="782.021052631579" y="807.1789473684211" type="line"/>
      <point x="796.8842105263158" y="807.1789473684211" type="line"/>
      <point x="891.8526315789474" y="501.38947368421054" type="line"/>
      <point x="941.978947368421" y="343.85263157894735"/>
      <point x="999.0315789473684" y="162.82105263157894"/>
      <point x="1049.157894736842" y="0.0" type="curve"/>
      <point x="1206.7368421052631" y="0.0" type="line"/>
      <point x="1246.378947368421" y="122.3578947368421"/>
      <point x="1288.0210526315789" y="250.7157894736842"/>
      <point x="1329.6631578947367" y="379.0736842105263" type="curve"/>
      <point x="1386.9473684210527" y="553.4315789473684" type="line"/>
      <point x="1434.5894736842106" y="698.1473684210526"/>
      <point x="1481.8736842105263" y="844.1473684210526"/>
      <point x="1529.5157894736842" y="990.8631578947368" type="curve"/>
      <point x="1392.7157894736843" y="990.8631578947368" type="line"/>
      <point x="1346.2315789473685" y="838.6736842105263"/>
      <point x="1285.8947368421052" y="643.7052631578947"/>
      <point x="1234.1263157894737" y="474.58947368421053" type="curve"/>
      <point x="1132.2315789473685" y="140.35789473684213" type="line"/>
      <point x="1118.6526315789474" y="140.35789473684213" type="line"/>
      <point x="1016.7578947368421" y="472.2315789473684" type="line"/>
      <point x="964.9894736842106" y="643.3473684210526"/>
      <point x="909.578947368421" y="823.7473684210527"/>
      <point x="857.8105263157895" y="990.8631578947368" type="curve"/>
      <point x="729.3263157894737" y="990.8631578947368" type="line"/>
      <point x="675.9157894736842" y="814.8210526315789"/>
      <point x="623.7894736842105" y="640.421052631579"/>
      <point x="572.021052631579" y="468.9473684210526" type="curve"/>
      <point x="473.41052631578947" y="140.35789473684213" type="line"/>
      <point x="459.8315789473684" y="140.35789473684213" type="line"/>
      <point x="359.22105263157897" y="460.7368421052632" type="line"/>
      <point x="305.4526315789474" y="631.8526315789474"/>
      <point x="244.7578947368421" y="826.8210526315789"/>
      <point x="190.9894736842105" y="996.2947368421053" type="curve"/>
      <point x="55.26315789473684" y="990.8631578947368" type="line"/>
      <point x="104.18947368421053" y="842.5052631578948"/>
      <point x="151.1157894736842" y="700.1473684210526"/>
      <point x="200.0421052631579" y="553.4315789473684" type="curve"/>
      <point x="258.61052631578946" y="377.0736842105263" type="line"/>
      <point x="301.53684210526313" y="249.07368421052632"/>
      <point x="342.82105263157894" y="124.3578947368421"/>
    </contour>
  </outline>
</glyph>
<glyph name="x" format="2">
  <advance width="1044.5052631578947"/>
  <unicode hex="0078"/>
  <outline>
    <contour>
      <point x="62.694736842105264" y="0.0" type="curve"/>
      <point x="210.06315789473683" y="0.0" type="line"/>
      <point x="273.6842105263158" y="92.27368421052631"/>
      <point x="319.8105263157895" y="158.90526315789475"/>
      <point x="383.4315789473684" y="251.17894736842106" type="curve"/>
      <point x="503.38947368421054" y="425.36842105263156" type="line"/>
      <point x="516.2526315789473" y="425.36842105263156" type="line"/>
      <point x="648.7789473684211" y="243.17894736842106" type="line"/>
      <point x="714.0421052631579" y="153.62105263157895"/>
      <point x="760.5263157894736" y="89.5578947368421"/>
      <point x="825.7894736842105" y="0.0" type="curve"/>
      <point x="983.9578947368421" y="0.0" type="line"/>
      <point x="887.5368421052632" y="128.14736842105262"/>
      <point x="828.0421052631579" y="207.22105263157894"/>
      <point x="756.9052631578948" y="300.65263157894736" type="curve"/>
      <point x="585.3473684210526" y="528.5894736842105" type="line"/>
      <point x="591.2842105263157" y="490.2105263157895" type="line"/>
      <point x="743.9157894736842" y="702.0" type="line"/>
      <point x="815.4105263157895" y="801.0736842105263"/>
      <point x="858.3368421052631" y="861.7894736842105"/>
      <point x="951.1157894736842" y="990.8631578947368" type="curve"/>
      <point x="801.2421052631579" y="990.8631578947368" type="line"/>
      <point x="737.2631578947369" y="898.2315789473685"/>
      <point x="690.421052631579" y="830.5263157894736"/>
      <point x="631.3684210526316" y="744.8210526315789" type="curve"/>
      <point x="517.2631578947369" y="579.5578947368421" type="line"/>
      <point x="505.3263157894737" y="579.5578947368421" type="line"/>
      <point x="390.5052631578947" y="743.8947368421053" type="line"/>
      <point x="331.09473684210525" y="829.6"/>
      <point x="283.5368421052632" y="899.0947368421052"/>
      <point x="215.9157894736842" y="996.2947368421053" type="curve"/>
      <point x="68.7578947368421" y="990.8631578947368" type="line"/>
      <point x="158.10526315789474" y="866.5052631578948"/>
      <point x="208.31578947368422" y="795.0736842105263"/>
      <point x="280.37894736842105" y="695.0736842105263" type="curve"/>
      <point x="431.22105263157897" y="483.6421052631579" type="line"/>
      <point x="429.57894736842104" y="525.3052631578947" type="line"/>
      <point x="274.5263157894737" y="303.36842105263156" type="line"/>
      <point x="204.46315789473684" y="203.57894736842104"/>
      <point x="155.32631578947368" y="132.50526315789475"/>
    </contour>
  </outline>
</glyph>
<glyph name="y" format="2">
  <advance width="1018.2105263157895"/>
  <unicode hex="0079"/>
  <anchor x="745.5368421052632" y="0.0" name="bottom"/>
  <anchor x="509.7473684210526" y="990.8631578947368" name="top"/>
  <outline>
    <contour>
      <point x="278.88421052631577" y="-389.4315789473684" type="curve"/>
      <point x="416.3157894736842" y="-384.0" type="line"/>
      <point x="473.6" y="-240.0"/>
      <point x="539.2421052631579" y="-76.56842105263158"/>
      <point x="640.1684210526316" y="177.43157894736842" type="curve"/>
      <point x="751.0947368421052" y="456.14736842105265" type="line"/>
      <point x="850.021052631579" y="706.5052631578948"/>
      <point x="899.6631578947369" y="828.8631578947368"/>
      <point x="962.9473684210526" y="990.8631578947368" type="curve"/>
      <point x="828.1473684210526" y="990.8631578947368" type="line"/>
      <point x="762.5263157894736" y="818.1052631578947"/>
      <point x="698.9052631578948" y="649.7052631578947"/>
      <point x="633.2842105263157" y="473.66315789473686" type="curve"/>
      <point x="507.3263157894737" y="139.78947368421052" type="line"/>
      <point x="491.7473684210526" y="139.78947368421052" type="line"/>
      <point x="376.3578947368421" y="472.37894736842105" type="line"/>
      <point x="314.37894736842105" y="650.7789473684211"/>
      <point x="255.68421052631578" y="817.8947368421053"/>
      <point x="193.70526315789473" y="996.2947368421053" type="curve"/>
      <point x="55.26315789473684" y="990.8631578947368" type="line"/>
      <point x="108.18947368421053" y="848.5052631578948"/>
      <point x="165.1157894736842" y="696.5052631578948"/>
      <point x="218.0421052631579" y="554.1473684210526" type="curve"/>
      <point x="284.61052631578946" y="374.14736842105265" type="line"/>
      <point x="333.89473684210526" y="241.78947368421052"/>
      <point x="386.82105263157894" y="99.78947368421052"/>
      <point x="437.7473684210526" y="-36.56842105263158" type="curve"/>
      <point x="437.7473684210526" y="0.9473684210526319" type="line"/>
      <point x="385.38947368421054" y="-127.91578947368421"/>
      <point x="331.2421052631579" y="-260.5684210526316"/>
    </contour>
  </outline>
</glyph>
<glyph name="z" format="2">
  <advance width="983.3263157894737"/>
  <unicode hex="007A"/>
  <guideline x="213.8842105263158" y="262.6" angle="232.7447"/>
  <guideline x="274.3157894736842" y="241.0421052631579" angle="52.34430000000003"/>
  <anchor x="488.0210526315789" y="0.0" name="bottom"/>
  <anchor x="488.0210526315789" y="495.4315789473684" name="center"/>
  <anchor x="488.0210526315789" y="990.8631578947368" name="top"/>
  <outline>
    <contour>
      <point x="80.84210526315789" y="0.0" type="line"/>
      <point x="909.0526315789474" y="0.0" type="line"/>
      <point x="909.0526315789474" y="103.2421052631579" type="line"/>
      <point x="770.0" y="103.2421052631579"/>
      <point x="582.1684210526316" y="103.2421052631579"/>
      <point x="469.3263157894737" y="103.2421052631579" type="curve"/>
      <point x="219.43157894736842" y="103.2421052631579" type="line"/>
      <point x="235.5157894736842" y="71.6421052631579" type="line"/>
      <point x="566.1684210526316" y="504.63157894736844" type="line"/>
      <point x="667.7263157894737" y="638.0421052631579"/>
      <point x="796.421052631579" y="805.8736842105263"/>
      <point x="876.4842105263158" y="910.1473684210526" type="curve"/>
      <point x="876.4842105263158" y="990.8631578947368" type="line"/>
      <point x="83.34736842105264" y="990.8631578947368" type="line"/>
      <point x="83.34736842105264" y="887.2631578947369" type="line"/>
      <point x="234.0421052631579" y="887.2631578947369"/>
      <point x="424.58947368421053" y="887.2631578947369"/>
      <point x="535.7894736842105" y="887.2631578947369" type="curve"/>
      <point x="762.1894736842105" y="887.2631578947369" type="line"/>
      <point x="741.0315789473684" y="936.5052631578948" type="line"/>
      <point x="408.4421052631579" y="499.7894736842105" type="line"/>
      <point x="311.8105263157895" y="372.58947368421053"/>
      <point x="197.32631578947368" y="222.61052631578949"/>
      <point x="80.84210526315789" y="70.27368421052631" type="curve"/>
    </contour>
  </outline>
</glyph>
<glyph name="braceleft" format="2">
  <advance width="786.2315789473685"/>
  <unicode hex="007B"/>
  <outline>
    <contour>
      <point x="591.4736842105264" y="-230.44210526315788" type="curve" smooth="yes"/>
      <point x="759.0736842105263" y="-230.44210526315788" type="line"/>
      <point x="759.0736842105263" y="-119.26315789473685" type="line"/>
      <point x="691.0736842105263" y="-119.26315789473685"/>
      <point x="638.7157894736843" y="-119.26315789473685"/>
      <point x="604.7157894736843" y="-119.26315789473685" type="curve"/>
      <point x="471.38947368421054" y="-119.26315789473685"/>
      <point x="402.1894736842105" y="-57.915789473684214"/>
      <point x="402.1894736842105" y="57.136842105263156" type="curve" smooth="yes"/>
      <point x="402.1894736842105" y="391.6842105263158" type="line" smooth="yes"/>
      <point x="402.1894736842105" y="547.3263157894737"/>
      <point x="340.1894736842105" y="599.3473684210526"/>
      <point x="246.37894736842105" y="641.2842105263157" type="curve"/>
      <point x="246.37894736842105" y="656.5052631578948" type="line"/>
      <point x="340.1894736842105" y="697.1578947368421"/>
      <point x="402.1894736842105" y="749.3894736842105"/>
      <point x="402.1894736842105" y="904.4631578947368" type="curve" smooth="yes"/>
      <point x="402.1894736842105" y="1240.6526315789474" type="line" smooth="yes"/>
      <point x="402.1894736842105" y="1355.7052631578947"/>
      <point x="471.38947368421054" y="1417.0526315789473"/>
      <point x="604.7157894736843" y="1417.0526315789473" type="curve"/>
      <point x="640.3578947368421" y="1417.0526315789473"/>
      <point x="694.0" y="1417.0526315789473"/>
      <point x="757.2842105263157" y="1417.0526315789473" type="curve"/>
      <point x="757.2842105263157" y="1528.2315789473685" type="line"/>
      <point x="591.4736842105264" y="1528.2315789473685" type="line" smooth="yes"/>
      <point x="397.36842105263156" y="1528.2315789473685"/>
      <point x="279.70526315789476" y="1430.3578947368421"/>
      <point x="279.70526315789476" y="1256.042105263158" type="curve"/>
      <point x="279.70526315789476" y="1138.6315789473683"/>
      <point x="279.70526315789476" y="1021.578947368421"/>
      <point x="279.70526315789476" y="904.1684210526316" type="curve"/>
      <point x="279.70526315789476" y="754.9052631578948"/>
      <point x="184.44210526315788" y="699.2631578947369"/>
      <point x="86.02105263157895" y="699.2631578947369" type="curve" smooth="yes"/>
      <point x="23.57894736842105" y="699.2631578947369" type="line"/>
      <point x="23.57894736842105" y="596.8842105263158" type="line"/>
      <point x="86.02105263157895" y="596.8842105263158" type="line" smooth="yes"/>
      <point x="184.44210526315788" y="596.8842105263158"/>
      <point x="279.70526315789476" y="541.2421052631579"/>
      <point x="279.70526315789476" y="391.9789473684211" type="curve"/>
      <point x="279.70526315789476" y="274.5684210526316"/>
      <point x="279.70526315789476" y="159.1578947368421"/>
      <point x="279.70526315789476" y="41.74736842105263" type="curve"/>
      <point x="279.70526315789476" y="-132.56842105263158"/>
      <point x="397.36842105263156" y="-230.44210526315788"/>
    </contour>
  </outline>
</glyph>
<glyph name="asciitilde" format="2">
  <advance width="1130.7368421052631"/>
  <unicode hex="007E"/>
  <outline>
    <contour>
      <point x="789.5157894736842" y="450.2526315789474" type="curve" smooth="yes"/>
      <point x="910.6105263157895" y="450.2526315789474"/>
      <point x="1001.4736842105264" y="544.7157894736843"/>
      <point x="1001.4736842105264" y="711.621052631579" type="curve"/>
      <point x="909.1157894736842" y="711.621052631579" type="line"/>
      <point x="906.9684210526316" y="613.2210526315789"/>
      <point x="851.2" y="568.4421052631579"/>
      <point x="774.0" y="568.4421052631579" type="curve"/>
      <point x="642.021052631579" y="568.4421052631579"/>
      <point x="522.9473684210526" y="740.8421052631579"/>
      <point x="345.7263157894737" y="740.8421052631579" type="curve" smooth="yes"/>
      <point x="222.4842105263158" y="740.8421052631579"/>
      <point x="129.26315789473685" y="646.021052631579"/>
      <point x="129.26315789473685" y="479.4736842105263" type="curve"/>
      <point x="221.62105263157895" y="479.4736842105263" type="line"/>
      <point x="223.7684210526316" y="577.8736842105263"/>
      <point x="282.2526315789474" y="622.6526315789474"/>
      <point x="360.1684210526316" y="622.6526315789474" type="curve"/>
      <point x="490.3578947368421" y="622.6526315789474"/>
      <point x="611.2210526315789" y="450.2526315789474"/>
    </contour>
  </outline>
</glyph>
<glyph name="sterling" format="2">
  <advance width="1173.7473684210527"/>
  <unicode hex="00A3"/>
  <outline>
    <contour>
      <point x="135.68421052631578" y="0.0" type="line"/>
      <point x="1105.536842105263" y="0.0" type="line"/>
      <point x="1105.536842105263" y="120.84210526315789" type="line"/>
      <point x="931.8315789473684" y="120.84210526315789"/>
      <point x="779.7684210526315" y="120.84210526315789"/>
      <point x="519.8526315789474" y="120.84210526315789" type="curve"/>
      <point x="231.3684210526316" y="120.84210526315789" type="line"/>
      <point x="244.94736842105263" y="78.90526315789474" type="line"/>
      <point x="394.61052631578946" y="205.53684210526316"/>
      <point x="426.7578947368421" y="329.8105263157895"/>
      <point x="426.7578947368421" y="477.7263157894737" type="curve" smooth="yes"/>
      <point x="426.7578947368421" y="902.0421052631579" type="line" smooth="yes"/>
      <point x="426.7578947368421" y="1157.7684210526315"/>
      <point x="533.4526315789474" y="1273.957894736842"/>
      <point x="747.4736842105264" y="1273.957894736842" type="curve"/>
      <point x="824.1052631578947" y="1273.957894736842"/>
      <point x="919.2421052631579" y="1258.1052631578948"/>
      <point x="1032.1052631578948" y="1194.821052631579" type="curve"/>
      <point x="1047.1157894736841" y="1319.3684210526317" type="line"/>
      <point x="970.0421052631579" y="1363.3684210526317"/>
      <point x="854.8210526315789" y="1395.578947368421"/>
      <point x="738.6736842105263" y="1395.578947368421" type="curve" smooth="yes"/>
      <point x="458.2526315789474" y="1395.578947368421"/>
      <point x="291.7473684210526" y="1237.5578947368422"/>
      <point x="291.7473684210526" y="911.1157894736842" type="curve" smooth="yes"/>
      <point x="291.7473684210526" y="757.3473684210526"/>
      <point x="291.7473684210526" y="605.578947368421"/>
      <point x="291.7473684210526" y="452.1684210526316" type="curve"/>
      <point x="291.7473684210526" y="324.9684210526316"/>
      <point x="264.46315789473687" y="195.7684210526316"/>
      <point x="135.68421052631578" y="81.85263157894737" type="curve"/>
    </contour>
    <contour>
      <point x="123.76842105263158" y="706.8631578947368" type="line"/>
      <point x="245.85263157894738" y="706.8631578947368"/>
      <point x="361.57894736842104" y="706.8631578947368"/>
      <point x="460.94736842105266" y="706.8631578947368" type="curve"/>
      <point x="525.9578947368421" y="706.8631578947368" type="line"/>
      <point x="625.3263157894737" y="706.8631578947368"/>
      <point x="741.0526315789474" y="706.8631578947368"/>
      <point x="863.1368421052632" y="706.8631578947368" type="curve"/>
      <point x="863.1368421052632" y="806.5263157894736" type="line"/>
      <point x="741.0526315789474" y="806.5263157894736"/>
      <point x="625.3263157894737" y="806.5263157894736"/>
      <point x="525.9578947368421" y="806.5263157894736" type="curve"/>
      <point x="460.94736842105266" y="806.5263157894736" type="line"/>
      <point x="361.57894736842104" y="806.5263157894736"/>
      <point x="245.85263157894738" y="806.5263157894736"/>
      <point x="123.76842105263158" y="806.5263157894736" type="curve"/>
    </contour>
  </outline>
</glyph>
<glyph name="currency" format="2">
  <advance width="1230.0631578947368"/>
  <unicode hex="00A4"/>
  <outline>
    <contour>
      <point x="611.3894736842105" y="241.03157894736842" type="curve" smooth="yes"/>
      <point x="844.2105263157895" y="241.03157894736842"/>
      <point x="1015.5157894736842" y="391.89473684210526"/>
      <point x="1015.5157894736842" y="640.7157894736843" type="curve" smooth="yes"/>
      <point x="1015.5157894736842" y="876.7368421052631"/>
      <point x="845.8526315789474" y="1040.6105263157895"/>
      <point x="615.3894736842105" y="1040.6105263157895" type="curve" smooth="yes"/>
      <point x="380.9263157894737" y="1040.6105263157895"/>
      <point x="211.26315789473685" y="876.8842105263158"/>
      <point x="211.26315789473685" y="640.7157894736843" type="curve" smooth="yes"/>
      <point x="211.26315789473685" y="392.2526315789474"/>
      <point x="380.9263157894737" y="241.03157894736842"/>
    </contour>
    <contour>
      <point x="181.2" y="123.93684210526315" type="line"/>
      <point x="267.4947368421053" y="210.2315789473684"/>
      <point x="349.4315789473684" y="292.1684210526316"/>
      <point x="419.36842105263156" y="362.10526315789474" type="curve"/>
      <point x="335.4947368421053" y="445.9789473684211" type="line"/>
      <point x="265.5578947368421" y="376.0421052631579"/>
      <point x="183.62105263157895" y="294.10526315789474"/>
      <point x="97.32631578947368" y="207.81052631578947" type="curve"/>
    </contour>
    <contour>
      <point x="611.7473684210527" y="356.5684210526316" type="curve"/>
      <point x="456.2105263157895" y="356.5684210526316"/>
      <point x="333.2421052631579" y="447.2631578947368"/>
      <point x="333.2421052631579" y="640.3578947368421" type="curve" smooth="yes"/>
      <point x="333.2421052631579" y="821.4526315789474"/>
      <point x="457.85263157894735" y="925.4315789473684"/>
      <point x="615.0315789473684" y="925.4315789473684" type="curve"/>
      <point x="770.9263157894737" y="925.4315789473684"/>
      <point x="893.5368421052632" y="820.7368421052631"/>
      <point x="893.5368421052632" y="640.3578947368421" type="curve" smooth="yes"/>
      <point x="893.5368421052632" y="447.2631578947368"/>
      <point x="770.5684210526316" y="356.5684210526316"/>
    </contour>
    <contour>
      <point x="336.2105263157895" y="838.021052631579" type="curve"/>
      <point x="418.65263157894736" y="920.4631578947368" type="line"/>
      <point x="348.7157894736842" y="990.4"/>
      <point x="266.77894736842103" y="1072.3368421052633"/>
      <point x="180.4842105263158" y="1158.6315789473683" type="curve"/>
      <point x="98.0421052631579" y="1076.1894736842105" type="line"/>
      <point x="184.33684210526314" y="989.8947368421053"/>
      <point x="266.2736842105263" y="907.9578947368421"/>
    </contour>
    <contour>
      <point x="1049.578947368421" y="124.65263157894736" type="curve"/>
      <point x="1132.0210526315789" y="207.09473684210525" type="line"/>
      <point x="1045.7263157894736" y="293.38947368421054"/>
      <point x="963.7894736842105" y="375.3263157894737"/>
      <point x="893.8526315789474" y="445.2631578947368" type="curve"/>
      <point x="811.4105263157895" y="362.82105263157894" type="line"/>
      <point x="881.3473684210526" y="292.88421052631577"/>
      <point x="963.2842105263157" y="210.94736842105263"/>
    </contour>
    <contour>
      <point x="894.5684210526316" y="837.3052631578947" type="line"/>
      <point x="964.5052631578948" y="907.2421052631579"/>
      <point x="1046.4421052631578" y="989.1789473684211"/>
      <point x="1132.7368421052631" y="1075.4736842105262" type="curve"/>
      <point x="1048.8631578947368" y="1159.3473684210526" type="line"/>
      <point x="962.5684210526316" y="1073.0526315789473"/>
      <point x="880.6315789473684" y="991.1157894736842"/>
      <point x="810.6947368421053" y="921.1789473684211" type="curve"/>
    </contour>
  </outline>
</glyph>
<glyph name="yen" format="2">
  <advance width="1233.2"/>
  <unicode hex="00A5"/>
  <outline>
    <contour>
      <point x="553.2421052631579" y="551.6631578947369" type="line"/>
      <point x="681.3894736842105" y="551.6631578947369" type="line"/>
      <point x="980.4421052631579" y="1048.1263157894737" type="line"/>
      <point x="1042.6526315789474" y="1151.7052631578947"/>
      <point x="1112.1473684210525" y="1266.5684210526315"/>
      <point x="1174.3578947368421" y="1370.1473684210525" type="curve"/>
      <point x="1021.978947368421" y="1370.1473684210525" type="line"/>
      <point x="911.1578947368421" y="1183.3894736842105"/>
      <point x="855.7473684210527" y="1090.1894736842105"/>
      <point x="768.9894736842106" y="943.8526315789474" type="curve"/>
      <point x="624.8210526315789" y="699.9578947368421" type="line"/>
      <point x="608.5263157894736" y="699.9578947368421" type="line"/>
      <point x="466.7157894736842" y="941.8526315789474" type="line"/>
      <point x="378.6736842105263" y="1091.1157894736841"/>
      <point x="326.90526315789475" y="1178.6736842105263"/>
      <point x="214.44210526315788" y="1370.1473684210525" type="curve"/>
      <point x="58.8421052631579" y="1370.1473684210525" type="line"/>
      <point x="156.33684210526314" y="1208.421052631579"/>
      <point x="196.90526315789475" y="1140.9894736842105"/>
      <point x="253.4736842105263" y="1047.7684210526315" type="curve"/>
    </contour>
    <contour>
      <point x="550.1684210526316" y="0.0" type="curve"/>
      <point x="684.8210526315789" y="0.0" type="line"/>
      <point x="684.8210526315789" y="153.49473684210525"/>
      <point x="684.8210526315789" y="285.70526315789476"/>
      <point x="684.8210526315789" y="453.13684210526316" type="curve"/>
      <point x="684.8210526315789" y="661.0736842105263" type="line"/>
      <point x="550.1684210526316" y="661.0736842105263" type="line"/>
      <point x="550.1684210526316" y="453.13684210526316" type="line"/>
      <point x="550.1684210526316" y="285.70526315789476"/>
      <point x="550.1684210526316" y="153.49473684210525"/>
    </contour>
    <contour>
      <point x="164.69473684210527" y="294.1684210526316" type="line"/>
      <point x="286.77894736842103" y="294.1684210526316"/>
      <point x="402.5052631578947" y="294.1684210526316"/>
      <point x="501.87368421052633" y="294.1684210526316" type="curve"/>
      <point x="734.0421052631579" y="294.1684210526316" type="line"/>
      <point x="833.4105263157895" y="294.1684210526316"/>
      <point x="949.1368421052632" y="294.1684210526316"/>
      <point x="1071.221052631579" y="294.1684210526316" type="curve"/>
      <point x="1071.221052631579" y="386.6736842105263" type="line"/>
      <point x="949.1368421052632" y="386.6736842105263"/>
      <point x="833.4105263157895" y="386.6736842105263"/>
      <point x="734.0421052631579" y="386.6736842105263" type="curve"/>
      <point x="501.87368421052633" y="386.6736842105263" type="line"/>
      <point x="402.5052631578947" y="386.6736842105263"/>
      <point x="286.77894736842103" y="386.6736842105263"/>
      <point x="164.69473684210527" y="386.6736842105263" type="curve"/>
    </contour>
    <contour>
      <point x="164.69473684210527" y="571.7052631578947" type="line"/>
      <point x="286.77894736842103" y="571.7052631578947"/>
      <point x="402.5052631578947" y="571.7052631578947"/>
      <point x="501.87368421052633" y="571.7052631578947" type="curve"/>
      <point x="734.0421052631579" y="571.7052631578947" type="line"/>
      <point x="833.4105263157895" y="571.7052631578947"/>
      <point x="949.1368421052632" y="571.7052631578947"/>
      <point x="1071.221052631579" y="571.7052631578947" type="curve"/>
      <point x="1071.221052631579" y="664.2105263157895" type="line"/>
      <point x="949.1368421052632" y="664.2105263157895"/>
      <point x="833.4105263157895" y="664.2105263157895"/>
      <point x="734.0421052631579" y="664.2105263157895" type="curve"/>
      <point x="501.87368421052633" y="664.2105263157895" type="line"/>
      <point x="402.5052631578947" y="664.2105263157895"/>
      <point x="286.77894736842103" y="664.2105263157895"/>
      <point x="164.69473684210527" y="664.2105263157895" type="curve"/>
    </contour>
  </outline>
</glyph>
<glyph name="brokenbar" format="2">
  <advance width="518.6105263157895"/>
  <unicode hex="00A6"/>
  <outline>
    <contour>
      <point x="200.67368421052632" y="728.421052631579" type="line"/>
      <point x="317.93684210526317" y="728.421052631579" type="line"/>
      <point x="317.93684210526317" y="910.421052631579" type="line"/>
      <point x="317.93684210526317" y="1126.421052631579"/>
      <point x="317.93684210526317" y="1332.421052631579"/>
      <point x="317.93684210526317" y="1568.421052631579" type="curve"/>
      <point x="200.67368421052632" y="1568.421052631579" type="line"/>
      <point x="200.67368421052632" y="1332.421052631579"/>
      <point x="200.67368421052632" y="1126.421052631579"/>
      <point x="200.67368421052632" y="910.421052631579" type="curve"/>
    </contour>
    <contour>
      <point x="200.67368421052632" y="-311.57894736842104" type="curve"/>
      <point x="317.93684210526317" y="-311.57894736842104" type="line"/>
      <point x="317.93684210526317" y="-75.57894736842105"/>
      <point x="317.93684210526317" y="130.42105263157896"/>
      <point x="317.93684210526317" y="346.42105263157896" type="curve"/>
      <point x="317.93684210526317" y="528.421052631579" type="line"/>
      <point x="200.67368421052632" y="528.421052631579" type="line"/>
      <point x="200.67368421052632" y="346.42105263157896" type="line"/>
      <point x="200.67368421052632" y="130.42105263157896"/>
      <point x="200.67368421052632" y="-75.57894736842105"/>
    </contour>
  </outline>
</glyph>
<glyph name="section" format="2">
  <advance width="1074.3908045977012"/>
  <unicode hex="00A7"/>
  <outline>
    <contour>
      <point x="490.3448275862069" y="-248.68965517241378" type="curve" smooth="yes"/>
      <point x="775.8850574712644" y="-248.68965517241378"/>
      <point x="897.7011494252873" y="-94.59770114942529"/>
      <point x="897.7011494252873" y="90.34482758620689" type="curve" smooth="yes"/>
      <point x="897.7011494252873" y="296.7816091954023"/>
      <point x="750.6436781609195" y="357.0344827586207"/>
      <point x="516.0459770114943" y="426.5977011494253" type="curve" smooth="yes"/>
      <point x="320.11494252873564" y="485.1264367816092"/>
      <point x="236.27586206896552" y="536.7816091954023"/>
      <point x="236.27586206896552" y="663.1494252873563" type="curve" smooth="yes"/>
      <point x="236.27586206896552" y="796.1379310344828"/>
      <point x="326.8965517241379" y="856.8275862068965"/>
      <point x="416.2988505747127" y="873.264367816092" type="curve"/>
      <point x="326.32183908045977" y="957.2183908045977" type="line"/>
      <point x="182.8735632183908" y="910.4367816091954"/>
      <point x="102.71264367816092" y="795.9310344827586"/>
      <point x="102.71264367816092" y="657.3333333333334" type="curve" smooth="yes"/>
      <point x="102.71264367816092" y="469.4942528735632"/>
      <point x="245.95402298850576" y="392.55172413793105"/>
      <point x="431.9310344827586" y="335.08045977011494" type="curve" smooth="yes"/>
      <point x="677.5172413793103" y="258.55172413793105"/>
      <point x="764.9195402298851" y="220.80459770114942"/>
      <point x="764.9195402298851" y="96.0" type="curve" smooth="yes"/>
      <point x="764.9195402298851" y="-82.82758620689654"/>
      <point x="637.3333333333334" y="-134.22988505747128"/>
      <point x="482.9655172413793" y="-134.22988505747128" type="curve"/>
      <point x="350.0919540229885" y="-134.22988505747128"/>
      <point x="215.4022988505747" y="-93.44827586206895"/>
      <point x="105.40229885057471" y="-29.885057471264368" type="curve"/>
      <point x="91.83908045977012" y="-153.816091954023" type="line"/>
      <point x="189.83908045977012" y="-209.4712643678161"/>
      <point x="349.0574712643678" y="-248.68965517241378"/>
    </contour>
    <contour>
      <point x="787.3793103448276" y="258.0919540229885" type="line"/>
      <point x="929.6091954022988" y="318.8735632183908"/>
      <point x="993.7701149425287" y="434.3448275862069"/>
      <point x="993.7701149425287" y="566.8505747126437" type="curve" smooth="yes"/>
      <point x="993.7701149425287" y="763.9080459770115"/>
      <point x="846.7126436781609" y="829.6321839080459"/>
      <point x="612.1149425287356" y="899.1954022988506" type="curve" smooth="yes"/>
      <point x="416.18390804597703" y="957.7241379310345"/>
      <point x="332.3448275862069" y="1009.3793103448276"/>
      <point x="332.3448275862069" y="1128.712643678161" type="curve" smooth="yes"/>
      <point x="332.3448275862069" y="1303.448275862069"/>
      <point x="485.2413793103448" y="1337.103448275862"/>
      <point x="584.6436781609195" y="1337.103448275862" type="curve"/>
      <point x="671.5172413793103" y="1337.103448275862"/>
      <point x="785.7701149425287" y="1313.5402298850574"/>
      <point x="908.2068965517242" y="1234.3218390804598" type="curve"/>
      <point x="920.551724137931" y="1359.9080459770114" type="line"/>
      <point x="834.2068965517242" y="1410.7816091954023"/>
      <point x="703.6091954022988" y="1451.5632183908046"/>
      <point x="568.3218390804598" y="1451.5632183908046" type="curve" smooth="yes"/>
      <point x="339.4712643678161" y="1451.5632183908046"/>
      <point x="198.0" y="1321.655172413793"/>
      <point x="198.0" y="1131.4942528735633" type="curve" smooth="yes"/>
      <point x="198.0" y="936.6206896551724"/>
      <point x="349.0574712643678" y="859.6781609195402"/>
      <point x="528.0" y="806.8965517241379" type="curve" smooth="yes"/>
      <point x="773.5862068965517" y="733.4942528735633"/>
      <point x="860.9885057471264" y="689.4942528735633"/>
      <point x="860.9885057471264" y="560.7816091954023" type="curve" smooth="yes"/>
      <point x="860.9885057471264" y="435.01149425287355"/>
      <point x="794.8965517241379" y="362.2298850574713"/>
      <point x="698.3678160919541" y="335.35632183908046" type="curve"/>
    </contour>
  </outline>
</glyph>
